{
copyright = "Copyright 2022 The Braah Project Authors (https://github.com/artandtype/Braah )";
designer = "Ashish Kumar";
designerURL = "https://www.artandtype.in/";
familyName = "Braah One";
customParameters = (
{
name = glyphOrder;
value = (
.notdef,
NULL,
CR,
space,
exclam,
quotedbl,
numbersign,
dollar,
percent,
ampersand,
quotesingle,
parenleft,
parenright,
asterisk,
plus,
comma,
hyphen,
period,
slash,
zero,
one,
two,
three,
four,
five,
six,
seven,
eight,
nine,
colon,
semicolon,
less,
equal,
greater,
question,
at,
A,
B,
C,
D,
E,
F,
G,
H,
I,
J,
K,
L,
M,
N,
O,
P,
Q,
R,
S,
T,
U,
V,
W,
X,
Y,
Z,
bracketleft,
backslash,
bracketright,
asciicircum,
underscore,
grave,
a,
b,
c,
d,
e,
f,
g,
h,
i,
j,
k,
l,
m,
n,
o,
p,
q,
r,
s,
u,
v,
w,
x,
y,
z,
braceleft,
bar,
braceright,
asciitilde,
uni00A0,
exclamdown,
cent,
sterling,
currency,
yen,
brokenbar,
section,
dieresis,
copyright,
ordfeminine,
guillemotleft,
logicalnot,
registered,
macron,
degree,
plusminus,
twosuperior,
threesuperior,
acute,
mu,
paragraph,
periodcentered,
cedilla,
onesuperior,
ordmasculine,
guillemotright,
onequarter,
onehalf,
threequarters,
questiondown,
Agrave,
Aacute,
Acircumflex,
Atilde,
Adieresis,
Aring,
AE,
Ccedilla,
Egrave,
Eacute,
Ecircumflex,
Edieresis,
Igrave,
Iacute,
Icircumflex,
Idieresis,
Eth,
Ntilde,
Ograve,
Oacute,
Ocircumflex,
Otilde,
Odieresis,
multiply,
Oslash,
Ugrave,
Uacute,
Ucircumflex,
Udieresis,
Yacute,
Thorn,
germandbls,
agrave,
aacute,
acircumflex,
atilde,
adieresis,
aring,
ae,
ccedilla,
egrave,
eacute,
ecircumflex,
edieresis,
igrave,
iacute,
icircumflex,
idieresis,
eth,
ntilde,
ograve,
oacute,
ocircumflex,
otilde,
odieresis,
divide,
oslash,
ugrave,
uacute,
ucircumflex,
udieresis,
yacute,
thorn,
ydieresis,
Dcroat,
dcroat,
uni0251,
uni0259,
uni02BB,
uni02BC,
uni02BE,
uni02BF,
circumflex,
caron,
uni02C8,
uni02C9,
uni02CA,
uni02CB,
uni02CC,
breve,
dotaccent,
ring,
ogonek,
tilde,
hungarumlaut,
gravecomb,
acutecomb,
uni0302,
tildecomb,
uni0304,
uni0306,
uni0307,
uni0308,
hookabovecomb,

glyphs = (
{
glyphname = .notdef;
layers = (
{
hints = (
{
place = "{80, 149}";
type = Stem;
},
{
place = "{455, 149}";
type = Stem;
},
{
horizontal = 1;
place = "{0, 133}";
type = Stem;
},
{
horizontal = 1;
place = "{519, 132}";
type = Stem;
}
);
layerId = "49A649E9-A574-4B20-B218-33A3EC71A7EA";
paths = (
{
closed = 1;
nodes = (
"604 0 LINE",
"604 651 LINE",
"80 651 LINE",
"80 0 LINE"
);
},
{
closed = 1;
nodes = (
"229 133 LINE",
"229 519 LINE",
"455 519 LINE",
"455 133 LINE"
);
}
);
width = 684;
}
);
},
{
glyphname = exclam;
layers = (
{
hints = (
{
place = "{50, 192}";
type = Stem;
},
{
place = "{66, 161}";
type = Stem;
},
{
horizontal = 1;
place = "{-8, 188}";
type = Stem;
},
{
horizontal = 1;
place = "{635, -20}";
target = down;
type = TopGhost;
}
);
layerId = "49A649E9-A574-4B20-B218-33A3EC71A7EA";
paths = (
{
closed = 1;
nodes = (
"77 231 LINE",
"212 231 LINE",
"241 635 LINE",
"55 635 LINE"
);
},
{
closed = 1;
nodes = (
"204 -8 OFFCURVE",
"242 33 OFFCURVE",
"242 86 CURVE SMOOTH",
"242 142 OFFCURVE",
"199 180 OFFCURVE",
"145 180 CURVE SMOOTH",
"88 180 OFFCURVE",
"50 139 OFFCURVE",
"50 86 CURVE SMOOTH",
"50 32 OFFCURVE",
"88 -8 OFFCURVE",
"146 -8 CURVE SMOOTH"
);
}
);
width = 298;
}
);
unicode = 0021;
},
{
glyphname = quotedbl;
layers = (
{
hints = (
{
horizontal = 1;
place = "{660, -20}";
target = down;
type = TopGhost;
},
{
horizontal = 1;
place = "{404, 21}";
target = up;
type = BottomGhost;
}
);
layerId = "49A649E9-A574-4B20-B218-33A3EC71A7EA";
paths = (
{
closed = 1;
nodes = (
"50 404 LINE",
"167 404 LINE",
"189 660 LINE",
"30 660 LINE"
);
},
{
closed = 1;
nodes = (
"252 404 LINE",
"369 404 LINE",
"391 660 LINE",
"232 660 LINE"
);
}
);
width = 421;
}
);
leftKerningGroup = uni02BC_2nd;
rightKerningGroup = uni02BB1_1st;
unicode = 0022;
},
{
glyphname = numbersign;
layers = (
{
hints = (
{
horizontal = 1;
place = "{129, 127}";
type = Stem;
},
{
horizontal = 1;
place = "{357, 127}";
type = Stem;
},
{
horizontal = 1;
place = "{616, -20}";
target = down;
type = TopGhost;
},
{
horizontal = 1;
place = "{0, 21}";
target = up;
type = BottomGhost;
}
);
layerId = "49A649E9-A574-4B20-B218-33A3EC71A7EA";
paths = (
{
closed = 1;
nodes = (
"94 0 LINE",
"241 0 LINE",
"271 129 LINE",
"362 129 LINE",
"336 0 LINE",
"484 0 LINE",
"512 129 LINE",
"634 129 LINE",
"659 256 LINE",
"541 256 LINE",
"563 357 LINE",
"676 357 LINE",
"706 484 LINE",
"591 484 LINE",
"619 616 LINE",
"470 616 LINE",
"440 484 LINE",
"351 484 LINE",
"382 616 LINE",
"230 616 LINE",
"200 484 LINE",
"93 484 LINE",
"63 357 LINE",
"172 357 LINE",
"149 256 LINE",
"37 256 LINE",
"7 129 LINE",
"121 129 LINE"
);
},
{
closed = 1;
nodes = (
"300 256 LINE",
"323 357 LINE",
"412 357 LINE",
"390 256 LINE"
);
}
);
width = 714;
}
);
unicode = 0023;
},
{
glyphname = dollar;
layers = (
{
hints = (
{
place = "{49, 180}";
type = Stem;
},
{
place = "{234, 132}";
type = Stem;
},
{
place = "{367, 181}";
type = Stem;
},
{
horizontal = 1;
place = "{-85, 221}";
type = Stem;
},
{
horizontal = 1;
place = "{497, 223}";
type = Stem;
}
);
layerId = "49A649E9-A574-4B20-B218-33A3EC71A7EA";
paths = (
{
closed = 1;
nodes = (
"290 404 LINE SMOOTH",
"268 412 OFFCURVE",
"229 428 OFFCURVE",
"229 458 CURVE SMOOTH",
"229 493 OFFCURVE",
"281 497 OFFCURVE",
"308 497 CURVE SMOOTH",
"363 497 OFFCURVE",
"441 481 OFFCURVE",
"488 454 CURVE",
"539 570 LINE",
"500 603 OFFCURVE",
"442 628 OFFCURVE",
"366 637 CURVE",
"366 720 LINE",
"234 720 LINE",
"234 635 LINE",
"115 618 OFFCURVE",
"49 555 OFFCURVE",
"49 459 CURVE SMOOTH",
"49 362 OFFCURVE",
"118 312 OFFCURVE",
"221 274 CURVE SMOOTH",
"305 243 LINE SMOOTH",
"329 234 OFFCURVE",
"367 220 OFFCURVE",
"367 184 CURVE SMOOTH",
"367 142 OFFCURVE",
"316 136 OFFCURVE",
"282 136 CURVE SMOOTH",
"221 136 OFFCURVE",
"142 157 OFFCURVE",
"95 194 CURVE",
"40 71 LINE",
"83 34 OFFCURVE",
"151 6 OFFCURVE",
"234 -4 CURVE",
"234 -85 LINE",
"366 -85 LINE",
"366 -4 LINE",
"482 15 OFFCURVE",
"548 91 OFFCURVE",
"548 192 CURVE SMOOTH",
"548 279 OFFCURVE",
"498 328 OFFCURVE",
"366 376 CURVE SMOOTH"
);
}
);
width = 588;
}
);
unicode = 0024;
},
{
glyphname = percent;
layers = (
{
hints = (
{
place = "{29, 102}";
type = Stem;
},
{
place = "{260, 101}";
type = Stem;
},
{
place = "{511, 105}";
type = Stem;
},
{
place = "{742, 105}";
type = Stem;
},
{
horizontal = 1;
place = "{-17, 98}";
type = Stem;
},
{
horizontal = 1;
place = "{216, 98}";
type = Stem;
},
{
horizontal = 1;
place = "{321, 90}";
type = Stem;
},
{
horizontal = 1;
place = "{552, 90}";
type = Stem;
}
);
layerId = "49A649E9-A574-4B20-B218-33A3EC71A7EA";
paths = (
{
closed = 1;
nodes = (
"389 -61 LINE",
"633 630 LINE",
"486 685 LINE",
"242 -6 LINE"
);
},
{
closed = 1;
nodes = (
"29 378 OFFCURVE",
"94 321 OFFCURVE",
"199 321 CURVE SMOOTH",
"304 321 OFFCURVE",
"361 378 OFFCURVE",
"361 479 CURVE SMOOTH",
"361 580 OFFCURVE",
"303 642 OFFCURVE",
"196 642 CURVE SMOOTH",
"88 642 OFFCURVE",
"29 579 OFFCURVE",
"29 481 CURVE SMOOTH"
);
},
{
closed = 1;
nodes = (
"161 411 OFFCURVE",
"131 437 OFFCURVE",
"131 483 CURVE SMOOTH",
"131 524 OFFCURVE",
"157 552 OFFCURVE",
"196 552 CURVE SMOOTH",
"234 552 OFFCURVE",
"260 527 OFFCURVE",
"260 481 CURVE SMOOTH",
"260 436 OFFCURVE",
"236 411 OFFCURVE",
"199 411 CURVE SMOOTH"
);
},
{
closed = 1;
nodes = (
"511 41 OFFCURVE",
"579 -17 OFFCURVE",
"683 -17 CURVE SMOOTH",
"787 -17 OFFCURVE",
"847 41 OFFCURVE",
"847 146 CURVE SMOOTH",
"847 251 OFFCURVE",
"786 314 OFFCURVE",
"680 314 CURVE SMOOTH",
"573 314 OFFCURVE",
"511 250 OFFCURVE",
"511 148 CURVE SMOOTH"
);
},
{
closed = 1;
nodes = (
"646 81 OFFCURVE",
"616 103 OFFCURVE",
"616 149 CURVE SMOOTH",
"616 190 OFFCURVE",
"642 216 OFFCURVE",
"680 216 CURVE SMOOTH",
"716 216 OFFCURVE",
"742 193 OFFCURVE",
"742 147 CURVE SMOOTH",
"742 103 OFFCURVE",
"717 81 OFFCURVE",
"682 81 CURVE SMOOTH"
);
}
);
width = 878;
}
);
unicode = 0025;
},
{
glyphname = ampersand;
layers = (
{
hints = (
{
place = "{40, 169}";
type = Stem;
},
{
place = "{104, 155}";
type = Stem;
},
{
place = "{487, 142}";
type = Stem;
},
{
horizontal = 1;
place = "{-6, 136}";
type = Stem;
},
{
horizontal = 1;
place = "{527, 116}";
type = Stem;
},
{
horizontal = 1;
place = "{560, 120}";
type = Stem;
}
);
layerId = "49A649E9-A574-4B20-B218-33A3EC71A7EA";
paths = (
{
closed = 1;
nodes = (
"336 409 LINE SMOOTH",
"278 450 OFFCURVE",
"259 480 OFFCURVE",
"259 509 CURVE SMOOTH",
"259 539 OFFCURVE",
"279 560 OFFCURVE",
"325 560 CURVE SMOOTH",
"383 560 OFFCURVE",
"437 527 OFFCURVE",
"499 527 CURVE SMOOTH",
"532 527 OFFCURVE",
"566 536 OFFCURVE",
"588 555 CURVE",
"558 654 LINE",
"541 646 OFFCURVE",
"526 643 OFFCURVE",
"507 643 CURVE SMOOTH",
"442 643 OFFCURVE",
"386 680 OFFCURVE",
"298 680 CURVE SMOOTH",
"172 680 OFFCURVE",
"104 604 OFFCURVE",
"104 520 CURVE SMOOTH",
"104 473 OFFCURVE",
"125 430 OFFCURVE",
"163 393 CURVE",
"99 368 OFFCURVE",
"40 315 OFFCURVE",
"40 219 CURVE SMOOTH",
"40 90 OFFCURVE",
"149 -6 OFFCURVE",
"304 -6 CURVE SMOOTH",
"411 -6 OFFCURVE",
"491 39 OFFCURVE",
"531 93 CURVE",
"646 10 LINE",
"728 123 LINE",
"597 218 LINE",
"619 272 OFFCURVE",
"629 346 OFFCURVE",
"629 407 CURVE SMOOTH",
"629 415 OFFCURVE",
"629 439 OFFCURVE",
"628 447 CURVE",
"487 447 LINE",
"487 400 OFFCURVE",
"482 347 OFFCURVE",
"472 314 CURVE"
);
},
{
closed = 1;
nodes = (
"412 181 LINE",
"398 155 OFFCURVE",
"363 130 OFFCURVE",
"315 130 CURVE SMOOTH",
"259 130 OFFCURVE",
"209 163 OFFCURVE",
"209 216 CURVE SMOOTH",
"209 251 OFFCURVE",
"231 281 OFFCURVE",
"254 291 CURVE"
);
}
);
width = 688;
}
);
unicode = 0026;
},
{
glyphname = quotesingle;
layers = (
{
hints = (
{
horizontal = 1;
place = "{660, -20}";
target = down;
type = TopGhost;
},
{
horizontal = 1;
place = "{404, 21}";
target = up;
type = BottomGhost;
}
);
layerId = "49A649E9-A574-4B20-B218-33A3EC71A7EA";
paths = (
{
closed = 1;
nodes = (
"50 404 LINE",
"167 404 LINE",
"189 660 LINE",
"30 660 LINE"
);
}
);
width = 219;
}
);
leftKerningGroup = uni02BC_2nd;
rightKerningGroup = uni02BB1_1st;
unicode = 0027;
},
{
glyphname = parenleft;
layers = (
{
hints = (
{
place = "{30, 162}";
type = Stem;
}
);
layerId = "49A649E9-A574-4B20-B218-33A3EC71A7EA";
paths = (
{
closed = 1;
nodes = (
"298 -49 LINE",
"224 48 OFFCURVE",
"192 151 OFFCURVE",
"192 306 CURVE SMOOTH",
"192 461 OFFCURVE",
"224 564 OFFCURVE",
"298 661 CURVE",
"204 745 LINE",
"77 657 OFFCURVE",
"30 448 OFFCURVE",
"30 306 CURVE SMOOTH",
"30 164 OFFCURVE",
"77 -45 OFFCURVE",
"204 -133 CURVE"
);
}
);
width = 318;
}
);
unicode = 0028;
},
{
glyphname = parenright;
layers = (
{
hints = (
{
place = "{126, 162}";
type = Stem;
}
);
layerId = "49A649E9-A574-4B20-B218-33A3EC71A7EA";
paths = (
{
closed = 1;
nodes = (
"114 -173 LINE",
"238 -87 OFFCURVE",
"288 119 OFFCURVE",
"288 266 CURVE SMOOTH",
"288 408 OFFCURVE",
"241 617 OFFCURVE",
"114 705 CURVE",
"20 621 LINE",
"94 524 OFFCURVE",
"126 421 OFFCURVE",
"126 266 CURVE SMOOTH",
"126 111 OFFCURVE",
"94 8 OFFCURVE",
"20 -89 CURVE"
);
}
);
width = 318;
}
);
unicode = 0029;
},
{
glyphname = asterisk;
layers = (
{
hints = (
{
horizontal = 1;
place = "{660, -20}";
target = down;
type = TopGhost;
}
);
layerId = "49A649E9-A574-4B20-B218-33A3EC71A7EA";
paths = (
{
closed = 1;
nodes = (
"10 483 LINE",
"108 461 LINE",
"44 377 LINE",
"153 310 LINE",
"203 414 LINE",
"252 310 LINE",
"361 377 LINE",
"295 461 LINE",
"392 483 LINE",
"348 604 LINE",
"251 556 LINE",
"265 660 LINE",
"136 660 LINE",
"149 557 LINE",
"54 604 LINE"
);
}
);
width = 402;
}
);
unicode = 002A;
},
{
glyphname = plus;
layers = (
{
hints = (
{
horizontal = 1;
place = "{222, 134}";
type = Stem;
},
{
horizontal = 1;
place = "{50, 21}";
target = up;
type = BottomGhost;
},
{
horizontal = 1;
place = "{524, -20}";
target = down;
type = TopGhost;
}
);
layerId = "49A649E9-A574-4B20-B218-33A3EC71A7EA";
paths = (
{
closed = 1;
nodes = (
"197 50 LINE",
"351 50 LINE",
"351 222 LINE",
"509 222 LINE",
"509 356 LINE",
"351 356 LINE",
"351 524 LINE",
"197 524 LINE",
"197 356 LINE",
"30 356 LINE",
"30 222 LINE",
"197 222 LINE"
);
}
);
width = 540;
}
);
unicode = 002B;
},
{
glyphname = comma;
layers = (
{
hints = (
{
place = "{-10, 207}";
type = Stem;
},
{
horizontal = 1;
place = "{201, -20}";
target = down;
type = TopGhost;
}
);
layerId = "49A649E9-A574-4B20-B218-33A3EC71A7EA";
paths = (
{
closed = 1;
nodes = (
"101 -160 LINE",
"197 -103 OFFCURVE",
"237 -7 OFFCURVE",
"237 78 CURVE SMOOTH",
"237 151 OFFCURVE",
"207 201 OFFCURVE",
"132 201 CURVE SMOOTH",
"71 201 OFFCURVE",
"30 168 OFFCURVE",
"30 104 CURVE SMOOTH",
"30 52 OFFCURVE",
"57 23 OFFCURVE",
"94 11 CURVE",
"80 -25 OFFCURVE",
"51 -50 OFFCURVE",
"26 -71 CURVE SMOOTH",
"20 -76 LINE"
);
}
);
width = 257;
}
);
unicode = 002C;
},
{
glyphname = hyphen;
layers = (
{
hints = (
{
horizontal = 1;
place = "{213, 140}";
type = Stem;
}
);
layerId = "49A649E9-A574-4B20-B218-33A3EC71A7EA";
paths = (
{
closed = 1;
nodes = (
"30 213 LINE",
"346 213 LINE",
"346 353 LINE",
"30 353 LINE"
);
}
);
width = 376;
}
);
unicode = 002D;
},
{
glyphname = period;
layers = (
{
hints = (
{
place = "{30, 191}";
type = Stem;
},
{
horizontal = 1;
place = "{-11, 186}";
type = Stem;
}
);
layerId = "49A649E9-A574-4B20-B218-33A3EC71A7EA";
paths = (
{
closed = 1;
nodes = (
"182 -11 OFFCURVE",
"221 29 OFFCURVE",
"221 81 CURVE SMOOTH",
"221 134 OFFCURVE",
"182 175 OFFCURVE",
"125 175 CURVE SMOOTH",
"68 175 OFFCURVE",
"30 134 OFFCURVE",
"30 81 CURVE SMOOTH",
"30 29 OFFCURVE",
"68 -11 OFFCURVE",
"125 -11 CURVE SMOOTH"
);
}
);
width = 251;
}
);
unicode = 002E;
},
{
glyphname = slash;
layers = (
{
layerId = "49A649E9-A574-4B20-B218-33A3EC71A7EA";
paths = (
{
closed = 1;
nodes = (
"-10 -63 LINE",
"137 -105 LINE",
"354 688 LINE",
"208 727 LINE"
);
}
);
width = 344;
}
);
unicode = 002F;
},
{
glyphname = zero;
layers = (
{
hints = (
{
place = "{40, 171}";
type = Stem;
},
{
place = "{445, 171}";
type = Stem;
},
{
horizontal = 1;
place = "{-14, 132}";
type = Stem;
},
{
horizontal = 1;
place = "{509, 137}";
type = Stem;
}
);
layerId = "49A649E9-A574-4B20-B218-33A3EC71A7EA";
paths = (
{
closed = 1;
nodes = (
"514 -14 OFFCURVE",
"616 109 OFFCURVE",
"616 315 CURVE SMOOTH",
"616 521 OFFCURVE",
"514 646 OFFCURVE",
"328 646 CURVE SMOOTH",
"140 646 OFFCURVE",
"40 521 OFFCURVE",
"40 315 CURVE SMOOTH",
"40 109 OFFCURVE",
"140 -14 OFFCURVE",
"328 -14 CURVE SMOOTH"
);
},
{
closed = 1;
nodes = (
"246 118 OFFCURVE",
"211 198 OFFCURVE",
"211 315 CURVE SMOOTH",
"211 432 OFFCURVE",
"246 509 OFFCURVE",
"328 509 CURVE SMOOTH",
"410 509 OFFCURVE",
"445 432 OFFCURVE",
"445 315 CURVE SMOOTH",
"445 198 OFFCURVE",
"410 118 OFFCURVE",
"328 118 CURVE SMOOTH"
);
}
);
width = 656;
}
);
unicode = 0030;
},
{
glyphname = one;
layers = (
{
hints = (
{
place = "{183, 169}";
type = Stem;
},
{
horizontal = 1;
place = "{0, 21}";
target = up;
type = BottomGhost;
},
{
horizontal = 1;
place = "{635, -20}";
target = down;
type = TopGhost;
}
);
layerId = "49A649E9-A574-4B20-B218-33A3EC71A7EA";
paths = (
{
closed = 1;
nodes = (
"352 0 LINE",
"352 635 LINE",
"213 635 LINE",
"10 540 LINE",
"78 404 LINE",
"183 461 LINE",
"183 0 LINE"
);
}
);
width = 392;
}
);
unicode = 0031;
},
{
glyphname = two;
layers = (
{
guideLines = (
{
position = "{0, 645}";
showMeasurement = 1;
}
);
hints = (
{
place = "{304, 181}";
type = Stem;
},
{
horizontal = 1;
place = "{0, 129}";
type = Stem;
},
{
horizontal = 1;
place = "{506, 139}";
type = Stem;
}
);
layerId = "49A649E9-A574-4B20-B218-33A3EC71A7EA";
paths = (
{
closed = 1;
nodes = (
"32 0 LINE",
"490 0 LINE",
"490 129 LINE",
"275 129 LINE",
"275 133 LINE",
"378 221 LINE SMOOTH",
"458 289 OFFCURVE",
"485 355 OFFCURVE",
"485 425 CURVE SMOOTH",
"485 542 OFFCURVE",
"411 645 OFFCURVE",
"226 645 CURVE SMOOTH",
"156 645 OFFCURVE",
"77 630 OFFCURVE",
"20 594 CURVE",
"67 471 LINE",
"103 493 OFFCURVE",
"144 506 OFFCURVE",
"190 506 CURVE SMOOTH",
"263 506 OFFCURVE",
"304 474 OFFCURVE",
"304 407 CURVE SMOOTH",
"304 361 OFFCURVE",
"284 315 OFFCURVE",
"178 226 CURVE SMOOTH",
"32 103 LINE"
);
}
);
width = 540;
}
);
unicode = 0032;
},
{
glyphname = three;
layers = (
{
hints = (
{
place = "{354, 180}";
type = Stem;
},
{
place = "{339, 177}";
type = Stem;
},
{
horizontal = 1;
place = "{-15, 135}";
type = Stem;
},
{
horizontal = 1;
place = "{258, 124}";
type = Stem;
},
{
horizontal = 1;
place = "{506, 139}";
type = Stem;
}
);
layerId = "49A649E9-A574-4B20-B218-33A3EC71A7EA";
paths = (
{
closed = 1;
nodes = (
"20 54 LINE",
"80 5 OFFCURVE",
"168 -15 OFFCURVE",
"254 -15 CURVE SMOOTH",
"422 -15 OFFCURVE",
"534 61 OFFCURVE",
"534 180 CURVE SMOOTH",
"534 238 OFFCURVE",
"508 294 OFFCURVE",
"439 327 CURVE",
"486 349 OFFCURVE",
"516 406 OFFCURVE",
"516 466 CURVE SMOOTH",
"516 576 OFFCURVE",
"413 645 OFFCURVE",
"265 645 CURVE SMOOTH",
"185 645 OFFCURVE",
"100 625 OFFCURVE",
"49 594 CURVE",
"93 475 LINE",
"126 495 OFFCURVE",
"189 506 OFFCURVE",
"241 506 CURVE SMOOTH",
"305 506 OFFCURVE",
"339 489 OFFCURVE",
"339 447 CURVE SMOOTH",
"339 416 OFFCURVE",
"321 382 OFFCURVE",
"262 382 CURVE SMOOTH",
"128 382 LINE",
"128 258 LINE",
"262 258 LINE SMOOTH",
"326 258 OFFCURVE",
"354 229 OFFCURVE",
"354 190 CURVE SMOOTH",
"354 150 OFFCURVE",
"325 120 OFFCURVE",
"248 120 CURVE SMOOTH",
"189 120 OFFCURVE",
"117 138 OFFCURVE",
"82 165 CURVE"
);
}
);
width = 574;
}
);
unicode = 0033;
},
{
glyphname = four;
layers = (
{
hints = (
{
place = "{316, 160}";
type = Stem;
},
{
horizontal = 1;
place = "{109, 125}";
type = Stem;
},
{
horizontal = 1;
place = "{635, -20}";
target = down;
type = TopGhost;
},
{
horizontal = 1;
place = "{0, 21}";
target = up;
type = BottomGhost;
}
);
layerId = "49A649E9-A574-4B20-B218-33A3EC71A7EA";
paths = (
{
closed = 1;
nodes = (
"63 109 LINE",
"316 109 LINE",
"316 0 LINE",
"476 0 LINE",
"476 109 LINE",
"560 109 LINE",
"560 234 LINE",
"476 234 LINE",
"476 635 LINE",
"295 635 LINE",
"20 227 LINE"
);
},
{
closed = 1;
nodes = (
"179 234 LINE",
"312 444 LINE",
"316 444 LINE",
"316 234 LINE"
);
}
);
width = 590;
}
);
unicode = 0034;
},
{
glyphname = five;
layers = (
{
hints = (
{
place = "{74, 145}";
type = Stem;
},
{
place = "{367, 170}";
type = Stem;
},
{
horizontal = 1;
place = "{-15, 135}";
type = Stem;
},
{
horizontal = 1;
place = "{282, 132}";
type = Stem;
},
{
horizontal = 1;
place = "{510, 125}";
type = Stem;
}
);
layerId = "49A649E9-A574-4B20-B218-33A3EC71A7EA";
paths = (
{
closed = 1;
nodes = (
"40 64 LINE",
"80 24 OFFCURVE",
"159 -15 OFFCURVE",
"274 -15 CURVE SMOOTH",
"455 -15 OFFCURVE",
"537 82 OFFCURVE",
"537 211 CURVE SMOOTH",
"537 332 OFFCURVE",
"466 414 OFFCURVE",
"317 414 CURVE SMOOTH",
"277 414 OFFCURVE",
"244 408 OFFCURVE",
"219 401 CURVE",
"219 510 LINE",
"490 510 LINE",
"490 635 LINE",
"74 635 LINE",
"74 334 LINE",
"170 259 LINE",
"196 274 OFFCURVE",
"231 282 OFFCURVE",
"264 282 CURVE SMOOTH",
"329 282 OFFCURVE",
"367 252 OFFCURVE",
"367 200 CURVE SMOOTH",
"367 148 OFFCURVE",
"330 120 OFFCURVE",
"257 120 CURVE SMOOTH",
"193 120 OFFCURVE",
"149 141 OFFCURVE",
"112 176 CURVE"
);
}
);
width = 567;
}
);
unicode = 0035;
},
{
glyphname = six;
layers = (
{
hints = (
{
place = "{40, 169}";
type = Stem;
},
{
place = "{360, 170}";
type = Stem;
},
{
place = "{40, 177}";
type = Stem;
},
{
horizontal = 1;
place = "{-15, 135}";
type = Stem;
},
{
horizontal = 1;
place = "{275, 130}";
type = Stem;
},
{
horizontal = 1;
place = "{511, 135}";
type = Stem;
}
);
layerId = "49A649E9-A574-4B20-B218-33A3EC71A7EA";
paths = (
{
closed = 1;
nodes = (
"472 -15 OFFCURVE",
"530 81 OFFCURVE",
"530 201 CURVE SMOOTH",
"530 332 OFFCURVE",
"462 405 OFFCURVE",
"341 405 CURVE SMOOTH",
"283 405 OFFCURVE",
"236 388 OFFCURVE",
"209 368 CURVE",
"209 467 OFFCURVE",
"257 511 OFFCURVE",
"344 511 CURVE SMOOTH",
"392 511 OFFCURVE",
"430 498 OFFCURVE",
"466 482 CURVE",
"504 595 LINE",
"464 619 OFFCURVE",
"389 646 OFFCURVE",
"307 646 CURVE SMOOTH",
"135 646 OFFCURVE",
"40 527 OFFCURVE",
"40 303 CURVE SMOOTH",
"40 85 OFFCURVE",
"130 -15 OFFCURVE",
"303 -15 CURVE SMOOTH"
);
},
{
closed = 1;
nodes = (
"217 245 LINE",
"234 264 OFFCURVE",
"267 275 OFFCURVE",
"293 275 CURVE SMOOTH",
"336 275 OFFCURVE",
"360 246 OFFCURVE",
"360 198 CURVE SMOOTH",
"360 152 OFFCURVE",
"338 120 OFFCURVE",
"292 120 CURVE SMOOTH",
"251 120 OFFCURVE",
"217 145 OFFCURVE",
"217 210 CURVE SMOOTH"
);
}
);
width = 570;
}
);
unicode = 0036;
},
{
glyphname = seven;
layers = (
{
hints = (
{
horizontal = 1;
place = "{506, 129}";
type = Stem;
},
{
horizontal = 1;
place = "{0, 21}";
target = up;
type = BottomGhost;
}
);
layerId = "49A649E9-A574-4B20-B218-33A3EC71A7EA";
paths = (
{
closed = 1;
nodes = (
"83 0 LINE",
"254 0 LINE",
"472 501 LINE",
"472 635 LINE",
"20 635 LINE",
"20 506 LINE",
"316 506 LINE"
);
}
);
width = 502;
}
);
unicode = 0037;
},
{
glyphname = eight;
layers = (
{
hints = (
{
place = "{40, 173}";
type = Stem;
},
{
place = "{64, 169}";
type = Stem;
},
{
place = "{355, 169}";
type = Stem;
},
{
place = "{379, 173}";
type = Stem;
},
{
horizontal = 1;
place = "{-15, 130}";
type = Stem;
},
{
horizontal = 1;
place = "{518, 127}";
type = Stem;
}
);
layerId = "49A649E9-A574-4B20-B218-33A3EC71A7EA";
paths = (
{
closed = 1;
nodes = (
"40 65 OFFCURVE",
"124 -15 OFFCURVE",
"292 -15 CURVE SMOOTH",
"458 -15 OFFCURVE",
"552 64 OFFCURVE",
"552 179 CURVE SMOOTH",
"552 252 OFFCURVE",
"515 303 OFFCURVE",
"454 327 CURVE",
"497 353 OFFCURVE",
"524 397 OFFCURVE",
"524 459 CURVE SMOOTH",
"524 568 OFFCURVE",
"440 645 OFFCURVE",
"296 645 CURVE SMOOTH",
"152 645 OFFCURVE",
"64 569 OFFCURVE",
"64 461 CURVE SMOOTH",
"64 397 OFFCURVE",
"95 353 OFFCURVE",
"131 327 CURVE",
"78 301 OFFCURVE",
"40 253 OFFCURVE",
"40 177 CURVE SMOOTH"
);
},
{
closed = 1;
nodes = (
"259 394 OFFCURVE",
"233 420 OFFCURVE",
"233 459 CURVE SMOOTH",
"233 494 OFFCURVE",
"254 518 OFFCURVE",
"294 518 CURVE SMOOTH",
"334 518 OFFCURVE",
"355 494 OFFCURVE",
"355 458 CURVE SMOOTH",
"355 422 OFFCURVE",
"335 391 OFFCURVE",
"288 381 CURVE"
);
},
{
closed = 1;
nodes = (
"244 115 OFFCURVE",
"213 145 OFFCURVE",
"213 183 CURVE SMOOTH",
"213 223 OFFCURVE",
"246 254 OFFCURVE",
"304 267 CURVE",
"344 253 OFFCURVE",
"379 224 OFFCURVE",
"379 183 CURVE SMOOTH",
"379 145 OFFCURVE",
"349 115 OFFCURVE",
"296 115 CURVE SMOOTH"
);
}
);
width = 592;
}
);
unicode = 0038;
},
{
glyphname = nine;
layers = (
{
hints = (
{
place = "{40, 170}";
type = Stem;
},
{
place = "{358, 177}";
type = Stem;
},
{
place = "{366, 169}";
type = Stem;
},
{
horizontal = 1;
place = "{-16, 135}";
type = Stem;
},
{
horizontal = 1;
place = "{225, 130}";
type = Stem;
},
{
horizontal = 1;
place = "{510, 135}";
type = Stem;
}
);
layerId = "49A649E9-A574-4B20-B218-33A3EC71A7EA";
paths = (
{
closed = 1;
nodes = (
"64 42 LINE",
"104 14 OFFCURVE",
"163 -16 OFFCURVE",
"251 -16 CURVE SMOOTH",
"434 -16 OFFCURVE",
"535 113 OFFCURVE",
"535 335 CURVE SMOOTH",
"535 545 OFFCURVE",
"445 645 OFFCURVE",
"274 645 CURVE SMOOTH",
"108 645 OFFCURVE",
"40 550 OFFCURVE",
"40 428 CURVE SMOOTH",
"40 299 OFFCURVE",
"117 225 OFFCURVE",
"245 225 CURVE SMOOTH",
"302 225 OFFCURVE",
"343 240 OFFCURVE",
"366 262 CURVE",
"366 173 OFFCURVE",
"328 119 OFFCURVE",
"242 119 CURVE SMOOTH",
"192 119 OFFCURVE",
"155 137 OFFCURVE",
"126 158 CURVE"
);
},
{
closed = 1;
nodes = (
"358 385 LINE",
"341 366 OFFCURVE",
"318 355 OFFCURVE",
"288 355 CURVE SMOOTH",
"239 355 OFFCURVE",
"210 384 OFFCURVE",
"210 432 CURVE SMOOTH",
"210 478 OFFCURVE",
"237 510 OFFCURVE",
"283 510 CURVE SMOOTH",
"324 510 OFFCURVE",
"358 485 OFFCURVE",
"358 420 CURVE SMOOTH"
);
}
);
width = 575;
}
);
unicode = 0039;
},
{
glyphname = colon;
layers = (
{
hints = (
{
place = "{30, 192}";
type = Stem;
},
{
horizontal = 1;
place = "{-10, 188}";
type = Stem;
},
{
horizontal = 1;
place = "{331, 188}";
type = Stem;
}
);
layerId = "49A649E9-A574-4B20-B218-33A3EC71A7EA";
paths = (
{
closed = 1;
nodes = (
"184 331 OFFCURVE",
"222 372 OFFCURVE",
"222 425 CURVE SMOOTH",
"222 481 OFFCURVE",
"179 519 OFFCURVE",
"125 519 CURVE SMOOTH",
"68 519 OFFCURVE",
"30 478 OFFCURVE",
"30 425 CURVE SMOOTH",
"30 371 OFFCURVE",
"68 331 OFFCURVE",
"126 331 CURVE SMOOTH"
);
},
{
closed = 1;
nodes = (
"184 -10 OFFCURVE",
"222 31 OFFCURVE",
"222 84 CURVE SMOOTH",
"222 140 OFFCURVE",
"179 178 OFFCURVE",
"125 178 CURVE SMOOTH",
"68 178 OFFCURVE",
"30 137 OFFCURVE",
"30 84 CURVE SMOOTH",
"30 30 OFFCURVE",
"68 -10 OFFCURVE",
"126 -10 CURVE SMOOTH"
);
}
);
width = 252;
}
);
unicode = 003A;
},
{
glyphname = semicolon;
layers = (
{
hints = (
{
place = "{30, 201}";
type = Stem;
},
{
place = "{41, 192}";
type = Stem;
},
{
horizontal = 1;
place = "{199, 132}";
type = Stem;
},
{
horizontal = 1;
place = "{331, 188}";
type = Stem;
}
);
layerId = "49A649E9-A574-4B20-B218-33A3EC71A7EA";
paths = (
{
closed = 1;
nodes = (
"195 331 OFFCURVE",
"233 372 OFFCURVE",
"233 425 CURVE SMOOTH",
"233 481 OFFCURVE",
"190 519 OFFCURVE",
"135 519 CURVE SMOOTH",
"78 519 OFFCURVE",
"41 478 OFFCURVE",
"41 425 CURVE SMOOTH",
"41 371 OFFCURVE",
"78 331 OFFCURVE",
"136 331 CURVE SMOOTH"
);
},
{
closed = 1;
nodes = (
"87 -150 LINE",
"182 -92 OFFCURVE",
"231 -7 OFFCURVE",
"231 74 CURVE SMOOTH",
"231 140 OFFCURVE",
"197 199 OFFCURVE",
"126 199 CURVE SMOOTH",
"71 199 OFFCURVE",
"30 164 OFFCURVE",
"30 104 CURVE SMOOTH",
"30 56 OFFCURVE",
"57 28 OFFCURVE",
"94 15 CURVE",
"80 -21 OFFCURVE",
"51 -50 OFFCURVE",
"26 -71 CURVE",
"21 -76 LINE"
);
}
);
width = 261;
}
);
unicode = 003B;
},
{
glyphname = less;
layers = (
{
layerId = "49A649E9-A574-4B20-B218-33A3EC71A7EA";
paths = (
{
closed = 1;
nodes = (
"68 260 LINE",
"409 55 LINE",
"473 186 LINE",
"208 318 LINE",
"473 450 LINE",
"409 581 LINE",
"68 376 LINE"
);
}
);
width = 540;
}
);
unicode = 003C;
},
{
glyphname = equal;
layers = (
{
hints = (
{
horizontal = 1;
place = "{112, 130}";
type = Stem;
},
{
horizontal = 1;
place = "{348, 130}";
type = Stem;
}
);
layerId = "49A649E9-A574-4B20-B218-33A3EC71A7EA";
paths = (
{
closed = 1;
nodes = (
"30 348 LINE",
"509 348 LINE",
"509 478 LINE",
"30 478 LINE"
);
},
{
closed = 1;
nodes = (
"30 112 LINE",
"509 112 LINE",
"509 242 LINE",
"30 242 LINE"
);
}
);
width = 540;
}
);
unicode = 003D;
},
{
glyphname = greater;
layers = (
{
layerId = "49A649E9-A574-4B20-B218-33A3EC71A7EA";
paths = (
{
closed = 1;
nodes = (
"132 55 LINE",
"473 260 LINE",
"473 376 LINE",
"132 581 LINE",
"68 450 LINE",
"333 318 LINE",
"68 186 LINE"
);
}
);
width = 540;
}
);
unicode = 003E;
},
{
glyphname = question;
layers = (
{
hints = (
{
place = "{112, 191}";
type = Stem;
},
{
place = "{131, 141}";
type = Stem;
},
{
place = "{310, 170}";
type = Stem;
},
{
horizontal = 1;
place = "{-91, 186}";
type = Stem;
},
{
horizontal = 1;
place = "{514, 131}";
type = Stem;
}
);
layerId = "49A649E9-A574-4B20-B218-33A3EC71A7EA";
paths = (
{
closed = 1;
nodes = (
"131 152 LINE",
"272 152 LINE",
"272 191 LINE SMOOTH",
"272 220 OFFCURVE",
"285 244 OFFCURVE",
"312 265 CURVE SMOOTH",
"372 310 LINE SMOOTH",
"429 353 OFFCURVE",
"480 405 OFFCURVE",
"480 483 CURVE SMOOTH",
"480 581 OFFCURVE",
"401 645 OFFCURVE",
"262 645 CURVE SMOOTH",
"160 645 OFFCURVE",
"67 611 OFFCURVE",
"20 570 CURVE",
"71 464 LINE",
"123 497 OFFCURVE",
"182 514 OFFCURVE",
"227 514 CURVE SMOOTH",
"277 514 OFFCURVE",
"310 493 OFFCURVE",
"310 462 CURVE SMOOTH",
"310 439 OFFCURVE",
"292 417 OFFCURVE",
"260 396 CURVE SMOOTH",
"219 369 LINE SMOOTH",
"150 324 OFFCURVE",
"131 265 OFFCURVE",
"131 193 CURVE SMOOTH"
);
},
{
closed = 1;
nodes = (
"264 -91 OFFCURVE",
"303 -51 OFFCURVE",
"303 1 CURVE SMOOTH",
"303 54 OFFCURVE",
"264 95 OFFCURVE",
"207 95 CURVE SMOOTH",
"150 95 OFFCURVE",
"112 54 OFFCURVE",
"112 1 CURVE SMOOTH",
"112 -51 OFFCURVE",
"150 -91 OFFCURVE",
"207 -91 CURVE SMOOTH"
);
}
);
width = 510;
}
);
unicode = 003F;
},
{
glyphname = at;
layers = (
{
guideLines = (
{
angle = 90;
position = "{-4069, 0}";
},
{
position = "{0, 3006}";
}
);
hints = (
{
place = "{30, 161}";
type = Stem;
},
{
place = "{291, 170}";
type = Stem;
},
{
place = "{591, 160}";
type = Stem;
},
{
place = "{847, 160}";
type = Stem;
},
{
horizontal = 1;
place = "{-219, 131}";
type = Stem;
},
{
horizontal = 1;
place = "{-25, 129}";
type = Stem;
},
{
horizontal = 1;
place = "{0, 128}";
type = Stem;
},
{
horizontal = 1;
place = "{309, 130}";
type = Stem;
},
{
horizontal = 1;
place = "{533, 130}";
type = Stem;
}
);
layerId = "49A649E9-A574-4B20-B218-33A3EC71A7EA";
paths = (
{
closed = 1;
nodes = (
"751 261 LINE SMOOTH",
"751 372 OFFCURVE",
"649 439 OFFCURVE",
"522 439 CURVE SMOOTH",
"388 439 OFFCURVE",
"291 365 OFFCURVE",
"291 221 CURVE SMOOTH",
"291 74 OFFCURVE",
"393 0 OFFCURVE",
"523 0 CURVE SMOOTH",
"571 0 OFFCURVE",
"602 10 OFFCURVE",
"633 29 CURVE",
"672 -15 OFFCURVE",
"733 -25 OFFCURVE",
"778 -25 CURVE SMOOTH",
"936 -25 OFFCURVE",
"1007 98 OFFCURVE",
"1007 253 CURVE SMOOTH",
"1007 512 OFFCURVE",
"808 663 OFFCURVE",
"519 663 CURVE SMOOTH",
"226 663 OFFCURVE",
"30 508 OFFCURVE",
"30 220 CURVE SMOOTH",
"30 -89 OFFCURVE",
"255 -219 OFFCURVE",
"513 -219 CURVE SMOOTH",
"568 -219 OFFCURVE",
"623 -213 OFFCURVE",
"658 -196 CURVE",
"638 -72 LINE",
"617 -79 OFFCURVE",
"574 -88 OFFCURVE",
"517 -88 CURVE SMOOTH",
"289 -88 OFFCURVE",
"191 54 OFFCURVE",
"191 230 CURVE SMOOTH",
"191 429 OFFCURVE",
"317 533 OFFCURVE",
"518 533 CURVE SMOOTH",
"718 533 OFFCURVE",
"847 430 OFFCURVE",
"847 242 CURVE SMOOTH",
"847 187 OFFCURVE",
"836 104 OFFCURVE",
"782 104 CURVE SMOOTH",
"769 104 OFFCURVE",
"751 109 OFFCURVE",
"751 128 CURVE SMOOTH"
);
},
{
closed = 1;
nodes = (
"480 128 OFFCURVE",
"461 167 OFFCURVE",
"461 218 CURVE SMOOTH",
"461 278 OFFCURVE",
"488 309 OFFCURVE",
"526 309 CURVE SMOOTH",
"564 309 OFFCURVE",
"591 278 OFFCURVE",
"591 239 CURVE SMOOTH",
"591 195 LINE SMOOTH",
"591 141 OFFCURVE",
"556 128 OFFCURVE",
"528 128 CURVE SMOOTH"
);
}
);
width = 1037;
}
);
unicode = 0040;
},
{
glyphname = A;
layers = (
{
hints = (
{
horizontal = 1;
place = "{126, 140}";
type = Stem;
},
{
horizontal = 1;
place = "{637, -20}";
target = down;
type = TopGhost;
},
{
horizontal = 1;
place = "{0, 21}";
target = up;
type = BottomGhost;
}
);
layerId = "49A649E9-A574-4B20-B218-33A3EC71A7EA";
paths = (
{
closed = 1;
nodes = (
"40 0 LINE",
"227 0 LINE",
"265 126 LINE",
"445 126 LINE",
"483 0 LINE",
"666 0 LINE",
"463 637 LINE",
"260 637 LINE"
);
},
{
closed = 1;
nodes = (
"303 266 LINE",
"360 449 LINE",
"364 449 LINE",
"417 266 LINE"
);
}
);
width = 706;
}
);
leftKerningGroup = A_2nd;
rightKerningGroup = A1_1st;
unicode = 0041;
},
{
glyphname = B;
layers = (
{
guideLines = (
{
position = "{0, 0}";
}
);
hints = (
{
place = "{50, 168}";
type = Stem;
},
{
place = "{370, 172}";
type = Stem;
},
{
place = "{386, 176}";
type = Stem;
},
{
horizontal = 1;
place = "{0, 128}";
type = Stem;
},
{
horizontal = 1;
place = "{254, 128}";
type = Stem;
},
{
horizontal = 1;
place = "{512, 128}";
type = Stem;
}
);
layerId = "49A649E9-A574-4B20-B218-33A3EC71A7EA";
paths = (
{
closed = 1;
nodes = (
"50 0 LINE",
"304 0 LINE SMOOTH",
"494 0 OFFCURVE",
"562 65 OFFCURVE",
"562 171 CURVE SMOOTH",
"562 258 OFFCURVE",
"517 310 OFFCURVE",
"448 328 CURVE",
"507 348 OFFCURVE",
"542 405 OFFCURVE",
"542 469 CURVE SMOOTH",
"542 572 OFFCURVE",
"453 640 OFFCURVE",
"277 640 CURVE SMOOTH",
"200 640 OFFCURVE",
"112 627 OFFCURVE",
"50 601 CURVE"
);
},
{
closed = 1;
nodes = (
"218 382 LINE",
"218 505 LINE",
"236 510 OFFCURVE",
"260 512 OFFCURVE",
"278 512 CURVE SMOOTH",
"349 512 OFFCURVE",
"370 479 OFFCURVE",
"370 447 CURVE SMOOTH",
"370 411 OFFCURVE",
"343 382 OFFCURVE",
"303 382 CURVE SMOOTH"
);
},
{
closed = 1;
nodes = (
"218 128 LINE",
"218 254 LINE",
"316 254 LINE SMOOTH",
"364 254 OFFCURVE",
"386 228 OFFCURVE",
"386 192 CURVE SMOOTH",
"386 152 OFFCURVE",
"359 128 OFFCURVE",
"315 128 CURVE SMOOTH"
);
}
);
width = 602;
}
);
leftKerningGroup = B_2nd;
unicode = 0042;
},
{
glyphname = C;
layers = (
{
hints = (
{
place = "{40, 180}";
type = Stem;
},
{
horizontal = 1;
place = "{-4, 145}";
type = Stem;
},
{
horizontal = 1;
place = "{495, 145}";
type = Stem;
}
);
layerId = "49A649E9-A574-4B20-B218-33A3EC71A7EA";
paths = (
{
closed = 1;
nodes = (
"541 186 LINE",
"504 160 OFFCURVE",
"451 141 OFFCURVE",
"394 141 CURVE SMOOTH",
"291 141 OFFCURVE",
"220 203 OFFCURVE",
"220 320 CURVE SMOOTH",
"220 427 OFFCURVE",
"279 495 OFFCURVE",
"383 495 CURVE SMOOTH",
"427 495 OFFCURVE",
"480 483 OFFCURVE",
"512 463 CURVE",
"557 589 LINE",
"496 625 OFFCURVE",
"422 640 OFFCURVE",
"350 640 CURVE SMOOTH",
"144 640 OFFCURVE",
"40 517 OFFCURVE",
"40 323 CURVE SMOOTH",
"40 106 OFFCURVE",
"170 -4 OFFCURVE",
"360 -4 CURVE SMOOTH",
"475 -4 OFFCURVE",
"544 36 OFFCURVE",
"593 74 CURVE"
);
}
);
width = 633;
}
);
leftKerningGroup = C_2nd;
rightKerningGroup = C1_1st;
unicode = 0043;
},
{
glyphname = D;
layers = (
{
hints = (
{
place = "{50, 172}";
type = Stem;
},
{
place = "{444, 182}";
type = Stem;
},
{
horizontal = 1;
place = "{0, 130}";
type = Stem;
},
{
horizontal = 1;
place = "{502, 138}";
type = Stem;
}
);
layerId = "49A649E9-A574-4B20-B218-33A3EC71A7EA";
paths = (
{
closed = 1;
nodes = (
"50 0 LINE",
"290 0 LINE SMOOTH",
"488 0 OFFCURVE",
"626 93 OFFCURVE",
"626 317 CURVE SMOOTH",
"626 527 OFFCURVE",
"505 640 OFFCURVE",
"277 640 CURVE SMOOTH",
"200 640 OFFCURVE",
"112 627 OFFCURVE",
"50 601 CURVE"
);
},
{
closed = 1;
nodes = (
"222 130 LINE",
"222 495 LINE",
"240 500 OFFCURVE",
"261 502 OFFCURVE",
"280 502 CURVE SMOOTH",
"386 502 OFFCURVE",
"444 439 OFFCURVE",
"444 317 CURVE SMOOTH",
"444 190 OFFCURVE",
"382 130 OFFCURVE",
"281 130 CURVE SMOOTH"
);
}
);
width = 666;
}
);
leftKerningGroup = B_2nd;
rightKerningGroup = D_1st;
unicode = 0044;
},
{
glyphname = E;
layers = (
{
hints = (
{
place = "{50, 170}";
type = Stem;
},
{
horizontal = 1;
place = "{0, 130}";
type = Stem;
},
{
horizontal = 1;
place = "{258, 130}";
type = Stem;
},
{
horizontal = 1;
place = "{506, 130}";
type = Stem;
}
);
layerId = "49A649E9-A574-4B20-B218-33A3EC71A7EA";
paths = (
{
closed = 1;
nodes = (
"50 0 LINE",
"514 0 LINE",
"514 130 LINE",
"220 130 LINE",
"220 258 LINE",
"469 258 LINE",
"469 388 LINE",
"220 388 LINE",
"220 506 LINE",
"508 506 LINE",
"508 636 LINE",
"50 636 LINE"
);
}
);
width = 554;
}
);
leftKerningGroup = B_2nd;
rightKerningGroup = E_1st;
unicode = 0045;
},
{
glyphname = F;
layers = (
{
hints = (
{
place = "{50, 170}";
type = Stem;
},
{
horizontal = 1;
place = "{221, 129}";
type = Stem;
},
{
horizontal = 1;
place = "{507, 129}";
type = Stem;
},
{
horizontal = 1;
place = "{0, 21}";
target = up;
type = BottomGhost;
}
);
layerId = "49A649E9-A574-4B20-B218-33A3EC71A7EA";
paths = (
{
closed = 1;
nodes = (
"50 0 LINE",
"220 0 LINE",
"220 221 LINE",
"467 221 LINE",
"467 350 LINE",
"220 350 LINE",
"220 507 LINE",
"497 507 LINE",
"497 636 LINE",
"50 636 LINE"
);
}
);
width = 537;
}
);
leftKerningGroup = B_2nd;
unicode = 0046;
},
{
glyphname = G;
layers = (
{
hints = (
{
place = "{40, 180}";
type = Stem;
},
{
place = "{455, 170}";
type = Stem;
},
{
horizontal = 1;
place = "{-7, 146}";
type = Stem;
},
{
horizontal = 1;
place = "{246, 128}";
type = Stem;
},
{
horizontal = 1;
place = "{495, 144}";
type = Stem;
}
);
layerId = "49A649E9-A574-4B20-B218-33A3EC71A7EA";
paths = (
{
closed = 1;
nodes = (
"347 246 LINE",
"455 246 LINE",
"455 150 LINE",
"444 145 OFFCURVE",
"420 139 OFFCURVE",
"390 139 CURVE SMOOTH",
"301 139 OFFCURVE",
"220 193 OFFCURVE",
"220 318 CURVE SMOOTH",
"220 425 OFFCURVE",
"280 495 OFFCURVE",
"387 495 CURVE SMOOTH",
"446 495 OFFCURVE",
"509 474 OFFCURVE",
"551 448 CURVE",
"602 564 LINE",
"549 605 OFFCURVE",
"468 639 OFFCURVE",
"358 639 CURVE SMOOTH",
"148 639 OFFCURVE",
"40 515 OFFCURVE",
"40 320 CURVE SMOOTH",
"40 103 OFFCURVE",
"175 -7 OFFCURVE",
"364 -7 CURVE SMOOTH",
"478 -7 OFFCURVE",
"576 33 OFFCURVE",
"625 92 CURVE",
"625 374 LINE",
"347 374 LINE"
);
}
);
width = 675;
}
);
leftKerningGroup = G_2nd;
rightKerningGroup = G1_1st;
unicode = 0047;
},
{
glyphname = H;
layers = (
{
hints = (
{
place = "{50, 170}";
type = Stem;
},
{
place = "{417, 170}";
type = Stem;
},
{
horizontal = 1;
place = "{248, 135}";
type = Stem;
},
{
horizontal = 1;
place = "{0, 21}";
target = up;
type = BottomGhost;
},
{
horizontal = 1;
place = "{636, -20}";
target = down;
type = TopGhost;
}
);
layerId = "49A649E9-A574-4B20-B218-33A3EC71A7EA";
paths = (
{
closed = 1;
nodes = (
"50 0 LINE",
"220 0 LINE",
"220 248 LINE",
"417 248 LINE",
"417 0 LINE",
"587 0 LINE",
"587 636 LINE",
"417 636 LINE",
"417 383 LINE",
"220 383 LINE",
"220 636 LINE",
"50 636 LINE"
);
}
);
width = 637;
}
);
leftKerningGroup = B_2nd;
rightKerningGroup = H_1st;
unicode = 0048;
},
{
glyphname = I;
layers = (
{
anchors = (
{
name = top;
position = "{148, 637}";
}
);
hints = (
{
place = "{50, 170}";
type = Stem;
},
{
horizontal = 1;
place = "{0, 21}";
target = up;
type = BottomGhost;
},
{
horizontal = 1;
place = "{636, -20}";
target = down;
type = TopGhost;
}
);
layerId = "49A649E9-A574-4B20-B218-33A3EC71A7EA";
paths = (
{
closed = 1;
nodes = (
"50 0 LINE",
"220 0 LINE",
"220 636 LINE",
"50 636 LINE"
);
}
);
width = 270;
}
);
leftKerningGroup = B_2nd;
rightKerningGroup = H_1st;
unicode = 0049;
},
{
glyphname = J;
layers = (
{
hints = (
{
place = "{237, 170}";
type = Stem;
},
{
horizontal = 1;
place = "{-11, 146}";
type = Stem;
},
{
horizontal = 1;
place = "{636, -20}";
target = down;
type = TopGhost;
}
);
layerId = "49A649E9-A574-4B20-B218-33A3EC71A7EA";
paths = (
{
closed = 1;
nodes = (
"40 43 LINE",
"78 9 OFFCURVE",
"141 -11 OFFCURVE",
"207 -11 CURVE SMOOTH",
"340 -11 OFFCURVE",
"407 71 OFFCURVE",
"407 192 CURVE SMOOTH",
"407 636 LINE",
"237 636 LINE",
"237 222 LINE SMOOTH",
"237 171 OFFCURVE",
"221 135 OFFCURVE",
"169 135 CURVE SMOOTH",
"139 135 OFFCURVE",
"108 147 OFFCURVE",
"87 166 CURVE"
);
}
);
width = 457;
}
);
leftKerningGroup = J;
rightKerningGroup = J_1st;
unicode = 004A;
},
{
glyphname = K;
layers = (
{
hints = (
{
place = "{50, 170}";
type = Stem;
},
{
horizontal = 1;
place = "{0, 21}";
target = up;
type = BottomGhost;
},
{
horizontal = 1;
place = "{636, -20}";
target = down;
type = TopGhost;
}
);
layerId = "49A649E9-A574-4B20-B218-33A3EC71A7EA";
paths = (
{
closed = 1;
nodes = (
"50 0 LINE",
"220 0 LINE",
"220 238 LINE",
"446 -13 LINE",
"564 101 LINE",
"357 309 LINE",
"558 539 LINE",
"435 642 LINE",
"220 383 LINE",
"220 636 LINE",
"50 636 LINE"
);
}
);
width = 594;
}
);
leftKerningGroup = K_2nd;
unicode = 004B;
},
{
glyphname = L;
layers = (
{
hints = (
{
place = "{50, 170}";
type = Stem;
},
{
horizontal = 1;
place = "{0, 140}";
type = Stem;
},
{
horizontal = 1;
place = "{636, -20}";
target = down;
type = TopGhost;
}
);
layerId = "49A649E9-A574-4B20-B218-33A3EC71A7EA";
paths = (
{
closed = 1;
nodes = (
"50 0 LINE",
"463 0 LINE",
"463 140 LINE",
"220 140 LINE",
"220 636 LINE",
"50 636 LINE"
);
}
);
width = 493;
}
);
leftKerningGroup = B_2nd;
rightKerningGroup = L;
unicode = 004C;
},
{
glyphname = M;
layers = (
{
hints = (
{
place = "{634, 165}";
type = Stem;
},
{
horizontal = 1;
place = "{636, -20}";
target = down;
type = TopGhost;
},
{
horizontal = 1;
place = "{0, 21}";
target = up;
type = BottomGhost;
}
);
layerId = "49A649E9-A574-4B20-B218-33A3EC71A7EA";
paths = (
{
closed = 1;
nodes = (
"40 0 LINE",
"220 0 LINE",
"243 385 LINE",
"246 402 LINE",
"249 402 LINE",
"253 385 LINE",
"374 60 LINE",
"494 60 LINE",
"614 385 LINE",
"619 402 LINE",
"621 402 LINE",
"624 385 LINE",
"644 0 LINE",
"824 0 LINE",
"774 636 LINE",
"574 636 LINE",
"436 281 LINE",
"434 269 LINE",
"431 281 LINE",
"300 636 LINE",
"100 636 LINE"
);
}
);
width = 864;
}
);
unicode = 004D;
},
{
glyphname = N;
layers = (
{
hints = (
{
place = "{50, 170}";
type = Stem;
},
{
place = "{450, 170}";
type = Stem;
},
{
horizontal = 1;
place = "{0, 21}";
target = up;
type = BottomGhost;
},
{
horizontal = 1;
place = "{636, -20}";
target = down;
type = TopGhost;
}
);
layerId = "49A649E9-A574-4B20-B218-33A3EC71A7EA";
paths = (
{
closed = 1;
nodes = (
"50 0 LINE",
"220 0 LINE",
"220 377 LINE",
"426 0 LINE",
"620 0 LINE",
"620 636 LINE",
"450 636 LINE",
"450 244 LINE",
"239 636 LINE",
"50 636 LINE"
);
}
);
width = 670;
}
);
leftKerningGroup = B_2nd;
rightKerningGroup = H_1st;
unicode = 004E;
},
{
glyphname = O;
layers = (
{
hints = (
{
place = "{40, 176}";
type = Stem;
},
{
place = "{502, 176}";
type = Stem;
},
{
horizontal = 1;
place = "{-4, 144}";
type = Stem;
},
{
horizontal = 1;
place = "{496, 144}";
type = Stem;
}
);
layerId = "49A649E9-A574-4B20-B218-33A3EC71A7EA";
paths = (
{
closed = 1;
nodes = (
"40 117 OFFCURVE",
"163 -4 OFFCURVE",
"363 -4 CURVE SMOOTH",
"563 -4 OFFCURVE",
"678 117 OFFCURVE",
"678 317 CURVE SMOOTH",
"678 517 OFFCURVE",
"563 640 OFFCURVE",
"363 640 CURVE SMOOTH",
"163 640 OFFCURVE",
"40 517 OFFCURVE",
"40 317 CURVE SMOOTH"
);
},
{
closed = 1;
nodes = (
"272 140 OFFCURVE",
"216 200 OFFCURVE",
"216 316 CURVE SMOOTH",
"216 432 OFFCURVE",
"272 496 OFFCURVE",
"363 496 CURVE SMOOTH",
"453 496 OFFCURVE",
"502 432 OFFCURVE",
"502 316 CURVE SMOOTH",
"502 200 OFFCURVE",
"453 140 OFFCURVE",
"363 140 CURVE SMOOTH"
);
}
);
width = 718;
}
);
leftKerningGroup = O_2nd;
rightKerningGroup = O1_1st;
unicode = 004F;
},
{
glyphname = P;
layers = (
{
hints = (
{
place = "{50, 170}";
type = Stem;
},
{
place = "{407, 170}";
type = Stem;
},
{
horizontal = 1;
place = "{163, 137}";
type = Stem;
},
{
horizontal = 1;
place = "{508, 132}";
type = Stem;
},
{
horizontal = 1;
place = "{0, 21}";
target = up;
type = BottomGhost;
}
);
layerId = "49A649E9-A574-4B20-B218-33A3EC71A7EA";
paths = (
{
closed = 1;
nodes = (
"50 0 LINE",
"220 0 LINE",
"220 188 LINE",
"246 173 OFFCURVE",
"281 163 OFFCURVE",
"329 163 CURVE SMOOTH",
"465 163 OFFCURVE",
"577 241 OFFCURVE",
"577 402 CURVE SMOOTH",
"577 555 OFFCURVE",
"474 640 OFFCURVE",
"309 640 CURVE SMOOTH",
"200 640 OFFCURVE",
"98 603 OFFCURVE",
"50 565 CURVE"
);
},
{
closed = 1;
nodes = (
"220 490 LINE",
"242 502 OFFCURVE",
"269 508 OFFCURVE",
"299 508 CURVE SMOOTH",
"374 508 OFFCURVE",
"407 469 OFFCURVE",
"407 404 CURVE SMOOTH",
"407 334 OFFCURVE",
"369 300 OFFCURVE",
"315 300 CURVE SMOOTH",
"266 300 OFFCURVE",
"220 327 OFFCURVE",
"220 390 CURVE SMOOTH"
);
}
);
width = 617;
}
);
unicode = 0050;
},
{
glyphname = Q;
layers = (
{
hints = (
{
place = "{40, 176}";
type = Stem;
},
{
place = "{502, 176}";
type = Stem;
},
{
horizontal = 1;
place = "{-4, 144}";
type = Stem;
},
{
horizontal = 1;
place = "{496, 144}";
type = Stem;
}
);
layerId = "49A649E9-A574-4B20-B218-33A3EC71A7EA";
paths = (
{
closed = 1;
nodes = (
"578 67 LINE",
"639 117 OFFCURVE",
"678 199 OFFCURVE",
"678 316 CURVE SMOOTH",
"678 517 OFFCURVE",
"563 640 OFFCURVE",
"363 640 CURVE SMOOTH",
"163 640 OFFCURVE",
"40 517 OFFCURVE",
"40 316 CURVE SMOOTH",
"40 104 OFFCURVE",
"177 -4 OFFCURVE",
"359 -4 CURVE SMOOTH",
"371 -4 OFFCURVE",
"381 -4 OFFCURVE",
"392 -3 CURVE",
"645 -164 LINE",
"739 -10 LINE"
);
},
{
closed = 1;
nodes = (
"272 140 OFFCURVE",
"216 200 OFFCURVE",
"216 316 CURVE SMOOTH",
"216 432 OFFCURVE",
"272 496 OFFCURVE",
"363 496 CURVE SMOOTH",
"453 496 OFFCURVE",
"502 432 OFFCURVE",
"502 316 CURVE SMOOTH",
"502 200 OFFCURVE",
"453 140 OFFCURVE",
"363 140 CURVE SMOOTH"
);
}
);
width = 769;
}
);
unicode = 0051;
},
{
glyphname = R;
layers = (
{
hints = (
{
place = "{50, 170}";
type = Stem;
},
{
place = "{407, 170}";
type = Stem;
},
{
horizontal = 1;
place = "{508, 132}";
type = Stem;
},
{
horizontal = 1;
place = "{0, 21}";
target = up;
type = BottomGhost;
}
);
layerId = "49A649E9-A574-4B20-B218-33A3EC71A7EA";
paths = (
{
closed = 1;
nodes = (
"50 0 LINE",
"220 0 LINE",
"220 211 LINE",
"481 -49 LINE",
"596 75 LINE",
"431 208 LINE",
"520 241 OFFCURVE",
"577 313 OFFCURVE",
"577 418 CURVE SMOOTH",
"577 557 OFFCURVE",
"476 640 OFFCURVE",
"307 640 CURVE SMOOTH",
"202 640 OFFCURVE",
"98 608 OFFCURVE",
"50 576 CURVE"
);
},
{
closed = 1;
nodes = (
"220 488 LINE",
"240 500 OFFCURVE",
"271 508 OFFCURVE",
"303 508 CURVE SMOOTH",
"373 508 OFFCURVE",
"407 469 OFFCURVE",
"407 411 CURVE SMOOTH",
"407 353 OFFCURVE",
"373 312 OFFCURVE",
"315 312 CURVE SMOOTH",
"262 312 OFFCURVE",
"220 347 OFFCURVE",
"220 410 CURVE SMOOTH"
);
}
);
width = 626;
}
);
leftKerningGroup = 2nd;
rightKerningGroup = R1_1st;
unicode = 0052;
},
{
glyphname = S;
layers = (
{
hints = (
{
place = "{49, 181}";
type = Stem;
},
{
place = "{367, 181}";
type = Stem;
},
{
horizontal = 1;
place = "{-9, 145}";
type = Stem;
},
{
horizontal = 1;
place = "{495, 145}";
type = Stem;
}
);
layerId = "49A649E9-A574-4B20-B218-33A3EC71A7EA";
paths = (
{
closed = 1;
nodes = (
"40 71 LINE",
"95 24 OFFCURVE",
"194 -9 OFFCURVE",
"296 -9 CURVE SMOOTH",
"460 -9 OFFCURVE",
"548 75 OFFCURVE",
"548 191 CURVE SMOOTH",
"548 278 OFFCURVE",
"498 327 OFFCURVE",
"364 376 CURVE SMOOTH",
"291 403 LINE SMOOTH",
"247 419 OFFCURVE",
"230 435 OFFCURVE",
"230 455 CURVE SMOOTH",
"230 479 OFFCURVE",
"253 495 OFFCURVE",
"308 495 CURVE SMOOTH",
"367 495 OFFCURVE",
"445 476 OFFCURVE",
"488 452 CURVE",
"539 569 LINE",
"490 611 OFFCURVE",
"411 640 OFFCURVE",
"305 640 CURVE SMOOTH",
"141 640 OFFCURVE",
"49 571 OFFCURVE",
"49 458 CURVE SMOOTH",
"49 361 OFFCURVE",
"118 311 OFFCURVE",
"222 273 CURVE SMOOTH",
"306 242 LINE SMOOTH",
"348 226 OFFCURVE",
"367 212 OFFCURVE",
"367 186 CURVE SMOOTH",
"367 159 OFFCURVE",
"347 136 OFFCURVE",
"283 136 CURVE SMOOTH",
"216 136 OFFCURVE",
"136 162 OFFCURVE",
"95 194 CURVE"
);
}
);
width = 588;
}
);
leftKerningGroup = S_2nd;
rightKerningGroup = S1_1st;
unicode = 0053;
},
{
glyphname = T;
layers = (
{
hints = (
{
place = "{195, 170}";
type = Stem;
},
{
horizontal = 1;
place = "{503, 133}";
type = Stem;
},
{
horizontal = 1;
place = "{0, 21}";
target = up;
type = BottomGhost;
}
);
layerId = "49A649E9-A574-4B20-B218-33A3EC71A7EA";
paths = (
{
closed = 1;
nodes = (
"195 0 LINE",
"365 0 LINE",
"365 503 LINE",
"530 503 LINE",
"530 636 LINE",
"30 636 LINE",
"30 503 LINE",
"195 503 LINE"
);
}
);
width = 560;
}
);
leftKerningGroup = T;
rightKerningGroup = T1;
unicode = 0054;
},
{
glyphname = U;
layers = (
{
hints = (
{
place = "{50, 170}";
type = Stem;
},
{
place = "{410, 170}";
type = Stem;
},
{
horizontal = 1;
place = "{-6, 141}";
type = Stem;
},
{
horizontal = 1;
place = "{636, -20}";
target = down;
type = TopGhost;
}
);
layerId = "49A649E9-A574-4B20-B218-33A3EC71A7EA";
paths = (
{
closed = 1;
nodes = (
"50 234 LINE SMOOTH",
"50 79 OFFCURVE",
"137 -6 OFFCURVE",
"315 -6 CURVE SMOOTH",
"493 -6 OFFCURVE",
"580 79 OFFCURVE",
"580 234 CURVE SMOOTH",
"580 636 LINE",
"410 636 LINE",
"410 237 LINE SMOOTH",
"410 169 OFFCURVE",
"379 135 OFFCURVE",
"317 135 CURVE SMOOTH",
"256 135 OFFCURVE",
"220 169 OFFCURVE",
"220 237 CURVE SMOOTH",
"220 636 LINE",
"50 636 LINE"
);
}
);
width = 630;
}
);
leftKerningGroup = U_2nd;
rightKerningGroup = U1_1st;
unicode = 0055;
},
{
glyphname = V;
layers = (
{
hints = (
{
horizontal = 1;
place = "{0, 21}";
target = up;
type = BottomGhost;
},
{
horizontal = 1;
place = "{636, -20}";
target = down;
type = TopGhost;
}
);
layerId = "49A649E9-A574-4B20-B218-33A3EC71A7EA";
paths = (
{
closed = 1;
nodes = (
"250 0 LINE",
"458 0 LINE",
"659 636 LINE",
"474 636 LINE",
"352 182 LINE",
"218 636 LINE",
"35 636 LINE"
);
}
);
width = 694;
}
);
unicode = 0056;
},
{
glyphname = W;
layers = (
{
hints = (
{
horizontal = 1;
place = "{0, 21}";
target = up;
type = BottomGhost;
},
{
horizontal = 1;
place = "{636, -20}";
target = down;
type = TopGhost;
}
);
layerId = "49A649E9-A574-4B20-B218-33A3EC71A7EA";
paths = (
{
closed = 1;
nodes = (
"180 0 LINE",
"385 0 LINE",
"486 355 LINE",
"488 377 LINE",
"491 355 LINE",
"589 0 LINE",
"794 0 LINE",
"944 636 LINE",
"759 636 LINE",
"684 221 LINE",
"682 200 LINE",
"678 200 LINE",
"674 221 LINE",
"559 626 LINE",
"419 626 LINE",
"303 221 LINE",
"301 200 LINE",
"295 200 LINE",
"293 221 LINE",
"215 636 LINE",
"30 636 LINE"
);
}
);
width = 974;
}
);
leftKerningGroup = W_2nd;
rightKerningGroup = W1_1st;
unicode = 0057;
},
{
glyphname = X;
layers = (
{
hints = (
{
horizontal = 1;
place = "{0, 21}";
target = up;
type = BottomGhost;
},
{
horizontal = 1;
place = "{636, -20}";
target = down;
type = TopGhost;
}
);
layerId = "49A649E9-A574-4B20-B218-33A3EC71A7EA";
paths = (
{
closed = 1;
nodes = (
"30 0 LINE",
"239 0 LINE",
"372 193 LINE",
"502 0 LINE",
"716 0 LINE",
"485 317 LINE",
"708 636 LINE",
"508 636 LINE",
"378 441 LINE",
"245 636 LINE",
"39 636 LINE",
"267 314 LINE"
);
}
);
width = 746;
}
);
unicode = 0058;
},
{
glyphname = Y;
layers = (
{
hints = (
{
place = "{279, 191}";
type = Stem;
},
{
horizontal = 1;
place = "{636, -20}";
target = down;
type = TopGhost;
},
{
horizontal = 1;
place = "{0, 21}";
target = up;
type = BottomGhost;
}
);
layerId = "49A649E9-A574-4B20-B218-33A3EC71A7EA";
paths = (
{
closed = 1;
nodes = (
"279 0 LINE",
"470 0 LINE",
"470 245 LINE",
"691 636 LINE",
"494 636 LINE",
"369 400 LINE",
"363 400 LINE",
"229 636 LINE",
"30 636 LINE",
"279 239 LINE"
);
}
);
width = 721;
}
);
leftKerningGroup = Y_2nd;
rightKerningGroup = Y1_1st;
unicode = 0059;
},
{
glyphname = Z;
layers = (
{
hints = (
{
horizontal = 1;
place = "{0, 135}";
type = Stem;
},
{
horizontal = 1;
place = "{503, 133}";
type = Stem;
}
);
layerId = "49A649E9-A574-4B20-B218-33A3EC71A7EA";
paths = (
{
closed = 1;
nodes = (
"50 0 LINE",
"579 0 LINE",
"579 135 LINE",
"264 135 LINE",
"577 518 LINE",
"577 636 LINE",
"62 636 LINE",
"62 503 LINE",
"356 503 LINE",
"50 124 LINE"
);
}
);
width = 629;
}
);
leftKerningGroup = Z_2nd;
rightKerningGroup = Z1_1st;
unicode = 005A;
},
{
glyphname = bracketleft;
layers = (
{
hints = (
{
place = "{50, 150}";
type = Stem;
},
{
horizontal = 1;
place = "{-151, 126}";
type = Stem;
},
{
horizontal = 1;
place = "{537, 126}";
type = Stem;
}
);
layerId = "49A649E9-A574-4B20-B218-33A3EC71A7EA";
paths = (
{
closed = 1;
nodes = (
"200 -25 LINE",
"200 537 LINE",
"304 537 LINE",
"304 663 LINE",
"50 663 LINE",
"50 -151 LINE",
"304 -151 LINE",
"304 -25 LINE"
);
}
);
width = 316;
}
);
unicode = 005B;
},
{
glyphname = backslash;
layers = (
{
layerId = "49A649E9-A574-4B20-B218-33A3EC71A7EA";
paths = (
{
closed = 1;
nodes = (
"215 -85 LINE",
"362 -43 LINE",
"144 747 LINE",
"-2 708 LINE"
);
}
);
width = 360;
}
);
unicode = 005C;
},
{
glyphname = bracketright;
layers = (
{
hints = (
{
place = "{134, 150}";
type = Stem;
},
{
horizontal = 1;
place = "{-151, 126}";
type = Stem;
},
{
horizontal = 1;
place = "{537, 126}";
type = Stem;
}
);
layerId = "49A649E9-A574-4B20-B218-33A3EC71A7EA";
paths = (
{
closed = 1;
nodes = (
"30 -151 LINE",
"284 -151 LINE",
"284 663 LINE",
"30 663 LINE",
"30 537 LINE",
"134 537 LINE",
"134 -25 LINE",
"30 -25 LINE"
);
}
);
width = 334;
}
);
unicode = 005D;
},
{
glyphname = asciicircum;
layers = (
{
hints = (
{
horizontal = 1;
place = "{666, -20}";
target = down;
type = TopGhost;
}
);
layerId = "49A649E9-A574-4B20-B218-33A3EC71A7EA";
paths = (
{
closed = 1;
nodes = (
"151 322 LINE",
"269 526 LINE",
"387 322 LINE",
"518 386 LINE",
"336 666 LINE",
"202 666 LINE",
"20 386 LINE"
);
}
);
width = 538;
}
);
unicode = 005E;
},
{
glyphname = underscore;
layers = (
{
hints = (
{
horizontal = 1;
place = "{-179, 140}";
type = Stem;
}
);
layerId = "49A649E9-A574-4B20-B218-33A3EC71A7EA";
paths = (
{
closed = 1;
nodes = (
"40 -179 LINE",
"550 -179 LINE",
"550 -39 LINE",
"40 -39 LINE"
);
}
);
width = 590;
}
);
unicode = 005F;
},
{
glyphname = grave;
layers = (
{
layerId = "49A649E9-A574-4B20-B218-33A3EC71A7EA";
paths = (
{
closed = 1;
nodes = (
"10 663 LINE",
"261 536 LINE",
"321 636 LINE",
"81 786 LINE"
);
}
);
width = 326;
}
);
leftKerningGroup = grave_2nd;
rightKerningGroup = grave1_1st;
unicode = 0060;
},
{
glyphname = a;
layers = (
{
hints = (
{
place = "{40, 160}";
type = Stem;
},
{
place = "{335, 159}";
type = Stem;
},
{
horizontal = 1;
place = "{-5, 124}";
type = Stem;
},
{
horizontal = 1;
place = "{221, 101}";
type = Stem;
},
{
horizontal = 1;
place = "{396, 122}";
type = Stem;
}
);
layerId = "49A649E9-A574-4B20-B218-33A3EC71A7EA";
paths = (
{
closed = 1;
nodes = (
"417 -52 LINE",
"541 51 LINE",
"494 108 LINE",
"494 336 LINE SMOOTH",
"494 447 OFFCURVE",
"401 518 OFFCURVE",
"246 518 CURVE SMOOTH",
"183 518 OFFCURVE",
"118 506 OFFCURVE",
"67 478 CURVE",
"106 362 LINE",
"144 384 OFFCURVE",
"186 396 OFFCURVE",
"235 396 CURVE SMOOTH",
"299 396 OFFCURVE",
"335 376 OFFCURVE",
"335 338 CURVE SMOOTH",
"335 322 LINE",
"212 322 LINE SMOOTH",
"100 322 OFFCURVE",
"40 267 OFFCURVE",
"40 171 CURVE SMOOTH",
"40 66 OFFCURVE",
"113 -5 OFFCURVE",
"237 -5 CURVE SMOOTH",
"284 -5 OFFCURVE",
"323 5 OFFCURVE",
"354 24 CURVE"
);
},
{
closed = 1;
nodes = (
"336 193 LINE SMOOTH",
"336 159 OFFCURVE",
"312 119 OFFCURVE",
"262 119 CURVE SMOOTH",
"226 119 OFFCURVE",
"200 139 OFFCURVE",
"200 172 CURVE SMOOTH",
"200 202 OFFCURVE",
"221 221 OFFCURVE",
"262 221 CURVE SMOOTH",
"336 221 LINE"
);
}
);
width = 561;
}
);
leftKerningGroup = a_2nd;
rightKerningGroup = a1;
unicode = 0061;
},
{
glyphname = b;
layers = (
{
hints = (
{
place = "{75, 159}";
type = Stem;
},
{
place = "{416, 164}";
type = Stem;
},
{
horizontal = 1;
place = "{-6, 134}";
type = Stem;
},
{
horizontal = 1;
place = "{359, 132}";
type = Stem;
},
{
horizontal = 1;
place = "{650, -20}";
target = down;
type = TopGhost;
}
);
layerId = "49A649E9-A574-4B20-B218-33A3EC71A7EA";
paths = (
{
closed = 1;
nodes = (
"20 45 LINE",
"154 -56 LINE",
"215 28 LINE",
"247 7 OFFCURVE",
"285 -6 OFFCURVE",
"341 -6 CURVE SMOOTH",
"489 -6 OFFCURVE",
"580 87 OFFCURVE",
"580 248 CURVE SMOOTH",
"580 401 OFFCURVE",
"498 491 OFFCURVE",
"350 491 CURVE SMOOTH",
"305 491 OFFCURVE",
"257 483 OFFCURVE",
"234 475 CURVE",
"234 650 LINE",
"75 650 LINE",
"75 119 LINE"
);
},
{
closed = 1;
nodes = (
"235 343 LINE",
"257 353 OFFCURVE",
"289 359 OFFCURVE",
"315 359 CURVE SMOOTH",
"374 359 OFFCURVE",
"416 325 OFFCURVE",
"416 248 CURVE SMOOTH",
"416 165 OFFCURVE",
"368 128 OFFCURVE",
"315 128 CURVE SMOOTH",
"271 128 OFFCURVE",
"235 153 OFFCURVE",
"235 218 CURVE SMOOTH"
);
}
);
width = 620;
}
);
unicode = 0062;
},
{
glyphname = c;
layers = (
{
guideLines = (
{
position = "{0, 103}";
}
);
hints = (
{
place = "{40, 166}";
type = Stem;
},
{
horizontal = 1;
place = "{-4, 132}";
type = Stem;
},
{
horizontal = 1;
place = "{393, 132}";
type = Stem;
}
);
layerId = "49A649E9-A574-4B20-B218-33A3EC71A7EA";
paths = (
{
closed = 1;
nodes = (
"454 159 LINE",
"427 139 OFFCURVE",
"387 128 OFFCURVE",
"348 128 CURVE SMOOTH",
"263 128 OFFCURVE",
"206 179 OFFCURVE",
"206 269 CURVE SMOOTH",
"206 349 OFFCURVE",
"251 393 OFFCURVE",
"337 393 CURVE SMOOTH",
"374 393 OFFCURVE",
"406 385 OFFCURVE",
"433 369 CURVE",
"472 482 LINE",
"422 511 OFFCURVE",
"360 525 OFFCURVE",
"297 525 CURVE SMOOTH",
"130 525 OFFCURVE",
"40 426 OFFCURVE",
"40 269 CURVE SMOOTH",
"40 95 OFFCURVE",
"151 -4 OFFCURVE",
"310 -4 CURVE SMOOTH",
"401 -4 OFFCURVE",
"458 28 OFFCURVE",
"498 60 CURVE"
);
}
);
width = 538;
}
);
leftKerningGroup = c_2nd;
rightKerningGroup = c1_1st;
unicode = 0063;
},
{
glyphname = d;
layers = (
{
hints = (
{
place = "{40, 166}";
type = Stem;
},
{
place = "{396, 159}";
type = Stem;
},
{
horizontal = 1;
place = "{-5, 134}";
type = Stem;
},
{
horizontal = 1;
place = "{363, 132}";
type = Stem;
},
{
horizontal = 1;
place = "{650, -20}";
target = down;
type = TopGhost;
}
);
layerId = "49A649E9-A574-4B20-B218-33A3EC71A7EA";
paths = (
{
closed = 1;
nodes = (
"475 -51 LINE",
"607 45 LINE",
"555 120 LINE",
"555 650 LINE",
"396 650 LINE",
"396 477 LINE",
"373 486 OFFCURVE",
"318 495 OFFCURVE",
"275 495 CURVE SMOOTH",
"136 495 OFFCURVE",
"40 402 OFFCURVE",
"40 247 CURVE SMOOTH",
"40 87 OFFCURVE",
"143 -5 OFFCURVE",
"289 -5 CURVE SMOOTH",
"340 -5 OFFCURVE",
"381 6 OFFCURVE",
"414 27 CURVE"
);
},
{
closed = 1;
nodes = (
"395 218 LINE SMOOTH",
"395 154 OFFCURVE",
"356 129 OFFCURVE",
"312 129 CURVE SMOOTH",
"260 129 OFFCURVE",
"206 162 OFFCURVE",
"206 249 CURVE SMOOTH",
"206 327 OFFCURVE",
"250 363 OFFCURVE",
"312 363 CURVE SMOOTH",
"338 363 OFFCURVE",
"373 357 OFFCURVE",
"395 347 CURVE"
);
}
);
width = 627;
}
);
leftKerningGroup = d_2nd;
rightKerningGroup = d1_1st;
unicode = 0064;
},
{
glyphname = e;
layers = (
{
hints = (
{
place = "{40, 157}";
type = Stem;
},
{
place = "{378, 140}";
type = Stem;
},
{
horizontal = 1;
place = "{-6, 120}";
type = Stem;
},
{
horizontal = 1;
place = "{201, 101}";
type = Stem;
},
{
horizontal = 1;
place = "{397, 121}";
type = Stem;
}
);
layerId = "49A649E9-A574-4B20-B218-33A3EC71A7EA";
paths = (
{
closed = 1;
nodes = (
"456 149 LINE",
"428 127 OFFCURVE",
"380 114 OFFCURVE",
"326 114 CURVE SMOOTH",
"261 114 OFFCURVE",
"204 133 OFFCURVE",
"197 201 CURVE",
"508 201 LINE",
"514 231 OFFCURVE",
"518 263 OFFCURVE",
"518 293 CURVE SMOOTH",
"518 417 OFFCURVE",
"449 518 OFFCURVE",
"289 518 CURVE SMOOTH",
"137 518 OFFCURVE",
"40 427 OFFCURVE",
"40 266 CURVE SMOOTH",
"40 93 OFFCURVE",
"153 -6 OFFCURVE",
"313 -6 CURVE SMOOTH",
"396 -6 OFFCURVE",
"465 21 OFFCURVE",
"499 49 CURVE"
);
},
{
closed = 1;
nodes = (
"197 302 LINE",
"197 359 OFFCURVE",
"231 397 OFFCURVE",
"288 397 CURVE SMOOTH",
"348 397 OFFCURVE",
"378 355 OFFCURVE",
"378 302 CURVE"
);
}
);
width = 558;
}
);
leftKerningGroup = e_2nd;
rightKerningGroup = e1_1st;
unicode = 0065;
},
{
glyphname = f;
layers = (
{
hints = (
{
place = "{123, 159}";
type = Stem;
},
{
place = "{123, 165}";
type = Stem;
},
{
horizontal = 1;
place = "{266, 127}";
type = Stem;
},
{
horizontal = 1;
place = "{521, 132}";
type = Stem;
},
{
horizontal = 1;
place = "{0, 21}";
target = up;
type = BottomGhost;
}
);
layerId = "49A649E9-A574-4B20-B218-33A3EC71A7EA";
paths = (
{
closed = 1;
nodes = (
"123 0 LINE",
"288 0 LINE",
"288 266 LINE",
"448 266 LINE",
"448 393 LINE",
"282 393 LINE",
"282 445 LINE SMOOTH",
"282 496 OFFCURVE",
"315 521 OFFCURVE",
"375 521 CURVE SMOOTH",
"411 521 OFFCURVE",
"451 512 OFFCURVE",
"479 495 CURVE",
"516 612 LINE",
"466 641 OFFCURVE",
"394 653 OFFCURVE",
"340 653 CURVE SMOOTH",
"216 653 OFFCURVE",
"123 588 OFFCURVE",
"123 450 CURVE SMOOTH",
"123 392 LINE",
"40 392 LINE",
"40 266 LINE",
"123 266 LINE"
);
}
);
width = 536;
}
);
leftKerningGroup = f_2nd;
rightKerningGroup = f1_1st;
unicode = 0066;
},
{
glyphname = g;
layers = (
{
hints = (
{
place = "{40, 166}";
type = Stem;
},
{
place = "{378, 162}";
type = Stem;
},
{
place = "{380, 160}";
type = Stem;
},
{
horizontal = 1;
place = "{-191, 134}";
type = Stem;
},
{
horizontal = 1;
place = "{43, 132}";
type = Stem;
},
{
horizontal = 1;
place = "{386, 132}";
type = Stem;
}
);
layerId = "49A649E9-A574-4B20-B218-33A3EC71A7EA";
paths = (
{
closed = 1;
nodes = (
"40 -114 LINE",
"88 -154 OFFCURVE",
"165 -191 OFFCURVE",
"271 -191 CURVE SMOOTH",
"419 -191 OFFCURVE",
"540 -120 OFFCURVE",
"540 21 CURVE SMOOTH",
"540 444 LINE",
"494 490 OFFCURVE",
"378 518 OFFCURVE",
"290 518 CURVE SMOOTH",
"139 518 OFFCURVE",
"40 436 OFFCURVE",
"40 280 CURVE SMOOTH",
"40 110 OFFCURVE",
"159 43 OFFCURVE",
"280 43 CURVE SMOOTH",
"316 43 OFFCURVE",
"351 49 OFFCURVE",
"378 61 CURVE",
"378 19 LINE SMOOTH",
"378 -25 OFFCURVE",
"342 -57 OFFCURVE",
"267 -57 CURVE SMOOTH",
"204 -57 OFFCURVE",
"145 -34 OFFCURVE",
"92 3 CURVE"
);
},
{
closed = 1;
nodes = (
"257 175 OFFCURVE",
"206 204 OFFCURVE",
"206 281 CURVE SMOOTH",
"206 346 OFFCURVE",
"243 386 OFFCURVE",
"307 386 CURVE SMOOTH",
"332 386 OFFCURVE",
"364 380 OFFCURVE",
"380 373 CURVE",
"380 264 LINE SMOOTH",
"380 200 OFFCURVE",
"348 175 OFFCURVE",
"305 175 CURVE SMOOTH"
);
}
);
width = 590;
}
);
leftKerningGroup = g_2nd;
rightKerningGroup = g1_1st;
unicode = 0067;
},
{
glyphname = h;
layers = (
{
hints = (
{
place = "{50, 160}";
type = Stem;
},
{
place = "{358, 159}";
type = Stem;
},
{
horizontal = 1;
place = "{369, 132}";
type = Stem;
},
{
horizontal = 1;
place = "{0, 21}";
target = up;
type = BottomGhost;
},
{
horizontal = 1;
place = "{650, -20}";
target = down;
type = TopGhost;
}
);
layerId = "49A649E9-A574-4B20-B218-33A3EC71A7EA";
paths = (
{
closed = 1;
nodes = (
"50 0 LINE",
"210 0 LINE",
"210 354 LINE",
"226 363 OFFCURVE",
"248 369 OFFCURVE",
"272 369 CURVE SMOOTH",
"328 369 OFFCURVE",
"358 338 OFFCURVE",
"358 284 CURVE SMOOTH",
"358 32 LINE",
"437 -49 LINE",
"558 56 LINE",
"517 102 LINE",
"517 299 LINE SMOOTH",
"517 426 OFFCURVE",
"438 501 OFFCURVE",
"323 501 CURVE SMOOTH",
"285 501 OFFCURVE",
"233 493 OFFCURVE",
"209 483 CURVE",
"209 650 LINE",
"50 650 LINE"
);
}
);
width = 578;
}
);
leftKerningGroup = h;
unicode = 0068;
},
{
glyphname = i;
layers = (
{
hints = (
{
place = "{40, 182}";
type = Stem;
},
{
place = "{51, 160}";
type = Stem;
},
{
horizontal = 1;
place = "{542, 177}";
type = Stem;
},
{
horizontal = 1;
place = "{0, 21}";
target = up;
type = BottomGhost;
}
);
layerId = "49A649E9-A574-4B20-B218-33A3EC71A7EA";
paths = (
{
closed = 1;
nodes = (
"192 542 OFFCURVE",
"232 579 OFFCURVE",
"232 631 CURVE SMOOTH",
"232 683 OFFCURVE",
"192 719 OFFCURVE",
"141 719 CURVE SMOOTH",
"90 719 OFFCURVE",
"50 683 OFFCURVE",
"50 631 CURVE SMOOTH",
"50 579 OFFCURVE",
"90 542 OFFCURVE",
"141 542 CURVE SMOOTH"
);
},
{
closed = 1;
nodes = (
"61 0 LINE",
"221 0 LINE",
"221 482 LINE",
"61 482 LINE"
);
}
);
width = 282;
}
);
unicode = 0069;
},
{
glyphname = j;
layers = (
{
hints = (
{
place = "{131, 182}";
type = Stem;
},
{
place = "{143, 160}";
type = Stem;
},
{
horizontal = 1;
place = "{548, 177}";
type = Stem;
},
{
horizontal = 1;
place = "{-188, 21}";
target = up;
type = BottomGhost;
}
);
layerId = "49A649E9-A574-4B20-B218-33A3EC71A7EA";
paths = (
{
closed = 1;
nodes = (
"276 548 OFFCURVE",
"313 588 OFFCURVE",
"313 637 CURVE SMOOTH",
"313 686 OFFCURVE",
"276 725 OFFCURVE",
"222 725 CURVE SMOOTH",
"168 725 OFFCURVE",
"131 686 OFFCURVE",
"131 637 CURVE SMOOTH",
"131 588 OFFCURVE",
"168 548 OFFCURVE",
"222 548 CURVE SMOOTH"
);
},
{
closed = 1;
nodes = (
"97 -188 LINE",
"226 -188 OFFCURVE",
"303 -95 OFFCURVE",
"303 29 CURVE SMOOTH",
"303 482 LINE",
"143 482 LINE",
"143 45 LINE SMOOTH",
"143 -18 OFFCURVE",
"107 -51 OFFCURVE",
"50 -64 CURVE"
);
}
);
width = 363;
}
);
unicode = 006A;
},
{
glyphname = k;
layers = (
{
hints = (
{
place = "{50, 160}";
type = Stem;
},
{
horizontal = 1;
place = "{0, 21}";
target = up;
type = BottomGhost;
},
{
horizontal = 1;
place = "{650, -20}";
target = down;
type = TopGhost;
}
);
layerId = "49A649E9-A574-4B20-B218-33A3EC71A7EA";
paths = (
{
closed = 1;
nodes = (
"50 0 LINE",
"210 0 LINE",
"210 194 LINE",
"400 -16 LINE",
"507 85 LINE",
"334 260 LINE",
"493 442 LINE",
"384 535 LINE",
"210 327 LINE",
"210 650 LINE",
"50 650 LINE"
);
}
);
width = 537;
}
);
unicode = 006B;
},
{
glyphname = l;
layers = (
{
hints = (
{
place = "{50, 160}";
type = Stem;
},
{
horizontal = 1;
place = "{0, 21}";
target = up;
type = BottomGhost;
},
{
horizontal = 1;
place = "{650, -20}";
target = down;
type = TopGhost;
}
);
layerId = "49A649E9-A574-4B20-B218-33A3EC71A7EA";
paths = (
{
closed = 1;
nodes = (
"50 0 LINE",
"210 0 LINE",
"210 650 LINE",
"50 650 LINE"
);
}
);
width = 260;
}
);
leftKerningGroup = l_2nd;
rightKerningGroup = l_1st;
unicode = 006C;
},
{
glyphname = m;
layers = (
{
hints = (
{
place = "{50, 160}";
type = Stem;
},
{
place = "{358, 160}";
type = Stem;
},
{
place = "{666, 160}";
type = Stem;
},
{
horizontal = 1;
place = "{365, 151}";
type = Stem;
},
{
horizontal = 1;
place = "{369, 147}";
type = Stem;
},
{
horizontal = 1;
place = "{0, 21}";
target = up;
type = BottomGhost;
}
);
layerId = "49A649E9-A574-4B20-B218-33A3EC71A7EA";
paths = (
{
closed = 1;
nodes = (
"50 0 LINE",
"210 0 LINE",
"210 354 LINE",
"226 363 OFFCURVE",
"248 369 OFFCURVE",
"272 369 CURVE SMOOTH",
"328 369 OFFCURVE",
"358 338 OFFCURVE",
"358 284 CURVE SMOOTH",
"358 0 LINE",
"518 0 LINE",
"518 350 LINE",
"534 359 OFFCURVE",
"556 365 OFFCURVE",
"580 365 CURVE SMOOTH",
"636 365 OFFCURVE",
"666 332 OFFCURVE",
"666 280 CURVE SMOOTH",
"666 12 LINE",
"747 -69 LINE",
"871 36 LINE",
"826 87 LINE",
"826 299 LINE SMOOTH",
"826 439 OFFCURVE",
"738 516 OFFCURVE",
"615 516 CURVE SMOOTH",
"538 516 OFFCURVE",
"477 486 OFFCURVE",
"443 450 CURVE",
"410 488 OFFCURVE",
"350 516 OFFCURVE",
"276 516 CURVE SMOOTH",
"193 516 OFFCURVE",
"101 481 OFFCURVE",
"50 431 CURVE"
);
}
);
width = 891;
}
);
unicode = 006D;
},
{
glyphname = n;
layers = (
{
hints = (
{
place = "{50, 160}";
type = Stem;
},
{
place = "{358, 160}";
type = Stem;
},
{
horizontal = 1;
place = "{369, 147}";
type = Stem;
},
{
horizontal = 1;
place = "{0, 21}";
target = up;
type = BottomGhost;
}
);
layerId = "49A649E9-A574-4B20-B218-33A3EC71A7EA";
paths = (
{
closed = 1;
nodes = (
"210 0 LINE",
"50 0 LINE",
"50 431 LINE",
"101 481 OFFCURVE",
"193 516 OFFCURVE",
"296 516 CURVE SMOOTH",
"444 516 OFFCURVE",
"518 443 OFFCURVE",
"518 329 CURVE SMOOTH",
"518 87 LINE",
"563 36 LINE",
"439 -69 LINE",
"358 12 LINE",
"358 284 LINE SMOOTH",
"358 338 OFFCURVE",
"328 369 OFFCURVE",
"272 369 CURVE SMOOTH",
"248 369 OFFCURVE",
"226 363 OFFCURVE",
"210 354 CURVE"
);
}
);
width = 583;
}
);
leftKerningGroup = n_2nd;
rightKerningGroup = n1_1st;
unicode = 006E;
},
{
glyphname = o;
layers = (
{
guideLines = (
{
angle = 90;
position = "{308, 0}";
},
{
position = "{0, 256}";
}
);
hints = (
{
place = "{40, 163}";
type = Stem;
},
{
place = "{413, 164}";
type = Stem;
},
{
horizontal = 1;
place = "{-9, 134}";
type = Stem;
},
{
horizontal = 1;
place = "{390, 132}";
type = Stem;
}
);
layerId = "49A649E9-A574-4B20-B218-33A3EC71A7EA";
paths = (
{
closed = 1;
nodes = (
"476 -9 OFFCURVE",
"577 96 OFFCURVE",
"577 260 CURVE SMOOTH",
"577 428 OFFCURVE",
"472 522 OFFCURVE",
"308 522 CURVE SMOOTH",
"144 522 OFFCURVE",
"40 428 OFFCURVE",
"40 262 CURVE SMOOTH",
"40 96 OFFCURVE",
"144 -9 OFFCURVE",
"310 -9 CURVE SMOOTH"
);
},
{
closed = 1;
nodes = (
"244 125 OFFCURVE",
"203 178 OFFCURVE",
"203 261 CURVE SMOOTH",
"203 346 OFFCURVE",
"244 390 OFFCURVE",
"308 390 CURVE SMOOTH",
"372 390 OFFCURVE",
"413 346 OFFCURVE",
"413 260 CURVE SMOOTH",
"413 178 OFFCURVE",
"376 125 OFFCURVE",
"310 125 CURVE SMOOTH"
);
}
);
width = 617;
}
);
leftKerningGroup = o_2nd;
rightKerningGroup = o1_1st;
unicode = 006F;
},
{
glyphname = p;
layers = (
{
hints = (
{
place = "{50, 160}";
type = Stem;
},
{
place = "{396, 166}";
type = Stem;
},
{
horizontal = 1;
place = "{387, 131}";
type = Stem;
},
{
horizontal = 1;
place = "{-6, 137}";
type = Stem;
},
{
horizontal = 1;
place = "{-184, 21}";
target = up;
type = BottomGhost;
}
);
layerId = "49A649E9-A574-4B20-B218-33A3EC71A7EA";
paths = (
{
closed = 1;
nodes = (
"50 -184 LINE",
"210 -184 LINE",
"210 13 LINE",
"238 1 OFFCURVE",
"275 -6 OFFCURVE",
"314 -6 CURVE SMOOTH",
"450 -6 OFFCURVE",
"562 78 OFFCURVE",
"562 257 CURVE SMOOTH",
"562 414 OFFCURVE",
"477 518 OFFCURVE",
"303 518 CURVE SMOOTH",
"212 518 OFFCURVE",
"96 490 OFFCURVE",
"50 444 CURVE"
);
},
{
closed = 1;
nodes = (
"210 371 LINE",
"232 381 OFFCURVE",
"260 387 OFFCURVE",
"284 387 CURVE SMOOTH",
"346 387 OFFCURVE",
"396 342 OFFCURVE",
"396 253 CURVE SMOOTH",
"396 176 OFFCURVE",
"359 131 OFFCURVE",
"299 131 CURVE SMOOTH",
"255 131 OFFCURVE",
"210 155 OFFCURVE",
"210 218 CURVE SMOOTH"
);
}
);
width = 602;
}
);
unicode = 0070;
},
{
glyphname = q;
layers = (
{
hints = (
{
place = "{40, 166}";
type = Stem;
},
{
place = "{397, 160}";
type = Stem;
},
{
horizontal = 1;
place = "{387, 131}";
type = Stem;
},
{
horizontal = 1;
place = "{-6, 141}";
type = Stem;
},
{
horizontal = 1;
place = "{-184, 21}";
target = up;
type = BottomGhost;
}
);
layerId = "49A649E9-A574-4B20-B218-33A3EC71A7EA";
paths = (
{
closed = 1;
nodes = (
"397 -184 LINE",
"557 -184 LINE",
"557 444 LINE",
"511 490 OFFCURVE",
"395 518 OFFCURVE",
"304 518 CURVE SMOOTH",
"130 518 OFFCURVE",
"40 418 OFFCURVE",
"40 261 CURVE SMOOTH",
"40 82 OFFCURVE",
"157 -6 OFFCURVE",
"293 -6 CURVE SMOOTH",
"332 -6 OFFCURVE",
"369 1 OFFCURVE",
"397 13 CURVE"
);
},
{
closed = 1;
nodes = (
"397 222 LINE SMOOTH",
"397 159 OFFCURVE",
"356 135 OFFCURVE",
"313 135 CURVE SMOOTH",
"254 135 OFFCURVE",
"206 180 OFFCURVE",
"206 261 CURVE SMOOTH",
"206 346 OFFCURVE",
"261 387 OFFCURVE",
"323 387 CURVE SMOOTH",
"347 387 OFFCURVE",
"375 381 OFFCURVE",
"397 371 CURVE"
);
}
);
width = 607;
}
);
unicode = 0071;
},
{
glyphname = r;
layers = (
{
anchors = (
{
name = 030C;
position = "{239, 494}";
}
);
hints = (
{
place = "{50, 170}";
type = Stem;
},
{
horizontal = 1;
place = "{381, 137}";
type = Stem;
},
{
horizontal = 1;
place = "{0, 21}";
target = up;
type = BottomGhost;
}
);
layerId = "49A649E9-A574-4B20-B218-33A3EC71A7EA";
paths = (
{
closed = 1;
nodes = (
"50 424 LINE",
"96 477 OFFCURVE",
"165 518 OFFCURVE",
"255 518 CURVE SMOOTH",
"310 518 OFFCURVE",
"359 503 OFFCURVE",
"399 476 CURVE",
"357 361 LINE",
"337 374 OFFCURVE",
"307 381 OFFCURVE",
"284 381 CURVE SMOOTH",
"256 381 OFFCURVE",
"230 372 OFFCURVE",
"220 363 CURVE",
"220 0 LINE",
"50 0 LINE"
);
}
);
width = 419;
}
);
leftKerningGroup = r_2nd;
rightKerningGroup = r1_1st;
unicode = 0072;
},
{
glyphname = s;
layers = (
{
hints = (
{
place = "{39, 160}";
type = Stem;
},
{
place = "{316, 160}";
type = Stem;
},
{
horizontal = 1;
place = "{-20, 130}";
type = Stem;
},
{
horizontal = 1;
place = "{389, 126}";
type = Stem;
}
);
layerId = "49A649E9-A574-4B20-B218-33A3EC71A7EA";
paths = (
{
closed = 1;
nodes = (
"30 56 LINE",
"74 18 OFFCURVE",
"164 -20 OFFCURVE",
"266 -20 CURVE SMOOTH",
"417 -20 OFFCURVE",
"476 64 OFFCURVE",
"476 158 CURVE SMOOTH",
"476 238 OFFCURVE",
"433 290 OFFCURVE",
"299 312 CURVE SMOOTH",
"238 322 LINE SMOOTH",
"218 325 OFFCURVE",
"199 338 OFFCURVE",
"199 358 CURVE SMOOTH",
"199 378 OFFCURVE",
"218 389 OFFCURVE",
"262 389 CURVE SMOOTH",
"316 389 OFFCURVE",
"386 372 OFFCURVE",
"418 351 CURVE",
"459 458 LINE",
"422 484 OFFCURVE",
"342 515 OFFCURVE",
"246 515 CURVE SMOOTH",
"100 515 OFFCURVE",
"39 442 OFFCURVE",
"39 356 CURVE SMOOTH",
"39 267 OFFCURVE",
"103 215 OFFCURVE",
"216 196 CURVE SMOOTH",
"264 188 LINE SMOOTH",
"299 182 OFFCURVE",
"316 173 OFFCURVE",
"316 151 CURVE SMOOTH",
"316 126 OFFCURVE",
"294 110 OFFCURVE",
"246 110 CURVE SMOOTH",
"182 110 OFFCURVE",
"114 138 OFFCURVE",
"81 163 CURVE"
);
}
);
width = 506;
}
);
leftKerningGroup = s_2nd;
rightKerningGroup = s1_1st;
unicode = 0073;
},
{
glyphname = u;
layers = (
{
hints = (
{
place = "{50, 160}";
type = Stem;
},
{
place = "{385, 160}";
type = Stem;
},
{
horizontal = 1;
place = "{0, 133}";
type = Stem;
},
{
horizontal = 1;
place = "{512, -20}";
target = down;
type = TopGhost;
}
);
layerId = "49A649E9-A574-4B20-B218-33A3EC71A7EA";
paths = (
{
closed = 1;
nodes = (
"50 216 LINE SMOOTH",
"50 76 OFFCURVE",
"124 0 OFFCURVE",
"274 0 CURVE SMOOTH",
"333 0 OFFCURVE",
"372 12 OFFCURVE",
"403 32 CURVE",
"465 -46 LINE",
"600 61 LINE",
"545 125 LINE",
"545 512 LINE",
"385 512 LINE",
"385 225 LINE SMOOTH",
"385 165 OFFCURVE",
"352 133 OFFCURVE",
"298 133 CURVE SMOOTH",
"244 133 OFFCURVE",
"210 165 OFFCURVE",
"210 225 CURVE SMOOTH",
"210 512 LINE",
"50 512 LINE"
);
}
);
width = 620;
}
);
leftKerningGroup = u_2nd;
rightKerningGroup = u1_1st;
unicode = 0075;
},
{
glyphname = v;
layers = (
{
hints = (
{
horizontal = 1;
place = "{0, 21}";
target = up;
type = BottomGhost;
},
{
horizontal = 1;
place = "{511, -20}";
target = down;
type = TopGhost;
}
);
layerId = "49A649E9-A574-4B20-B218-33A3EC71A7EA";
paths = (
{
closed = 1;
nodes = (
"183 0 LINE",
"376 0 LINE",
"536 511 LINE",
"375 511 LINE",
"280 145 LINE",
"175 511 LINE",
"10 511 LINE"
);
}
);
width = 546;
}
);
unicode = 0076;
},
{
glyphname = w;
layers = (
{
layerId = "435A5290-1CD6-4D4F-8352-E0663EDF8091";
name = public.background;
width = 852;
},
{
hints = (
{
horizontal = 1;
place = "{0, 21}";
target = up;
type = BottomGhost;
},
{
horizontal = 1;
place = "{512, -20}";
target = down;
type = TopGhost;
}
);
layerId = "49A649E9-A574-4B20-B218-33A3EC71A7EA";
paths = (
{
closed = 1;
nodes = (
"251 171 LINE",
"346 502 LINE",
"506 502 LINE",
"601 171 LINE",
"662 512 LINE",
"822 512 LINE",
"714 0 LINE",
"515 0 LINE",
"428 308 LINE",
"426 318 LINE",
"424 308 LINE",
"337 0 LINE",
"138 0 LINE",
"30 512 LINE",
"190 512 LINE"
);
}
);
width = 852;
}
);
leftKerningGroup = w_2nd;
rightKerningGroup = w1_1st;
unicode = 0077;
},
{
glyphname = x;
layers = (
{
hints = (
{
horizontal = 1;
place = "{0, 21}";
target = up;
type = BottomGhost;
},
{
horizontal = 1;
place = "{512, -20}";
target = down;
type = TopGhost;
}
);
layerId = "49A649E9-A574-4B20-B218-33A3EC71A7EA";
paths = (
{
closed = 1;
nodes = (
"20 0 LINE",
"210 0 LINE",
"321 150 LINE",
"427 0 LINE",
"612 0 LINE",
"422 258 LINE",
"610 512 LINE",
"429 512 LINE",
"319 360 LINE",
"207 512 LINE",
"29 512 LINE",
"223 255 LINE"
);
}
);
width = 632;
}
);
unicode = 0078;
},
{
glyphname = y;
layers = (
{
hints = (
{
horizontal = 1;
place = "{512, -20}";
target = down;
type = TopGhost;
},
{
horizontal = 1;
place = "{-178, 21}";
target = up;
type = BottomGhost;
}
);
layerId = "49A649E9-A574-4B20-B218-33A3EC71A7EA";
paths = (
{
closed = 1;
nodes = (
"173 -178 LINE",
"271 72 LINE",
"240 98 OFFCURVE",
"198 147 OFFCURVE",
"166 213 CURVE SMOOTH",
"20 512 LINE",
"190 512 LINE",
"328 216 LINE",
"444 512 LINE",
"614 512 LINE",
"338 -178 LINE"
);
}
);
width = 634;
}
);
leftKerningGroup = y_2nd;
rightKerningGroup = y1_1st;
unicode = 0079;
},
{
glyphname = z;
layers = (
{
hints = (
{
horizontal = 1;
place = "{0, 125}";
type = Stem;
},
{
horizontal = 1;
place = "{387, 125}";
type = Stem;
}
);
layerId = "49A649E9-A574-4B20-B218-33A3EC71A7EA";
paths = (
{
closed = 1;
nodes = (
"40 0 LINE",
"484 0 LINE",
"484 125 LINE",
"235 125 LINE",
"473 405 LINE",
"473 512 LINE",
"44 512 LINE",
"44 387 LINE",
"283 387 LINE",
"40 107 LINE"
);
}
);
width = 524;
}
);
leftKerningGroup = z_2nd;
rightKerningGroup = z1_1st;
unicode = 007A;
},
{
glyphname = braceleft;
layers = (
{
hints = (
{
place = "{95, 212}";
type = Stem;
},
{
place = "{95, 150}";
type = Stem;
},
{
horizontal = 1;
place = "{-151, 116}";
type = Stem;
},
{
horizontal = 1;
place = "{199, 114}";
type = Stem;
},
{
horizontal = 1;
place = "{547, 116}";
type = Stem;
}
);
layerId = "49A649E9-A574-4B20-B218-33A3EC71A7EA";
paths = (
{
closed = 1;
nodes = (
"95 -10 LINE SMOOTH",
"95 -104 OFFCURVE",
"167 -151 OFFCURVE",
"238 -151 CURVE SMOOTH",
"307 -151 LINE",
"307 -35 LINE",
"269 -35 OFFCURVE",
"245 -16 OFFCURVE",
"245 29 CURVE SMOOTH",
"245 131 LINE SMOOTH",
"245 187 OFFCURVE",
"217 229 OFFCURVE",
"171 256 CURVE",
"217 283 OFFCURVE",
"245 325 OFFCURVE",
"245 381 CURVE SMOOTH",
"245 483 LINE SMOOTH",
"245 528 OFFCURVE",
"269 547 OFFCURVE",
"307 547 CURVE",
"307 663 LINE",
"238 663 LINE SMOOTH",
"167 663 OFFCURVE",
"95 616 OFFCURVE",
"95 522 CURVE SMOOTH",
"95 417 LINE SMOOTH",
"95 357 OFFCURVE",
"75 315 OFFCURVE",
"20 313 CURVE",
"20 199 LINE",
"75 197 OFFCURVE",
"95 155 OFFCURVE",
"95 95 CURVE SMOOTH"
);
}
);
width = 327;
}
);
unicode = 007B;
},
{
glyphname = bar;
layers = (
{
hints = (
{
place = "{60, 160}";
type = Stem;
},
{
horizontal = 1;
place = "{678, -20}";
target = down;
type = TopGhost;
},
{
horizontal = 1;
place = "{-140, 21}";
target = up;
type = BottomGhost;
}
);
layerId = "49A649E9-A574-4B20-B218-33A3EC71A7EA";
paths = (
{
closed = 1;
nodes = (
"220 -140 LINE",
"220 678 LINE",
"60 678 LINE",
"60 -140 LINE"
);
}
);
width = 280;
}
);
unicode = 007C;
},
{
glyphname = braceright;
layers = (
{
hints = (
{
place = "{20, 212}";
type = Stem;
},
{
place = "{82, 150}";
type = Stem;
},
{
horizontal = 1;
place = "{-151, 116}";
type = Stem;
},
{
horizontal = 1;
place = "{199, 114}";
type = Stem;
},
{
horizontal = 1;
place = "{547, 116}";
type = Stem;
}
);
layerId = "49A649E9-A574-4B20-B218-33A3EC71A7EA";
paths = (
{
closed = 1;
nodes = (
"20 -151 LINE",
"89 -151 LINE SMOOTH",
"160 -151 OFFCURVE",
"232 -104 OFFCURVE",
"232 -10 CURVE SMOOTH",
"232 95 LINE SMOOTH",
"232 155 OFFCURVE",
"252 197 OFFCURVE",
"307 199 CURVE",
"307 313 LINE",
"252 315 OFFCURVE",
"232 357 OFFCURVE",
"232 417 CURVE SMOOTH",
"232 522 LINE SMOOTH",
"232 616 OFFCURVE",
"160 663 OFFCURVE",
"89 663 CURVE SMOOTH",
"20 663 LINE",
"20 547 LINE",
"58 547 OFFCURVE",
"82 528 OFFCURVE",
"82 483 CURVE SMOOTH",
"82 381 LINE SMOOTH",
"82 325 OFFCURVE",
"110 283 OFFCURVE",
"156 256 CURVE",
"110 229 OFFCURVE",
"82 187 OFFCURVE",
"82 131 CURVE SMOOTH",
"82 29 LINE SMOOTH",
"82 -16 OFFCURVE",
"58 -35 OFFCURVE",
"20 -35 CURVE"
);
}
);
width = 327;
}
);
unicode = 007D;
},
{
glyphname = asciitilde;
layers = (
{
guideLines = (
{
position = "{0, 159}";
}
);
hints = (
{
horizontal = 1;
place = "{156, 128}";
type = Stem;
},
{
horizontal = 1;
place = "{217, 128}";
type = Stem;
}
);
layerId = "49A649E9-A574-4B20-B218-33A3EC71A7EA";
paths = (
{
closed = 1;
nodes = (
"20 217 LINE",
"42 293 OFFCURVE",
"106 345 OFFCURVE",
"187 345 CURVE SMOOTH",
"226 345 OFFCURVE",
"261 333 OFFCURVE",
"313 314 CURVE SMOOTH",
"349 301 OFFCURVE",
"396 284 OFFCURVE",
"438 284 CURVE SMOOTH",
"486 284 OFFCURVE",
"512 307 OFFCURVE",
"532 342 CURVE",
"618 284 LINE",
"596 208 OFFCURVE",
"532 156 OFFCURVE",
"451 156 CURVE SMOOTH",
"412 156 OFFCURVE",
"377 168 OFFCURVE",
"325 187 CURVE SMOOTH",
"289 200 OFFCURVE",
"242 217 OFFCURVE",
"200 217 CURVE SMOOTH",
"152 217 OFFCURVE",
"126 194 OFFCURVE",
"106 159 CURVE"
);
}
);
width = 638;
}
);
unicode = 007E;
},
{
glyphname = exclamdown;
layers = (
{
hints = (
{
place = "{50, 192}";
type = Stem;
},
{
place = "{66, 161}";
type = Stem;
},
{
horizontal = 1;
place = "{275, 188}";
type = Stem;
},
{
horizontal = 1;
place = "{-190, 21}";
target = up;
type = BottomGhost;
}
);
layerId = "49A649E9-A574-4B20-B218-33A3EC71A7EA";
paths = (
{
closed = 1;
nodes = (
"199 275 OFFCURVE",
"242 313 OFFCURVE",
"242 369 CURVE SMOOTH",
"242 422 OFFCURVE",
"204 463 OFFCURVE",
"146 463 CURVE SMOOTH",
"88 463 OFFCURVE",
"50 424 OFFCURVE",
"50 370 CURVE SMOOTH",
"50 317 OFFCURVE",
"88 275 OFFCURVE",
"145 275 CURVE SMOOTH"
);
},
{
closed = 1;
nodes = (
"55 -190 LINE",
"241 -190 LINE",
"212 214 LINE",
"77 214 LINE"
);
}
);
width = 298;
}
);
unicode = 00A1;
},
{
glyphname = cent;
layers = (
{
hints = (
{
place = "{40, 167}";
type = Stem;
},
{
place = "{218, 132}";
type = Stem;
},
{
horizontal = 1;
place = "{-84, 212}";
type = Stem;
},
{
horizontal = 1;
place = "{393, 217}";
type = Stem;
}
);
layerId = "49A649E9-A574-4B20-B218-33A3EC71A7EA";
paths = (
{
closed = 1;
nodes = (
"40 134 OFFCURVE",
"110 42 OFFCURVE",
"218 9 CURVE",
"218 -84 LINE",
"350 -84 LINE",
"350 -2 LINE",
"419 6 OFFCURVE",
"465 33 OFFCURVE",
"499 60 CURVE",
"456 161 LINE",
"430 142 OFFCURVE",
"391 128 OFFCURVE",
"346 128 CURVE SMOOTH",
"262 128 OFFCURVE",
"207 176 OFFCURVE",
"207 266 CURVE SMOOTH",
"207 357 OFFCURVE",
"261 393 OFFCURVE",
"350 393 CURVE",
"382 391 OFFCURVE",
"410 383 OFFCURVE",
"434 369 CURVE",
"471 484 LINE",
"435 505 OFFCURVE",
"393 517 OFFCURVE",
"350 522 CURVE",
"350 610 LINE",
"218 610 LINE",
"218 516 LINE",
"102 489 OFFCURVE",
"40 400 OFFCURVE",
"40 271 CURVE SMOOTH"
);
}
);
width = 539;
}
);
unicode = 00A2;
},
{
glyphname = sterling;
layers = (
{
hints = (
{
place = "{116, 178}";
type = Stem;
},
{
horizontal = 1;
place = "{0, 120}";
type = Stem;
},
{
horizontal = 1;
place = "{238, 120}";
type = Stem;
},
{
horizontal = 1;
place = "{504, 134}";
type = Stem;
}
);
layerId = "49A649E9-A574-4B20-B218-33A3EC71A7EA";
paths = (
{
closed = 1;
nodes = (
"120 358 LINE",
"117 381 OFFCURVE",
"116 401 OFFCURVE",
"116 416 CURVE SMOOTH",
"116 554 OFFCURVE",
"200 638 OFFCURVE",
"349 638 CURVE SMOOTH",
"427 638 OFFCURVE",
"497 615 OFFCURVE",
"548 576 CURVE",
"512 477 LINE",
"481 493 OFFCURVE",
"449 504 OFFCURVE",
"408 504 CURVE SMOOTH",
"334 504 OFFCURVE",
"294 469 OFFCURVE",
"294 398 CURVE SMOOTH",
"294 386 OFFCURVE",
"295 372 OFFCURVE",
"297 358 CURVE",
"491 358 LINE",
"491 238 LINE",
"314 238 LINE",
"315 233 OFFCURVE",
"315 229 OFFCURVE",
"315 228 CURVE",
"315 188 OFFCURVE",
"306 152 OFFCURVE",
"288 120 CURVE",
"534 120 LINE",
"534 0 LINE",
"94 0 LINE",
"59 96 LINE",
"121 112 OFFCURVE",
"137 182 OFFCURVE",
"137 238 CURVE",
"40 238 LINE",
"40 358 LINE"
);
}
);
width = 588;
}
);
unicode = 00A3;
},
{
glyphname = currency;
layers = (
{
hints = (
{
place = "{78, 143}";
type = Stem;
},
{
place = "{408, 143}";
type = Stem;
},
{
horizontal = 1;
place = "{51, 118}";
type = Stem;
},
{
horizontal = 1;
place = "{379, 118}";
type = Stem;
}
);
layerId = "49A649E9-A574-4B20-B218-33A3EC71A7EA";
paths = (
{
closed = 1;
nodes = (
"107 -21 LINE",
"204 71 LINE",
"237 58 OFFCURVE",
"275 51 OFFCURVE",
"318 51 CURVE SMOOTH",
"358 51 OFFCURVE",
"395 57 OFFCURVE",
"427 70 CURVE",
"523 -21 LINE",
"620 76 LINE",
"531 165 LINE",
"544 193 OFFCURVE",
"551 227 OFFCURVE",
"551 265 CURVE SMOOTH",
"551 307 OFFCURVE",
"542 345 OFFCURVE",
"526 377 CURVE",
"620 471 LINE",
"523 568 LINE",
"424 475 LINE",
"392 489 OFFCURVE",
"355 497 OFFCURVE",
"314 497 CURVE SMOOTH",
"272 497 OFFCURVE",
"234 489 OFFCURVE",
"201 474 CURVE",
"107 568 LINE",
"10 471 LINE",
"103 378 LINE",
"87 346 OFFCURVE",
"78 309 OFFCURVE",
"78 268 CURVE SMOOTH",
"78 229 OFFCURVE",
"86 194 OFFCURVE",
"100 165 CURVE",
"10 76 LINE"
);
},
{
closed = 1;
nodes = (
"221 338 OFFCURVE",
"262 379 OFFCURVE",
"315 379 CURVE SMOOTH",
"367 379 OFFCURVE",
"408 338 OFFCURVE",
"408 270 CURVE SMOOTH",
"408 204 OFFCURVE",
"369 169 OFFCURVE",
"318 169 CURVE SMOOTH",
"265 169 OFFCURVE",
"221 206 OFFCURVE",
"221 273 CURVE SMOOTH"
);
}
);
width = 630;
}
);
unicode = 00A4;
},
{
glyphname = yen;
layers = (
{
hints = (
{
place = "{279, 191}";
type = Stem;
},
{
horizontal = 1;
place = "{288, 90}";
type = Stem;
},
{
horizontal = 1;
place = "{153, 90}";
type = Stem;
},
{
horizontal = 1;
place = "{636, -20}";
target = down;
type = TopGhost;
},
{
horizontal = 1;
place = "{0, 21}";
target = up;
type = BottomGhost;
}
);
layerId = "49A649E9-A574-4B20-B218-33A3EC71A7EA";
paths = (
{
closed = 1;
nodes = (
"30 636 LINE",
"192 378 LINE",
"51 378 LINE",
"51 288 LINE",
"248 288 LINE",
"276 243 LINE",
"51 243 LINE",
"51 153 LINE",
"279 153 LINE",
"279 0 LINE",
"470 0 LINE",
"470 153 LINE",
"691 153 LINE",
"691 243 LINE",
"470 243 LINE",
"470 245 LINE",
"494 288 LINE",
"691 288 LINE",
"691 378 LINE",
"545 378 LINE",
"691 636 LINE",
"494 636 LINE",
"369 400 LINE",
"363 400 LINE",
"229 636 LINE"
);
}
);
width = 721;
}
);
unicode = 00A5;
},
{
glyphname = brokenbar;
layers = (
{
hints = (
{
place = "{60, 160}";
type = Stem;
},
{
horizontal = 1;
place = "{-140, 21}";
target = up;
type = BottomGhost;
},
{
horizontal = 1;
place = "{678, -20}";
target = down;
type = TopGhost;
}
);
layerId = "49A649E9-A574-4B20-B218-33A3EC71A7EA";
paths = (
{
closed = 1;
nodes = (
"220 324 LINE",
"220 678 LINE",
"60 678 LINE",
"60 324 LINE"
);
},
{
closed = 1;
nodes = (
"220 -140 LINE",
"220 214 LINE",
"60 214 LINE",
"60 -140 LINE"
);
}
);
width = 280;
}
);
unicode = 00A6;
},
{
glyphname = section;
layers = (
{
hints = (
{
place = "{30, 160}";
type = Stem;
},
{
place = "{41, 160}";
type = Stem;
},
{
place = "{327, 160}";
type = Stem;
},
{
place = "{338, 160}";
type = Stem;
},
{
horizontal = 1;
place = "{-62, 130}";
type = Stem;
},
{
horizontal = 1;
place = "{528, 126}";
type = Stem;
}
);
layerId = "49A649E9-A574-4B20-B218-33A3EC71A7EA";
paths = (
{
closed = 1;
nodes = (
"41 14 LINE",
"86 -27 OFFCURVE",
"177 -62 OFFCURVE",
"277 -62 CURVE SMOOTH",
"427 -62 OFFCURVE",
"487 17 OFFCURVE",
"487 104 CURVE SMOOTH",
"487 143 OFFCURVE",
"475 170 OFFCURVE",
"453 190 CURVE",
"483 213 OFFCURVE",
"498 254 OFFCURVE",
"498 291 CURVE SMOOTH",
"498 367 OFFCURVE",
"435 413 OFFCURVE",
"301 446 CURVE SMOOTH",
"240 461 LINE SMOOTH",
"220 466 OFFCURVE",
"201 477 OFFCURVE",
"201 497 CURVE SMOOTH",
"201 517 OFFCURVE",
"220 528 OFFCURVE",
"264 528 CURVE SMOOTH",
"318 528 OFFCURVE",
"388 511 OFFCURVE",
"420 490 CURVE",
"461 597 LINE",
"425 625 OFFCURVE",
"343 654 OFFCURVE",
"249 654 CURVE SMOOTH",
"101 654 OFFCURVE",
"41 581 OFFCURVE",
"41 502 CURVE SMOOTH",
"41 461 OFFCURVE",
"57 434 OFFCURVE",
"81 412 CURVE",
"52 385 OFFCURVE",
"30 351 OFFCURVE",
"30 308 CURVE SMOOTH",
"30 221 OFFCURVE",
"118 177 OFFCURVE",
"227 152 CURVE SMOOTH",
"275 141 LINE SMOOTH",
"310 133 OFFCURVE",
"327 128 OFFCURVE",
"327 106 CURVE SMOOTH",
"327 81 OFFCURVE",
"305 68 OFFCURVE",
"260 68 CURVE SMOOTH",
"193 68 OFFCURVE",
"125 96 OFFCURVE",
"92 121 CURVE"
);
},
{
closed = 1;
nodes = (
"249 264 LINE SMOOTH",
"207 275 OFFCURVE",
"190 292 OFFCURVE",
"190 312 CURVE SMOOTH",
"190 326 OFFCURVE",
"199 345 OFFCURVE",
"227 345 CURVE SMOOTH",
"233 345 OFFCURVE",
"241 344 OFFCURVE",
"249 342 CURVE SMOOTH",
"282 333 LINE SMOOTH",
"318 323 OFFCURVE",
"338 313 OFFCURVE",
"338 288 CURVE SMOOTH",
"338 269 OFFCURVE",
"326 254 OFFCURVE",
"300 254 CURVE SMOOTH",
"294 254 OFFCURVE",
"289 254 OFFCURVE",
"281 256 CURVE SMOOTH"
);
}
);
width = 528;
}
);
unicode = 00A7;
},
{
glyphname = dieresis;
layers = (
{
hints = (
{
place = "{10, 180}";
type = Stem;
},
{
place = "{237, 180}";
type = Stem;
},
{
horizontal = 1;
place = "{550, 174}";
type = Stem;
}
);
layerId = "49A649E9-A574-4B20-B218-33A3EC71A7EA";
paths = (
{
closed = 1;
nodes = (
"154 550 OFFCURVE",
"190 588 OFFCURVE",
"190 637 CURVE SMOOTH",
"190 686 OFFCURVE",
"154 724 OFFCURVE",
"100 724 CURVE SMOOTH",
"46 724 OFFCURVE",
"10 686 OFFCURVE",
"10 637 CURVE SMOOTH",
"10 588 OFFCURVE",
"46 550 OFFCURVE",
"100 550 CURVE SMOOTH"
);
},
{
closed = 1;
nodes = (
"381 550 OFFCURVE",
"417 588 OFFCURVE",
"417 637 CURVE SMOOTH",
"417 686 OFFCURVE",
"381 724 OFFCURVE",
"327 724 CURVE SMOOTH",
"273 724 OFFCURVE",
"237 686 OFFCURVE",
"237 637 CURVE SMOOTH",
"237 588 OFFCURVE",
"273 550 OFFCURVE",
"327 550 CURVE SMOOTH"
);
}
);
width = 427;
}
);
unicode = 00A8;
},
{
glyphname = copyright;
layers = (
{
hints = (
{
place = "{30, 107}";
type = Stem;
},
{
place = "{196, 111}";
type = Stem;
},
{
place = "{597, 106}";
type = Stem;
},
{
horizontal = 1;
place = "{-2, 89}";
type = Stem;
},
{
horizontal = 1;
place = "{138, 90}";
type = Stem;
},
{
horizontal = 1;
place = "{405, 90}";
type = Stem;
},
{
horizontal = 1;
place = "{549, 89}";
type = Stem;
}
);
layerId = "49A649E9-A574-4B20-B218-33A3EC71A7EA";
paths = (
{
closed = 1;
nodes = (
"585 -2 OFFCURVE",
"703 119 OFFCURVE",
"703 314 CURVE SMOOTH",
"703 518 OFFCURVE",
"574 638 OFFCURVE",
"361 638 CURVE SMOOTH",
"148 638 OFFCURVE",
"30 517 OFFCURVE",
"30 319 CURVE SMOOTH",
"30 118 OFFCURVE",
"152 -2 OFFCURVE",
"368 -2 CURVE SMOOTH"
);
},
{
closed = 1;
nodes = (
"222 87 OFFCURVE",
"137 173 OFFCURVE",
"137 317 CURVE SMOOTH",
"137 459 OFFCURVE",
"221 549 OFFCURVE",
"368 549 CURVE SMOOTH",
"516 549 OFFCURVE",
"597 459 OFFCURVE",
"597 319 CURVE SMOOTH",
"597 182 OFFCURVE",
"519 87 OFFCURVE",
"367 87 CURVE SMOOTH"
);
},
{
closed = 1;
nodes = (
"470 250 LINE",
"453 236 OFFCURVE",
"425 228 OFFCURVE",
"397 228 CURVE SMOOTH",
"341 228 OFFCURVE",
"307 259 OFFCURVE",
"307 318 CURVE SMOOTH",
"307 374 OFFCURVE",
"338 405 OFFCURVE",
"397 405 CURVE SMOOTH",
"421 405 OFFCURVE",
"442 400 OFFCURVE",
"460 389 CURVE",
"485 467 LINE",
"451 486 OFFCURVE",
"411 495 OFFCURVE",
"369 495 CURVE SMOOTH",
"257 495 OFFCURVE",
"196 429 OFFCURVE",
"196 322 CURVE SMOOTH",
"196 207 OFFCURVE",
"267 138 OFFCURVE",
"373 138 CURVE SMOOTH",
"434 138 OFFCURVE",
"473 161 OFFCURVE",
"500 182 CURVE"
);
}
);
width = 733;
}
);
leftKerningGroup = copyright_2nd;
rightKerningGroup = copyright1_1st;
unicode = 00A9;
},
{
glyphname = ordfeminine;
layers = (
{
hints = (
{
place = "{30, 103}";
type = Stem;
},
{
place = "{216, 103}";
type = Stem;
},
{
horizontal = 1;
place = "{326, 79}";
type = Stem;
},
{
horizontal = 1;
place = "{469, 63}";
type = Stem;
},
{
horizontal = 1;
place = "{579, 77}";
type = Stem;
}
);
layerId = "49A649E9-A574-4B20-B218-33A3EC71A7EA";
paths = (
{
closed = 1;
nodes = (
"270 296 LINE",
"349 362 LINE",
"319 397 LINE",
"319 541 LINE SMOOTH",
"319 610 OFFCURVE",
"259 656 OFFCURVE",
"162 656 CURVE SMOOTH",
"122 656 OFFCURVE",
"82 648 OFFCURVE",
"49 630 CURVE",
"74 557 LINE",
"99 572 OFFCURVE",
"125 579 OFFCURVE",
"155 579 CURVE SMOOTH",
"196 579 OFFCURVE",
"216 566 OFFCURVE",
"216 542 CURVE SMOOTH",
"216 532 LINE",
"141 532 LINE SMOOTH",
"70 532 OFFCURVE",
"30 497 OFFCURVE",
"30 437 CURVE SMOOTH",
"30 371 OFFCURVE",
"79 326 OFFCURVE",
"158 326 CURVE SMOOTH",
"187 326 OFFCURVE",
"211 332 OFFCURVE",
"231 345 CURVE"
);
},
{
closed = 1;
nodes = (
"217 451 LINE SMOOTH",
"217 430 OFFCURVE",
"204 405 OFFCURVE",
"172 405 CURVE SMOOTH",
"150 405 OFFCURVE",
"133 417 OFFCURVE",
"133 437 CURVE SMOOTH",
"133 456 OFFCURVE",
"147 469 OFFCURVE",
"172 469 CURVE SMOOTH",
"217 469 LINE"
);
}
);
width = 369;
}
);
leftKerningGroup = _ord;
rightKerningGroup = _ord;
unicode = 00AA;
},
{
glyphname = guillemotleft;
layers = (
{
layerId = "49A649E9-A574-4B20-B218-33A3EC71A7EA";
paths = (
{
closed = 1;
nodes = (
"20 221 LINE",
"256 -60 LINE",
"375 40 LINE",
"223 221 LINE",
"375 402 LINE",
"256 502 LINE"
);
},
{
closed = 1;
nodes = (
"340 221 LINE",
"576 -60 LINE",
"695 40 LINE",
"543 221 LINE",
"695 402 LINE",
"576 502 LINE"
);
}
);
width = 725;
}
);
leftKerningGroup = guillemotleft_2nd;
rightKerningGroup = guillemotleft1_1st;
unicode = 00AB;
},
{
glyphname = logicalnot;
layers = (
{
hints = (
{
place = "{328, 160}";
type = Stem;
},
{
horizontal = 1;
place = "{219, 140}";
type = Stem;
},
{
horizontal = 1;
place = "{84, 21}";
target = up;
type = BottomGhost;
}
);
layerId = "49A649E9-A574-4B20-B218-33A3EC71A7EA";
paths = (
{
closed = 1;
nodes = (
"53 219 LINE",
"328 219 LINE",
"328 84 LINE",
"488 84 LINE",
"488 359 LINE",
"53 359 LINE"
);
}
);
width = 540;
}
);
unicode = 00AC;
},
{
glyphname = registered;
layers = (
{
hints = (
{
place = "{30, 107}";
type = Stem;
},
{
place = "{231, 101}";
type = Stem;
},
{
place = "{423, 102}";
type = Stem;
},
{
place = "{597, 106}";
type = Stem;
},
{
horizontal = 1;
place = "{-2, 89}";
type = Stem;
},
{
horizontal = 1;
place = "{427, 73}";
type = Stem;
},
{
horizontal = 1;
place = "{549, 89}";
type = Stem;
}
);
layerId = "49A649E9-A574-4B20-B218-33A3EC71A7EA";
paths = (
{
closed = 1;
nodes = (
"585 -2 OFFCURVE",
"703 119 OFFCURVE",
"703 314 CURVE SMOOTH",
"703 518 OFFCURVE",
"574 638 OFFCURVE",
"361 638 CURVE SMOOTH",
"148 638 OFFCURVE",
"30 517 OFFCURVE",
"30 319 CURVE SMOOTH",
"30 118 OFFCURVE",
"152 -2 OFFCURVE",
"368 -2 CURVE SMOOTH"
);
},
{
closed = 1;
nodes = (
"222 87 OFFCURVE",
"137 173 OFFCURVE",
"137 317 CURVE SMOOTH",
"137 459 OFFCURVE",
"221 549 OFFCURVE",
"368 549 CURVE SMOOTH",
"516 549 OFFCURVE",
"597 459 OFFCURVE",
"597 319 CURVE SMOOTH",
"597 182 OFFCURVE",
"519 87 OFFCURVE",
"367 87 CURVE SMOOTH"
);
},
{
closed = 1;
nodes = (
"231 155 LINE",
"332 155 LINE",
"332 269 LINE",
"463 129 LINE",
"530 196 LINE",
"441 267 LINE",
"494 283 OFFCURVE",
"525 324 OFFCURVE",
"525 379 CURVE SMOOTH",
"525 455 OFFCURVE",
"466 500 OFFCURVE",
"376 500 CURVE SMOOTH",
"317 500 OFFCURVE",
"263 481 OFFCURVE",
"231 460 CURVE"
);
},
{
closed = 1;
nodes = (
"333 416 LINE",
"345 422 OFFCURVE",
"358 427 OFFCURVE",
"375 427 CURVE SMOOTH",
"410 427 OFFCURVE",
"423 407 OFFCURVE",
"423 375 CURVE SMOOTH",
"423 344 OFFCURVE",
"410 321 OFFCURVE",
"379 321 CURVE SMOOTH",
"350 321 OFFCURVE",
"333 340 OFFCURVE",
"333 374 CURVE SMOOTH"
);
}
);
width = 733;
}
);
leftKerningGroup = copyright_2nd;
rightKerningGroup = copyright1_1st;
unicode = 00AE;
},
{
glyphname = macron;
layers = (
{
hints = (
{
horizontal = 1;
place = "{558, 140}";
type = Stem;
}
);
layerId = "49A649E9-A574-4B20-B218-33A3EC71A7EA";
paths = (
{
closed = 1;
nodes = (
"30 558 LINE",
"380 558 LINE",
"380 698 LINE",
"30 698 LINE"
);
}
);
width = 410;
}
);
unicode = 00AF;
},
{
glyphname = degree;
layers = (
{
hints = (
{
place = "{20, 118}";
type = Stem;
},
{
place = "{231, 118}";
type = Stem;
},
{
horizontal = 1;
place = "{363, 95}";
type = Stem;
},
{
horizontal = 1;
place = "{564, 96}";
type = Stem;
}
);
layerId = "49A649E9-A574-4B20-B218-33A3EC71A7EA";
paths = (
{
closed = 1;
nodes = (
"20 426 OFFCURVE",
"80 363 OFFCURVE",
"181 363 CURVE SMOOTH",
"282 363 OFFCURVE",
"349 426 OFFCURVE",
"349 514 CURVE SMOOTH",
"349 599 OFFCURVE",
"287 660 OFFCURVE",
"185 660 CURVE SMOOTH",
"84 660 OFFCURVE",
"20 599 OFFCURVE",
"20 511 CURVE SMOOTH"
);
},
{
closed = 1;
nodes = (
"138 546 OFFCURVE",
"159 564 OFFCURVE",
"185 564 CURVE SMOOTH",
"214 564 OFFCURVE",
"231 543 OFFCURVE",
"231 512 CURVE SMOOTH",
"231 478 OFFCURVE",
"211 458 OFFCURVE",
"183 458 CURVE SMOOTH",
"155 458 OFFCURVE",
"138 478 OFFCURVE",
"138 510 CURVE SMOOTH"
);
}
);
width = 369;
}
);
unicode = 00B0;
},
{
glyphname = plusminus;
layers = (
{
hints = (
{
place = "{197, 154}";
type = Stem;
},
{
horizontal = 1;
place = "{-52, 130}";
type = Stem;
},
{
horizontal = 1;
place = "{324, 134}";
type = Stem;
},
{
horizontal = 1;
place = "{626, -20}";
target = down;
type = TopGhost;
}
);
layerId = "49A649E9-A574-4B20-B218-33A3EC71A7EA";
paths = (
{
closed = 1;
nodes = (
"197 152 LINE",
"351 152 LINE",
"351 324 LINE",
"509 324 LINE",
"509 458 LINE",
"351 458 LINE",
"351 626 LINE",
"197 626 LINE",
"197 458 LINE",
"30 458 LINE",
"30 324 LINE",
"197 324 LINE"
);
},
{
closed = 1;
nodes = (
"31 -52 LINE",
"510 -52 LINE",
"510 78 LINE",
"31 78 LINE"
);
}
);
width = 540;
}
);
unicode = 00B1;
},
{
glyphname = twosuperior;
layers = (
{
hints = (
{
place = "{166, 95}";
type = Stem;
},
{
horizontal = 1;
place = "{320, 70}";
type = Stem;
},
{
horizontal = 1;
place = "{573, 70}";
type = Stem;
}
);
layerId = "49A649E9-A574-4B20-B218-33A3EC71A7EA";
paths = (
{
closed = 1;
nodes = (
"36 320 LINE",
"265 320 LINE",
"265 390 LINE",
"164 390 LINE",
"164 392 LINE",
"206 431 LINE SMOOTH",
"245 467 OFFCURVE",
"261 502 OFFCURVE",
"261 538 CURVE SMOOTH",
"261 595 OFFCURVE",
"221 643 OFFCURVE",
"134 643 CURVE SMOOTH",
"98 643 OFFCURVE",
"58 635 OFFCURVE",
"30 617 CURVE",
"53 556 LINE",
"71 567 OFFCURVE",
"88 573 OFFCURVE",
"108 573 CURVE SMOOTH",
"147 573 OFFCURVE",
"166 549 OFFCURVE",
"166 522 CURVE SMOOTH",
"166 501 OFFCURVE",
"154 475 OFFCURVE",
"104 433 CURVE SMOOTH",
"36 376 LINE"
);
}
);
width = 295;
}
);
unicode = 00B2;
},
{
glyphname = threesuperior;
layers = (
{
hints = (
{
place = "{185, 95}";
type = Stem;
},
{
place = "{177, 94}";
type = Stem;
},
{
horizontal = 1;
place = "{313, 73}";
type = Stem;
},
{
horizontal = 1;
place = "{448, 66}";
type = Stem;
},
{
horizontal = 1;
place = "{571, 72}";
type = Stem;
}
);
layerId = "49A649E9-A574-4B20-B218-33A3EC71A7EA";
paths = (
{
closed = 1;
nodes = (
"20 349 LINE",
"50 324 OFFCURVE",
"97 313 OFFCURVE",
"144 313 CURVE SMOOTH",
"230 313 OFFCURVE",
"280 351 OFFCURVE",
"280 410 CURVE SMOOTH",
"280 440 OFFCURVE",
"267 468 OFFCURVE",
"232 484 CURVE",
"256 495 OFFCURVE",
"271 524 OFFCURVE",
"271 554 CURVE SMOOTH",
"271 609 OFFCURVE",
"219 643 OFFCURVE",
"145 643 CURVE SMOOTH",
"105 643 OFFCURVE",
"60 633 OFFCURVE",
"34 618 CURVE",
"59 556 LINE",
"76 564 OFFCURVE",
"100 571 OFFCURVE",
"128 571 CURVE SMOOTH",
"159 571 OFFCURVE",
"177 563 OFFCURVE",
"177 542 CURVE SMOOTH",
"177 529 OFFCURVE",
"169 514 OFFCURVE",
"141 514 CURVE SMOOTH",
"77 514 LINE",
"77 448 LINE",
"141 448 LINE SMOOTH",
"173 448 OFFCURVE",
"185 435 OFFCURVE",
"185 416 CURVE SMOOTH",
"185 396 OFFCURVE",
"172 386 OFFCURVE",
"137 386 CURVE SMOOTH",
"104 386 OFFCURVE",
"71 395 OFFCURVE",
"54 408 CURVE"
);
}
);
width = 310;
}
);
rightKerningGroup = threesuperior_1st;
unicode = 00B3;
},
{
glyphname = acute;
layers = (
{
layerId = "49A649E9-A574-4B20-B218-33A3EC71A7EA";
paths = (
{
closed = 1;
nodes = (
"65 536 LINE",
"326 669 LINE",
"255 792 LINE",
"5 636 LINE"
);
}
);
width = 331;
}
);
unicode = 00B4;
},
{
glyphname = mu;
layers = (
{
hints = (
{
place = "{50, 160}";
type = Stem;
},
{
place = "{385, 160}";
type = Stem;
},
{
horizontal = 1;
place = "{0, 137}";
type = Stem;
},
{
horizontal = 1;
place = "{-179, 21}";
target = up;
type = BottomGhost;
},
{
horizontal = 1;
place = "{512, -20}";
target = down;
type = TopGhost;
}
);
layerId = "49A649E9-A574-4B20-B218-33A3EC71A7EA";
paths = (
{
closed = 1;
nodes = (
"50 -179 LINE",
"210 -179 LINE",
"210 32 LINE",
"241 12 OFFCURVE",
"281 0 OFFCURVE",
"337 0 CURVE SMOOTH",
"480 0 OFFCURVE",
"545 79 OFFCURVE",
"545 216 CURVE SMOOTH",
"545 512 LINE",
"385 512 LINE",
"385 229 LINE SMOOTH",
"385 169 OFFCURVE",
"351 137 OFFCURVE",
"297 137 CURVE SMOOTH",
"243 137 OFFCURVE",
"210 169 OFFCURVE",
"210 229 CURVE SMOOTH",
"210 512 LINE",
"50 512 LINE"
);
}
);
width = 595;
}
);
unicode = 03BC;
},
{
glyphname = paragraph;
layers = (
{
hints = (
{
place = "{229, 110}";
type = Stem;
},
{
place = "{399, 140}";
type = Stem;
},
{
horizontal = 1;
place = "{489, 128}";
type = Stem;
},
{
horizontal = 1;
place = "{-78, 21}";
target = up;
type = BottomGhost;
}
);
layerId = "49A649E9-A574-4B20-B218-33A3EC71A7EA";
paths = (
{
closed = 1;
nodes = (
"10 564 OFFCURVE",
"120 617 OFFCURVE",
"247 617 CURVE SMOOTH",
"539 617 LINE SMOOTH",
"590 617 OFFCURVE",
"616 640 OFFCURVE",
"636 675 CURVE",
"722 617 LINE",
"700 541 OFFCURVE",
"644 489 OFFCURVE",
"539 489 CURVE",
"539 -78 LINE",
"399 -78 LINE",
"399 490 LINE",
"339 490 LINE",
"339 -78 LINE",
"229 -78 LINE",
"229 251 LINE",
"112 257 OFFCURVE",
"10 308 OFFCURVE",
"10 434 CURVE SMOOTH"
);
}
);
width = 622;
}
);
unicode = 00B6;
},
{
glyphname = periodcentered;
layers = (
{
hints = (
{
place = "{20, 191}";
type = Stem;
},
{
horizontal = 1;
place = "{208, 186}";
type = Stem;
}
);
layerId = "49A649E9-A574-4B20-B218-33A3EC71A7EA";
paths = (
{
closed = 1;
nodes = (
"172 208 OFFCURVE",
"211 248 OFFCURVE",
"211 300 CURVE SMOOTH",
"211 353 OFFCURVE",
"172 394 OFFCURVE",
"115 394 CURVE SMOOTH",
"58 394 OFFCURVE",
"20 353 OFFCURVE",
"20 300 CURVE SMOOTH",
"20 248 OFFCURVE",
"58 208 OFFCURVE",
"115 208 CURVE SMOOTH"
);
}
);
width = 231;
}
);
leftKerningGroup = periodcentered_2nd;
rightKerningGroup = periodcentered1_1st;
unicode = 00B7;
},
{
glyphname = cedilla;
layers = (
{
hints = (
{
place = "{133, 130}";
type = Stem;
},
{
horizontal = 1;
place = "{-205, 102}";
type = Stem;
}
);
layerId = "49A649E9-A574-4B20-B218-33A3EC71A7EA";
paths = (
{
closed = 1;
nodes = (
"20 -182 LINE",
"48 -199 OFFCURVE",
"79 -205 OFFCURVE",
"110 -205 CURVE SMOOTH",
"208 -205 OFFCURVE",
"263 -145 OFFCURVE",
"263 -69 CURVE SMOOTH",
"263 -17 OFFCURVE",
"238 24 OFFCURVE",
"200 48 CURVE",
"112 5 LINE",
"125 -7 OFFCURVE",
"133 -29 OFFCURVE",
"133 -49 CURVE SMOOTH",
"133 -80 OFFCURVE",
"114 -103 OFFCURVE",
"78 -103 CURVE SMOOTH",
"68 -103 OFFCURVE",
"55 -101 OFFCURVE",
"43 -96 CURVE"
);
}
);
width = 283;
}
);
unicode = 00B8;
},
{
glyphname = onesuperior;
layers = (
{
hints = (
{
place = "{105, 90}";
type = Stem;
},
{
horizontal = 1;
place = "{319, 21}";
target = up;
type = BottomGhost;
},
{
horizontal = 1;
place = "{636, -20}";
target = down;
type = TopGhost;
}
);
layerId = "49A649E9-A574-4B20-B218-33A3EC71A7EA";
paths = (
{
closed = 1;
nodes = (
"195 319 LINE",
"195 636 LINE",
"113 636 LINE",
"10 588 LINE",
"50 513 LINE",
"105 541 LINE",
"105 319 LINE"
);
}
);
width = 225;
}
);
unicode = 00B9;
},
{
glyphname = ordmasculine;
layers = (
{
hints = (
{
place = "{30, 113}";
type = Stem;
},
{
place = "{257, 113}";
type = Stem;
},
{
horizontal = 1;
place = "{321, 86}";
type = Stem;
},
{
horizontal = 1;
place = "{570, 86}";
type = Stem;
}
);
layerId = "49A649E9-A574-4B20-B218-33A3EC71A7EA";
paths = (
{
closed = 1;
nodes = (
"30 385 OFFCURVE",
"98 321 OFFCURVE",
"201 321 CURVE SMOOTH",
"302 321 OFFCURVE",
"370 382 OFFCURVE",
"370 486 CURVE SMOOTH",
"370 591 OFFCURVE",
"302 656 OFFCURVE",
"200 656 CURVE SMOOTH",
"98 656 OFFCURVE",
"30 592 OFFCURVE",
"30 488 CURVE SMOOTH"
);
},
{
closed = 1;
nodes = (
"165 407 OFFCURVE",
"143 436 OFFCURVE",
"143 489 CURVE SMOOTH",
"143 541 OFFCURVE",
"164 570 OFFCURVE",
"200 570 CURVE SMOOTH",
"236 570 OFFCURVE",
"257 541 OFFCURVE",
"257 489 CURVE SMOOTH",
"257 438 OFFCURVE",
"236 407 OFFCURVE",
"200 407 CURVE SMOOTH"
);
}
);
width = 400;
}
);
leftKerningGroup = _ord;
rightKerningGroup = _ord;
unicode = 00BA;
},
{
glyphname = guillemotright;
layers = (
{
layerId = "49A649E9-A574-4B20-B218-33A3EC71A7EA";
paths = (
{
closed = 1;
nodes = (
"30 40 LINE",
"149 -60 LINE",
"385 221 LINE",
"149 502 LINE",
"30 402 LINE",
"182 221 LINE"
);
},
{
closed = 1;
nodes = (
"350 40 LINE",
"469 -60 LINE",
"705 221 LINE",
"469 502 LINE",
"350 402 LINE",
"502 221 LINE"
);
}
);
width = 725;
}
);
unicode = 00BB;
},
{
glyphname = onequarter;
layers = (
{
hints = (
{
place = "{105, 90}";
type = Stem;
},
{
place = "{457, 90}";
type = Stem;
},
{
horizontal = 1;
place = "{52, 70}";
type = Stem;
},
{
horizontal = 1;
place = "{0, 21}";
target = up;
type = BottomGhost;
},
{
horizontal = 1;
place = "{636, -20}";
target = down;
type = TopGhost;
}
);
layerId = "49A649E9-A574-4B20-B218-33A3EC71A7EA";
paths = (
{
closed = 1;
nodes = (
"45 13 LINE",
"107 -32 LINE",
"565 623 LINE",
"503 668 LINE"
);
},
{
closed = 1;
nodes = (
"195 319 LINE",
"195 636 LINE",
"113 636 LINE",
"10 588 LINE",
"50 513 LINE",
"105 541 LINE",
"105 319 LINE"
);
},
{
closed = 1;
nodes = (
"346 52 LINE",
"457 52 LINE",
"457 0 LINE",
"547 0 LINE",
"547 52 LINE",
"589 52 LINE",
"589 122 LINE",
"547 122 LINE",
"547 317 LINE",
"437 317 LINE",
"322 118 LINE"
);
},
{
closed = 1;
nodes = (
"404 122 LINE",
"455 222 LINE",
"457 222 LINE",
"457 122 LINE"
);
}
);
width = 609;
}
);
unicode = 00BC;
},
{
glyphname = onehalf;
layers = (
{
hints = (
{
place = "{105, 90}";
type = Stem;
},
{
place = "{514, 95}";
type = Stem;
},
{
horizontal = 1;
place = "{0, 70}";
type = Stem;
},
{
horizontal = 1;
place = "{253, 70}";
type = Stem;
},
{
horizontal = 1;
place = "{636, -20}";
target = down;
type = TopGhost;
}
);
layerId = "49A649E9-A574-4B20-B218-33A3EC71A7EA";
paths = (
{
closed = 1;
nodes = (
"37 13 LINE",
"99 -32 LINE",
"557 623 LINE",
"495 668 LINE"
);
},
{
closed = 1;
nodes = (
"195 319 LINE",
"195 636 LINE",
"113 636 LINE",
"10 588 LINE",
"50 513 LINE",
"105 541 LINE",
"105 319 LINE"
);
},
{
closed = 1;
nodes = (
"384 0 LINE",
"613 0 LINE",
"613 70 LINE",
"512 70 LINE",
"512 72 LINE",
"554 111 LINE SMOOTH",
"593 147 OFFCURVE",
"609 182 OFFCURVE",
"609 218 CURVE SMOOTH",
"609 275 OFFCURVE",
"569 323 OFFCURVE",
"482 323 CURVE SMOOTH",
"446 323 OFFCURVE",
"406 315 OFFCURVE",
"378 297 CURVE",
"401 236 LINE",
"419 247 OFFCURVE",
"436 253 OFFCURVE",
"456 253 CURVE SMOOTH",
"495 253 OFFCURVE",
"514 229 OFFCURVE",
"514 202 CURVE SMOOTH",
"514 181 OFFCURVE",
"502 155 OFFCURVE",
"452 113 CURVE SMOOTH",
"384 56 LINE"
);
}
);
width = 633;
}
);
unicode = 00BD;
},
{
glyphname = threequarters;
layers = (
{
hints = (
{
horizontal = 1;
place = "{52, 70}";
type = Stem;
},
{
horizontal = 1;
place = "{313, 73}";
type = Stem;
},
{
horizontal = 1;
place = "{448, 66}";
type = Stem;
},
{
horizontal = 1;
place = "{571, 72}";
type = Stem;
},
{
horizontal = 1;
place = "{0, 21}";
target = up;
type = BottomGhost;
}
);
layerId = "49A649E9-A574-4B20-B218-33A3EC71A7EA";
paths = (
{
closed = 1;
nodes = (
"91 13 LINE",
"153 -32 LINE",
"611 623 LINE",
"549 668 LINE"
);
},
{
closed = 1;
nodes = (
"10 349 LINE",
"40 324 OFFCURVE",
"87 313 OFFCURVE",
"134 313 CURVE SMOOTH",
"220 313 OFFCURVE",
"270 351 OFFCURVE",
"270 410 CURVE SMOOTH",
"270 440 OFFCURVE",
"257 468 OFFCURVE",
"222 484 CURVE",
"246 495 OFFCURVE",
"261 524 OFFCURVE",
"261 554 CURVE SMOOTH",
"261 609 OFFCURVE",
"209 643 OFFCURVE",
"135 643 CURVE SMOOTH",
"95 643 OFFCURVE",
"50 633 OFFCURVE",
"24 618 CURVE",
"49 556 LINE",
"66 564 OFFCURVE",
"90 571 OFFCURVE",
"118 571 CURVE SMOOTH",
"149 571 OFFCURVE",
"167 563 OFFCURVE",
"167 542 CURVE SMOOTH",
"167 529 OFFCURVE",
"159 514 OFFCURVE",
"131 514 CURVE SMOOTH",
"67 514 LINE",
"67 448 LINE",
"131 448 LINE SMOOTH",
"163 448 OFFCURVE",
"175 435 OFFCURVE",
"175 416 CURVE SMOOTH",
"175 396 OFFCURVE",
"162 386 OFFCURVE",
"127 386 CURVE SMOOTH",
"94 386 OFFCURVE",
"61 395 OFFCURVE",
"44 408 CURVE"
);
},
{
closed = 1;
nodes = (
"399 52 LINE",
"510 52 LINE",
"510 0 LINE",
"600 0 LINE",
"600 52 LINE",
"642 52 LINE",
"642 122 LINE",
"600 122 LINE",
"600 317 LINE",
"490 317 LINE",
"375 118 LINE"
);
},
{
closed = 1;
nodes = (
"457 122 LINE",
"508 222 LINE",
"510 222 LINE",
"510 122 LINE"
);
}
);
width = 662;
}
);
unicode = 00BE;
},
{
glyphname = questiondown;
layers = (
{
hints = (
{
place = "{10, 170}";
type = Stem;
},
{
place = "{194, 187}";
type = Stem;
},
{
place = "{218, 141}";
type = Stem;
},
{
horizontal = 1;
place = "{-181, 131}";
type = Stem;
},
{
horizontal = 1;
place = "{355, 182}";
type = Stem;
}
);
layerId = "49A649E9-A574-4B20-B218-33A3EC71A7EA";
paths = (
{
closed = 1;
nodes = (
"344 355 OFFCURVE",
"381 395 OFFCURVE",
"381 446 CURVE SMOOTH",
"381 498 OFFCURVE",
"344 537 OFFCURVE",
"288 537 CURVE SMOOTH",
"232 537 OFFCURVE",
"194 498 OFFCURVE",
"194 446 CURVE SMOOTH",
"194 395 OFFCURVE",
"232 355 OFFCURVE",
"288 355 CURVE SMOOTH"
);
},
{
closed = 1;
nodes = (
"118 152 LINE SMOOTH",
"61 109 OFFCURVE",
"10 59 OFFCURVE",
"10 -19 CURVE SMOOTH",
"10 -117 OFFCURVE",
"89 -181 OFFCURVE",
"228 -181 CURVE SMOOTH",
"330 -181 OFFCURVE",
"423 -147 OFFCURVE",
"470 -106 CURVE",
"419 0 LINE",
"367 -33 OFFCURVE",
"308 -50 OFFCURVE",
"263 -50 CURVE SMOOTH",
"213 -50 OFFCURVE",
"180 -29 OFFCURVE",
"180 2 CURVE SMOOTH",
"180 25 OFFCURVE",
"198 45 OFFCURVE",
"230 66 CURVE SMOOTH",
"271 93 LINE SMOOTH",
"340 138 OFFCURVE",
"359 197 OFFCURVE",
"359 269 CURVE SMOOTH",
"359 310 LINE",
"218 310 LINE",
"218 271 LINE SMOOTH",
"218 242 OFFCURVE",
"205 218 OFFCURVE",
"178 197 CURVE SMOOTH"
);
}
);
width = 480;
}
);
unicode = 00BF;
},
{
glyphname = Agrave;
layers = (
{
hints = (
{
horizontal = 1;
place = "{126, 140}";
type = Stem;
},
{
horizontal = 1;
place = "{637, -20}";
target = down;
type = TopGhost;
},
{
horizontal = 1;
place = "{0, 21}";
target = up;
type = BottomGhost;
}
);
layerId = "49A649E9-A574-4B20-B218-33A3EC71A7EA";
paths = (
{
closed = 1;
nodes = (
"133 797 LINE",
"384 670 LINE",
"444 770 LINE",
"204 920 LINE"
);
},
{
closed = 1;
nodes = (
"40 0 LINE",
"227 0 LINE",
"265 126 LINE",
"445 126 LINE",
"483 0 LINE",
"666 0 LINE",
"463 637 LINE",
"260 637 LINE"
);
},
{
closed = 1;
nodes = (
"303 266 LINE",
"360 449 LINE",
"364 449 LINE",
"417 266 LINE"
);
}
);
width = 706;
}
);
leftKerningGroup = A_2nd;
rightKerningGroup = A1_1st;
unicode = 00C0;
},
{
glyphname = Aacute;
layers = (
{
hints = (
{
horizontal = 1;
place = "{126, 140}";
type = Stem;
},
{
horizontal = 1;
place = "{637, -20}";
target = down;
type = TopGhost;
},
{
horizontal = 1;
place = "{0, 21}";
target = up;
type = BottomGhost;
}
);
layerId = "49A649E9-A574-4B20-B218-33A3EC71A7EA";
paths = (
{
closed = 1;
nodes = (
"594 797 LINE",
"523 920 LINE",
"283 770 LINE",
"343 670 LINE"
);
},
{
closed = 1;
nodes = (
"40 0 LINE",
"227 0 LINE",
"265 126 LINE",
"445 126 LINE",
"483 0 LINE",
"666 0 LINE",
"463 637 LINE",
"260 637 LINE"
);
},
{
closed = 1;
nodes = (
"303 266 LINE",
"360 449 LINE",
"364 449 LINE",
"417 266 LINE"
);
}
);
width = 706;
}
);
leftKerningGroup = A_2nd;
rightKerningGroup = A1_1st;
unicode = 00C1;
},
{
glyphname = Acircumflex;
layers = (
{
hints = (
{
horizontal = 1;
place = "{126, 140}";
type = Stem;
},
{
horizontal = 1;
place = "{637, -20}";
target = down;
type = TopGhost;
},
{
horizontal = 1;
place = "{0, 21}";
target = up;
type = BottomGhost;
},
{
horizontal = 1;
place = "{891, -20}";
target = down;
type = TopGhost;
}
);
layerId = "49A649E9-A574-4B20-B218-33A3EC71A7EA";
paths = (
{
closed = 1;
nodes = (
"229 668 LINE",
"360 786 LINE",
"490 669 LINE",
"585 765 LINE",
"424 891 LINE",
"294 891 LINE",
"133 765 LINE"
);
},
{
closed = 1;
nodes = (
"40 0 LINE",
"227 0 LINE",
"265 126 LINE",
"445 126 LINE",
"483 0 LINE",
"666 0 LINE",
"463 637 LINE",
"260 637 LINE"
);
},
{
closed = 1;
nodes = (
"303 266 LINE",
"360 449 LINE",
"364 449 LINE",
"417 266 LINE"
);
}
);
width = 706;
}
);
leftKerningGroup = A_2nd;
rightKerningGroup = A1_1st;
unicode = 00C2;
},
{
glyphname = Atilde;
layers = (
{
hints = (
{
horizontal = 1;
place = "{126, 140}";
type = Stem;
},
{
horizontal = 1;
place = "{696, 117}";
type = Stem;
},
{
horizontal = 1;
place = "{725, 117}";
type = Stem;
},
{
horizontal = 1;
place = "{637, -20}";
target = down;
type = TopGhost;
},
{
horizontal = 1;
place = "{0, 21}";
target = up;
type = BottomGhost;
}
);
layerId = "49A649E9-A574-4B20-B218-33A3EC71A7EA";
paths = (
{
closed = 1;
nodes = (
"509 857 LINE",
"494 832 OFFCURVE",
"463 813 OFFCURVE",
"424 813 CURVE SMOOTH",
"400 813 OFFCURVE",
"371 820 OFFCURVE",
"347 826 CURVE SMOOTH",
"318 834 OFFCURVE",
"287 842 OFFCURVE",
"257 842 CURVE SMOOTH",
"185 842 OFFCURVE",
"133 796 OFFCURVE",
"115 737 CURVE",
"198 681 LINE",
"213 706 OFFCURVE",
"244 725 OFFCURVE",
"284 725 CURVE SMOOTH",
"303 725 OFFCURVE",
"325 721 OFFCURVE",
"372 709 CURVE SMOOTH",
"393 703 OFFCURVE",
"421 696 OFFCURVE",
"449 696 CURVE SMOOTH",
"521 696 OFFCURVE",
"574 742 OFFCURVE",
"592 801 CURVE"
);
},
{
closed = 1;
nodes = (
"40 0 LINE",
"227 0 LINE",
"265 126 LINE",
"445 126 LINE",
"483 0 LINE",
"666 0 LINE",
"463 637 LINE",
"260 637 LINE"
);
},
{
closed = 1;
nodes = (
"303 266 LINE",
"360 449 LINE",
"364 449 LINE",
"417 266 LINE"
);
}
);
width = 706;
}
);
leftKerningGroup = A_2nd;
rightKerningGroup = A1_1st;
unicode = 00C3;
},
{
glyphname = Adieresis;
layers = (
{
hints = (
{
place = "{174, 180}";
type = Stem;
},
{
place = "{395, 180}";
type = Stem;
},
{
horizontal = 1;
place = "{126, 140}";
type = Stem;
},
{
horizontal = 1;
place = "{700, 174}";
type = Stem;
},
{
horizontal = 1;
place = "{637, -20}";
target = down;
type = TopGhost;
},
{
horizontal = 1;
place = "{0, 21}";
target = up;
type = BottomGhost;
}
);
layerId = "49A649E9-A574-4B20-B218-33A3EC71A7EA";
paths = (
{
closed = 1;
nodes = (
"318 700 OFFCURVE",
"354 738 OFFCURVE",
"354 787 CURVE SMOOTH",
"354 836 OFFCURVE",
"318 874 OFFCURVE",
"264 874 CURVE SMOOTH",
"210 874 OFFCURVE",
"174 836 OFFCURVE",
"174 787 CURVE SMOOTH",
"174 738 OFFCURVE",
"210 700 OFFCURVE",
"264 700 CURVE SMOOTH"
);
},
{
closed = 1;
nodes = (
"539 700 OFFCURVE",
"575 738 OFFCURVE",
"575 787 CURVE SMOOTH",
"575 836 OFFCURVE",
"539 874 OFFCURVE",
"485 874 CURVE SMOOTH",
"431 874 OFFCURVE",
"395 836 OFFCURVE",
"395 787 CURVE SMOOTH",
"395 738 OFFCURVE",
"431 700 OFFCURVE",
"485 700 CURVE SMOOTH"
);
},
{
closed = 1;
nodes = (
"40 0 LINE",
"227 0 LINE",
"265 126 LINE",
"445 126 LINE",
"483 0 LINE",
"666 0 LINE",
"463 637 LINE",
"260 637 LINE"
);
},
{
closed = 1;
nodes = (
"303 266 LINE",
"360 449 LINE",
"364 449 LINE",
"417 266 LINE"
);
}
);
width = 706;
}
);
leftKerningGroup = A_2nd;
rightKerningGroup = A1_1st;
unicode = 00C4;
},
{
glyphname = Aring;
layers = (
{
hints = (
{
place = "{223, 93}";
type = Stem;
},
{
place = "{402, 93}";
type = Stem;
},
{
horizontal = 1;
place = "{832, 77}";
type = Stem;
},
{
horizontal = 1;
place = "{670, 76}";
type = Stem;
},
{
horizontal = 1;
place = "{126, 140}";
type = Stem;
},
{
horizontal = 1;
place = "{637, -20}";
target = down;
type = TopGhost;
},
{
horizontal = 1;
place = "{0, 21}";
target = up;
type = BottomGhost;
}
);
layerId = "49A649E9-A574-4B20-B218-33A3EC71A7EA";
paths = (
{
closed = 1;
nodes = (
"223 706 OFFCURVE",
"286 670 OFFCURVE",
"362 670 CURVE SMOOTH",
"438 670 OFFCURVE",
"495 706 OFFCURVE",
"495 788 CURVE SMOOTH",
"495 870 OFFCURVE",
"437 909 OFFCURVE",
"359 909 CURVE SMOOTH",
"282 909 OFFCURVE",
"223 869 OFFCURVE",
"223 789 CURVE SMOOTH"
);
},
{
closed = 1;
nodes = (
"337 746 OFFCURVE",
"316 761 OFFCURVE",
"316 790 CURVE SMOOTH",
"316 817 OFFCURVE",
"334 832 OFFCURVE",
"359 832 CURVE SMOOTH",
"383 832 OFFCURVE",
"402 819 OFFCURVE",
"402 789 CURVE SMOOTH",
"402 760 OFFCURVE",
"384 746 OFFCURVE",
"361 746 CURVE SMOOTH"
);
},
{
closed = 1;
nodes = (
"40 0 LINE",
"227 0 LINE",
"265 126 LINE",
"445 126 LINE",
"483 0 LINE",
"666 0 LINE",
"463 637 LINE",
"260 637 LINE"
);
},
{
closed = 1;
nodes = (
"303 266 LINE",
"360 449 LINE",
"364 449 LINE",
"417 266 LINE"
);
}
);
width = 706;
}
);
leftKerningGroup = A_2nd;
rightKerningGroup = A1_1st;
unicode = 00C5;
},
{
glyphname = AE;
layers = (
{
hints = (
{
place = "{440, 170}";
type = Stem;
},
{
horizontal = 1;
place = "{0, 130}";
type = Stem;
},
{
horizontal = 1;
place = "{125, 141}";
type = Stem;
},
{
horizontal = 1;
place = "{260, 128}";
type = Stem;
},
{
horizontal = 1;
place = "{507, 129}";
type = Stem;
}
);
layerId = "49A649E9-A574-4B20-B218-33A3EC71A7EA";
paths = (
{
closed = 1;
nodes = (
"884 0 LINE",
"884 130 LINE",
"610 130 LINE",
"610 260 LINE",
"839 260 LINE",
"839 388 LINE",
"610 388 LINE",
"610 507 LINE",
"878 507 LINE",
"878 636 LINE",
"308 636 LINE",
"40 -1 LINE",
"232 -1 LINE",
"282 125 LINE",
"440 125 LINE",
"440 0 LINE"
);
},
{
closed = 1;
nodes = (
"436 509 LINE",
"440 509 LINE",
"440 266 LINE",
"339 266 LINE"
);
}
);
width = 924;
}
);
unicode = 00C6;
},
{
glyphname = Ccedilla;
layers = (
{
guideLines = (
{
position = "{0, -202}";
}
);
hints = (
{
place = "{40, 180}";
type = Stem;
},
{
place = "{287, 130}";
type = Stem;
},
{
horizontal = 1;
place = "{-192, 102}";
type = Stem;
},
{
horizontal = 1;
place = "{495, 145}";
type = Stem;
}
);
layerId = "49A649E9-A574-4B20-B218-33A3EC71A7EA";
paths = (
{
closed = 1;
nodes = (
"541 186 LINE",
"504 160 OFFCURVE",
"451 141 OFFCURVE",
"394 141 CURVE SMOOTH",
"291 141 OFFCURVE",
"220 203 OFFCURVE",
"220 320 CURVE SMOOTH",
"220 427 OFFCURVE",
"279 495 OFFCURVE",
"383 495 CURVE SMOOTH",
"427 495 OFFCURVE",
"480 483 OFFCURVE",
"512 463 CURVE",
"557 589 LINE",
"496 625 OFFCURVE",
"422 640 OFFCURVE",
"350 640 CURVE SMOOTH",
"144 640 OFFCURVE",
"40 517 OFFCURVE",
"40 323 CURVE SMOOTH",
"40 139 OFFCURVE",
"133 33 OFFCURVE",
"277 4 CURVE",
"283 -8 OFFCURVE",
"287 -23 OFFCURVE",
"287 -36 CURVE SMOOTH",
"287 -67 OFFCURVE",
"268 -90 OFFCURVE",
"232 -90 CURVE SMOOTH",
"222 -90 OFFCURVE",
"209 -88 OFFCURVE",
"197 -83 CURVE",
"174 -169 LINE",
"202 -186 OFFCURVE",
"233 -192 OFFCURVE",
"264 -192 CURVE SMOOTH",
"362 -192 OFFCURVE",
"417 -132 OFFCURVE",
"417 -56 CURVE SMOOTH",
"417 -36 OFFCURVE",
"414 -18 OFFCURVE",
"407 -2 CURVE",
"495 7 OFFCURVE",
"551 41 OFFCURVE",
"593 74 CURVE"
);
}
);
width = 633;
}
);
leftKerningGroup = C_2nd;
rightKerningGroup = C1_1st;
unicode = 00C7;
},
{
glyphname = Egrave;
layers = (
{
hints = (
{
place = "{50, 170}";
type = Stem;
},
{
horizontal = 1;
place = "{0, 130}";
type = Stem;
},
{
horizontal = 1;
place = "{258, 130}";
type = Stem;
},
{
horizontal = 1;
place = "{506, 130}";
type = Stem;
}
);
layerId = "49A649E9-A574-4B20-B218-33A3EC71A7EA";
paths = (
{
closed = 1;
nodes = (
"132 798 LINE",
"383 671 LINE",
"443 771 LINE",
"203 921 LINE"
);
},
{
closed = 1;
nodes = (
"50 0 LINE",
"514 0 LINE",
"514 130 LINE",
"220 130 LINE",
"220 258 LINE",
"469 258 LINE",
"469 388 LINE",
"220 388 LINE",
"220 506 LINE",
"508 506 LINE",
"508 636 LINE",
"50 636 LINE"
);
}
);
width = 554;
}
);
leftKerningGroup = B_2nd;
rightKerningGroup = E_1st;
unicode = 00C8;
},
{
glyphname = Eacute;
layers = (
{
hints = (
{
place = "{50, 170}";
type = Stem;
},
{
horizontal = 1;
place = "{0, 130}";
type = Stem;
},
{
horizontal = 1;
place = "{258, 130}";
type = Stem;
},
{
horizontal = 1;
place = "{506, 130}";
type = Stem;
}
);
layerId = "49A649E9-A574-4B20-B218-33A3EC71A7EA";
paths = (
{
closed = 1;
nodes = (
"431 797 LINE",
"360 920 LINE",
"120 770 LINE",
"180 670 LINE"
);
},
{
closed = 1;
nodes = (
"50 0 LINE",
"514 0 LINE",
"514 130 LINE",
"220 130 LINE",
"220 258 LINE",
"469 258 LINE",
"469 388 LINE",
"220 388 LINE",
"220 506 LINE",
"508 506 LINE",
"508 636 LINE",
"50 636 LINE"
);
}
);
width = 554;
}
);
leftKerningGroup = B_2nd;
rightKerningGroup = E_1st;
unicode = 00C9;
},
{
glyphname = Ecircumflex;
layers = (
{
hints = (
{
place = "{50, 170}";
type = Stem;
},
{
horizontal = 1;
place = "{0, 130}";
type = Stem;
},
{
horizontal = 1;
place = "{258, 130}";
type = Stem;
},
{
horizontal = 1;
place = "{506, 130}";
type = Stem;
},
{
horizontal = 1;
place = "{891, -20}";
target = down;
type = TopGhost;
}
);
layerId = "49A649E9-A574-4B20-B218-33A3EC71A7EA";
paths = (
{
closed = 1;
nodes = (
"152 668 LINE",
"283 786 LINE",
"413 669 LINE",
"508 765 LINE",
"347 891 LINE",
"217 891 LINE",
"56 765 LINE"
);
},
{
closed = 1;
nodes = (
"50 0 LINE",
"514 0 LINE",
"514 130 LINE",
"220 130 LINE",
"220 258 LINE",
"469 258 LINE",
"469 388 LINE",
"220 388 LINE",
"220 506 LINE",
"508 506 LINE",
"508 636 LINE",
"50 636 LINE"
);
}
);
width = 554;
}
);
leftKerningGroup = B_2nd;
rightKerningGroup = E_1st;
unicode = 00CA;
},
{
glyphname = Edieresis;
layers = (
{
hints = (
{
place = "{50, 170}";
type = Stem;
},
{
place = "{94, 180}";
type = Stem;
},
{
place = "{315, 180}";
type = Stem;
},
{
horizontal = 1;
place = "{0, 130}";
type = Stem;
},
{
horizontal = 1;
place = "{258, 130}";
type = Stem;
},
{
horizontal = 1;
place = "{506, 130}";
type = Stem;
},
{
horizontal = 1;
place = "{700, 174}";
type = Stem;
}
);
layerId = "49A649E9-A574-4B20-B218-33A3EC71A7EA";
paths = (
{
closed = 1;
nodes = (
"238 700 OFFCURVE",
"274 738 OFFCURVE",
"274 787 CURVE SMOOTH",
"274 836 OFFCURVE",
"238 874 OFFCURVE",
"184 874 CURVE SMOOTH",
"130 874 OFFCURVE",
"94 836 OFFCURVE",
"94 787 CURVE SMOOTH",
"94 738 OFFCURVE",
"130 700 OFFCURVE",
"184 700 CURVE SMOOTH"
);
},
{
closed = 1;
nodes = (
"459 700 OFFCURVE",
"495 738 OFFCURVE",
"495 787 CURVE SMOOTH",
"495 836 OFFCURVE",
"459 874 OFFCURVE",
"405 874 CURVE SMOOTH",
"351 874 OFFCURVE",
"315 836 OFFCURVE",
"315 787 CURVE SMOOTH",
"315 738 OFFCURVE",
"351 700 OFFCURVE",
"405 700 CURVE SMOOTH"
);
},
{
closed = 1;
nodes = (
"50 0 LINE",
"514 0 LINE",
"514 130 LINE",
"220 130 LINE",
"220 258 LINE",
"469 258 LINE",
"469 388 LINE",
"220 388 LINE",
"220 506 LINE",
"508 506 LINE",
"508 636 LINE",
"50 636 LINE"
);
}
);
width = 554;
}
);
leftKerningGroup = B_2nd;
rightKerningGroup = E_1st;
unicode = 00CB;
},
{
glyphname = Igrave;
layers = (
{
hints = (
{
place = "{191, 170}";
type = Stem;
},
{
horizontal = 1;
place = "{0, 21}";
target = up;
type = BottomGhost;
},
{
horizontal = 1;
place = "{636, -20}";
target = down;
type = TopGhost;
}
);
layerId = "49A649E9-A574-4B20-B218-33A3EC71A7EA";
paths = (
{
closed = 1;
nodes = (
"50 797 LINE",
"301 670 LINE",
"361 770 LINE",
"121 920 LINE"
);
},
{
closed = 1;
nodes = (
"191 0 LINE",
"361 0 LINE",
"361 636 LINE",
"191 636 LINE"
);
}
);
width = 411;
}
);
leftKerningGroup = B_2nd;
rightKerningGroup = H_1st;
unicode = 00CC;
},
{
glyphname = Iacute;
layers = (
{
hints = (
{
place = "{50, 170}";
type = Stem;
},
{
horizontal = 1;
place = "{0, 21}";
target = up;
type = BottomGhost;
},
{
horizontal = 1;
place = "{636, -20}";
target = down;
type = TopGhost;
}
);
layerId = "49A649E9-A574-4B20-B218-33A3EC71A7EA";
paths = (
{
closed = 1;
nodes = (
"361 797 LINE",
"290 920 LINE",
"50 770 LINE",
"110 670 LINE"
);
},
{
closed = 1;
nodes = (
"50 0 LINE",
"220 0 LINE",
"220 636 LINE",
"50 636 LINE"
);
}
);
width = 270;
}
);
leftKerningGroup = B_2nd;
rightKerningGroup = H_1st;
unicode = 00CD;
},
{
glyphname = Icircumflex;
layers = (
{
hints = (
{
place = "{51, 170}";
type = Stem;
},
{
horizontal = 1;
place = "{636, -20}";
target = down;
type = TopGhost;
},
{
horizontal = 1;
place = "{0, 21}";
target = up;
type = BottomGhost;
},
{
horizontal = 1;
place = "{905, -20}";
target = down;
type = TopGhost;
}
);
layerId = "49A649E9-A574-4B20-B218-33A3EC71A7EA";
paths = (
{
closed = 1;
nodes = (
"6 669 LINE",
"-90 765 LINE",
"71 905 LINE",
"201 905 LINE",
"362 765 LINE",
"267 670 LINE",
"137 800 LINE"
);
},
{
closed = 1;
nodes = (
"51 0 LINE",
"51 636 LINE",
"221 636 LINE",
"221 0 LINE"
);
}
);
width = 272;
}
);
leftKerningGroup = B_2nd;
rightKerningGroup = H_1st;
unicode = 00CE;
},
{
glyphname = Idieresis;
layers = (
{
hints = (
{
place = "{-51, 180}";
type = Stem;
},
{
place = "{50, 170}";
type = Stem;
},
{
place = "{170, 180}";
type = Stem;
},
{
horizontal = 1;
place = "{697, 174}";
type = Stem;
},
{
horizontal = 1;
place = "{0, 21}";
target = up;
type = BottomGhost;
},
{
horizontal = 1;
place = "{636, -20}";
target = down;
type = TopGhost;
}
);
layerId = "49A649E9-A574-4B20-B218-33A3EC71A7EA";
paths = (
{
closed = 1;
nodes = (
"93 697 OFFCURVE",
"129 735 OFFCURVE",
"129 784 CURVE SMOOTH",
"129 833 OFFCURVE",
"93 871 OFFCURVE",
"39 871 CURVE SMOOTH",
"-15 871 OFFCURVE",
"-51 833 OFFCURVE",
"-51 784 CURVE SMOOTH",
"-51 735 OFFCURVE",
"-15 697 OFFCURVE",
"39 697 CURVE SMOOTH"
);
},
{
closed = 1;
nodes = (
"314 697 OFFCURVE",
"350 735 OFFCURVE",
"350 784 CURVE SMOOTH",
"350 833 OFFCURVE",
"314 871 OFFCURVE",
"260 871 CURVE SMOOTH",
"206 871 OFFCURVE",
"170 833 OFFCURVE",
"170 784 CURVE SMOOTH",
"170 735 OFFCURVE",
"206 697 OFFCURVE",
"260 697 CURVE SMOOTH"
);
},
{
closed = 1;
nodes = (
"50 0 LINE",
"220 0 LINE",
"220 636 LINE",
"50 636 LINE"
);
}
);
width = 270;
}
);
leftKerningGroup = B_2nd;
rightKerningGroup = H_1st;
unicode = 00CF;
},
{
glyphname = Eth;
layers = (
{
hints = (
{
place = "{120, 172}";
type = Stem;
},
{
place = "{544, 182}";
type = Stem;
},
{
horizontal = 1;
place = "{0, 130}";
type = Stem;
},
{
horizontal = 1;
place = "{243, 140}";
type = Stem;
},
{
horizontal = 1;
place = "{502, 138}";
type = Stem;
}
);
layerId = "49A649E9-A574-4B20-B218-33A3EC71A7EA";
paths = (
{
closed = 1;
nodes = (
"30 383 LINE",
"30 243 LINE",
"120 243 LINE",
"120 0 LINE",
"360 0 LINE SMOOTH",
"588 0 OFFCURVE",
"726 101 OFFCURVE",
"726 313 CURVE SMOOTH",
"726 535 OFFCURVE",
"575 640 OFFCURVE",
"356 640 CURVE SMOOTH",
"270 640 OFFCURVE",
"183 624 OFFCURVE",
"120 601 CURVE",
"120 383 LINE"
);
},
{
closed = 1;
nodes = (
"292 383 LINE",
"292 495 LINE",
"310 500 OFFCURVE",
"331 502 OFFCURVE",
"352 502 CURVE SMOOTH",
"471 502 OFFCURVE",
"544 435 OFFCURVE",
"544 308 CURVE SMOOTH",
"544 182 OFFCURVE",
"472 130 OFFCURVE",
"361 130 CURVE SMOOTH",
"292 130 LINE",
"292 243 LINE",
"422 243 LINE",
"422 383 LINE"
);
}
);
width = 766;
}
);
leftKerningGroup = Eth_2nd;
rightKerningGroup = Eth1_1st;
unicode = 00D0;
},
{
glyphname = Ntilde;
layers = (
{
hints = (
{
place = "{50, 170}";
type = Stem;
},
{
place = "{450, 170}";
type = Stem;
},
{
horizontal = 1;
place = "{696, 117}";
type = Stem;
},
{
horizontal = 1;
place = "{725, 117}";
type = Stem;
},
{
horizontal = 1;
place = "{0, 21}";
target = up;
type = BottomGhost;
},
{
horizontal = 1;
place = "{636, -20}";
target = down;
type = TopGhost;
}
);
layerId = "49A649E9-A574-4B20-B218-33A3EC71A7EA";
paths = (
{
closed = 1;
nodes = (
"496 857 LINE",
"481 832 OFFCURVE",
"450 813 OFFCURVE",
"411 813 CURVE SMOOTH",
"387 813 OFFCURVE",
"358 820 OFFCURVE",
"334 826 CURVE SMOOTH",
"305 834 OFFCURVE",
"274 842 OFFCURVE",
"244 842 CURVE SMOOTH",
"172 842 OFFCURVE",
"120 796 OFFCURVE",
"102 737 CURVE",
"185 681 LINE",
"200 706 OFFCURVE",
"231 725 OFFCURVE",
"271 725 CURVE SMOOTH",
"290 725 OFFCURVE",
"312 721 OFFCURVE",
"359 709 CURVE SMOOTH",
"380 703 OFFCURVE",
"408 696 OFFCURVE",
"436 696 CURVE SMOOTH",
"508 696 OFFCURVE",
"561 742 OFFCURVE",
"579 801 CURVE"
);
},
{
closed = 1;
nodes = (
"50 0 LINE",
"220 0 LINE",
"220 377 LINE",
"426 0 LINE",
"620 0 LINE",
"620 636 LINE",
"450 636 LINE",
"450 244 LINE",
"239 636 LINE",
"50 636 LINE"
);
}
);
width = 670;
}
);
leftKerningGroup = B_2nd;
rightKerningGroup = H_1st;
unicode = 00D1;
},
{
glyphname = Ograve;
layers = (
{
hints = (
{
place = "{40, 176}";
type = Stem;
},
{
place = "{502, 176}";
type = Stem;
},
{
horizontal = 1;
place = "{-4, 144}";
type = Stem;
},
{
horizontal = 1;
place = "{496, 144}";
type = Stem;
}
);
layerId = "49A649E9-A574-4B20-B218-33A3EC71A7EA";
paths = (
{
closed = 1;
nodes = (
"200 797 LINE",
"451 670 LINE",
"511 770 LINE",
"271 920 LINE"
);
},
{
closed = 1;
nodes = (
"40 117 OFFCURVE",
"163 -4 OFFCURVE",
"363 -4 CURVE SMOOTH",
"563 -4 OFFCURVE",
"678 117 OFFCURVE",
"678 317 CURVE SMOOTH",
"678 517 OFFCURVE",
"563 640 OFFCURVE",
"363 640 CURVE SMOOTH",
"163 640 OFFCURVE",
"40 517 OFFCURVE",
"40 317 CURVE SMOOTH"
);
},
{
closed = 1;
nodes = (
"272 140 OFFCURVE",
"216 200 OFFCURVE",
"216 316 CURVE SMOOTH",
"216 432 OFFCURVE",
"272 496 OFFCURVE",
"363 496 CURVE SMOOTH",
"453 496 OFFCURVE",
"502 432 OFFCURVE",
"502 316 CURVE SMOOTH",
"502 200 OFFCURVE",
"453 140 OFFCURVE",
"363 140 CURVE SMOOTH"
);
}
);
width = 718;
}
);
leftKerningGroup = O_2nd;
rightKerningGroup = O1_1st;
unicode = 00D2;
},
{
glyphname = Oacute;
layers = (
{
hints = (
{
place = "{40, 176}";
type = Stem;
},
{
place = "{502, 176}";
type = Stem;
},
{
horizontal = 1;
place = "{-4, 144}";
type = Stem;
},
{
horizontal = 1;
place = "{496, 144}";
type = Stem;
}
);
layerId = "49A649E9-A574-4B20-B218-33A3EC71A7EA";
paths = (
{
closed = 1;
nodes = (
"535 797 LINE",
"464 920 LINE",
"224 770 LINE",
"284 670 LINE"
);
},
{
closed = 1;
nodes = (
"40 117 OFFCURVE",
"163 -4 OFFCURVE",
"363 -4 CURVE SMOOTH",
"563 -4 OFFCURVE",
"678 117 OFFCURVE",
"678 317 CURVE SMOOTH",
"678 517 OFFCURVE",
"563 640 OFFCURVE",
"363 640 CURVE SMOOTH",
"163 640 OFFCURVE",
"40 517 OFFCURVE",
"40 317 CURVE SMOOTH"
);
},
{
closed = 1;
nodes = (
"272 140 OFFCURVE",
"216 200 OFFCURVE",
"216 316 CURVE SMOOTH",
"216 432 OFFCURVE",
"272 496 OFFCURVE",
"363 496 CURVE SMOOTH",
"453 496 OFFCURVE",
"502 432 OFFCURVE",
"502 316 CURVE SMOOTH",
"502 200 OFFCURVE",
"453 140 OFFCURVE",
"363 140 CURVE SMOOTH"
);
}
);
width = 718;
}
);
leftKerningGroup = O_2nd;
rightKerningGroup = O1_1st;
unicode = 00D3;
},
{
glyphname = Ocircumflex;
layers = (
{
hints = (
{
place = "{40, 176}";
type = Stem;
},
{
place = "{502, 176}";
type = Stem;
},
{
horizontal = 1;
place = "{-4, 144}";
type = Stem;
},
{
horizontal = 1;
place = "{496, 144}";
type = Stem;
},
{
horizontal = 1;
place = "{891, -20}";
target = down;
type = TopGhost;
}
);
layerId = "49A649E9-A574-4B20-B218-33A3EC71A7EA";
paths = (
{
closed = 1;
nodes = (
"224 668 LINE",
"355 786 LINE",
"485 669 LINE",
"580 765 LINE",
"419 891 LINE",
"289 891 LINE",
"128 765 LINE"
);
},
{
closed = 1;
nodes = (
"40 117 OFFCURVE",
"163 -4 OFFCURVE",
"363 -4 CURVE SMOOTH",
"563 -4 OFFCURVE",
"678 117 OFFCURVE",
"678 317 CURVE SMOOTH",
"678 517 OFFCURVE",
"563 640 OFFCURVE",
"363 640 CURVE SMOOTH",
"163 640 OFFCURVE",
"40 517 OFFCURVE",
"40 317 CURVE SMOOTH"
);
},
{
closed = 1;
nodes = (
"272 140 OFFCURVE",
"216 200 OFFCURVE",
"216 316 CURVE SMOOTH",
"216 432 OFFCURVE",
"272 496 OFFCURVE",
"363 496 CURVE SMOOTH",
"453 496 OFFCURVE",
"502 432 OFFCURVE",
"502 316 CURVE SMOOTH",
"502 200 OFFCURVE",
"453 140 OFFCURVE",
"363 140 CURVE SMOOTH"
);
}
);
width = 718;
}
);
leftKerningGroup = O_2nd;
rightKerningGroup = O1_1st;
unicode = 00D4;
},
{
glyphname = Otilde;
layers = (
{
hints = (
{
place = "{40, 176}";
type = Stem;
},
{
place = "{502, 176}";
type = Stem;
},
{
horizontal = 1;
place = "{-4, 144}";
type = Stem;
},
{
horizontal = 1;
place = "{496, 144}";
type = Stem;
},
{
horizontal = 1;
place = "{696, 117}";
type = Stem;
},
{
horizontal = 1;
place = "{725, 117}";
type = Stem;
}
);
layerId = "49A649E9-A574-4B20-B218-33A3EC71A7EA";
paths = (
{
closed = 1;
nodes = (
"509 857 LINE",
"494 832 OFFCURVE",
"463 813 OFFCURVE",
"424 813 CURVE SMOOTH",
"400 813 OFFCURVE",
"371 820 OFFCURVE",
"347 826 CURVE SMOOTH",
"318 834 OFFCURVE",
"287 842 OFFCURVE",
"257 842 CURVE SMOOTH",
"185 842 OFFCURVE",
"133 796 OFFCURVE",
"115 737 CURVE",
"198 681 LINE",
"213 706 OFFCURVE",
"244 725 OFFCURVE",
"284 725 CURVE SMOOTH",
"303 725 OFFCURVE",
"325 721 OFFCURVE",
"372 709 CURVE SMOOTH",
"393 703 OFFCURVE",
"421 696 OFFCURVE",
"449 696 CURVE SMOOTH",
"521 696 OFFCURVE",
"574 742 OFFCURVE",
"592 801 CURVE"
);
},
{
closed = 1;
nodes = (
"40 117 OFFCURVE",
"163 -4 OFFCURVE",
"363 -4 CURVE SMOOTH",
"563 -4 OFFCURVE",
"678 117 OFFCURVE",
"678 317 CURVE SMOOTH",
"678 517 OFFCURVE",
"563 640 OFFCURVE",
"363 640 CURVE SMOOTH",
"163 640 OFFCURVE",
"40 517 OFFCURVE",
"40 317 CURVE SMOOTH"
);
},
{
closed = 1;
nodes = (
"272 140 OFFCURVE",
"216 200 OFFCURVE",
"216 316 CURVE SMOOTH",
"216 432 OFFCURVE",
"272 496 OFFCURVE",
"363 496 CURVE SMOOTH",
"453 496 OFFCURVE",
"502 432 OFFCURVE",
"502 316 CURVE SMOOTH",
"502 200 OFFCURVE",
"453 140 OFFCURVE",
"363 140 CURVE SMOOTH"
);
}
);
width = 718;
}
);
leftKerningGroup = O_2nd;
rightKerningGroup = O1_1st;
unicode = 00D5;
},
{
glyphname = Odieresis;
layers = (
{
hints = (
{
place = "{40, 176}";
type = Stem;
},
{
place = "{165, 180}";
type = Stem;
},
{
place = "{386, 180}";
type = Stem;
},
{
place = "{502, 176}";
type = Stem;
},
{
horizontal = 1;
place = "{-4, 144}";
type = Stem;
},
{
horizontal = 1;
place = "{496, 144}";
type = Stem;
},
{
horizontal = 1;
place = "{697, 174}";
type = Stem;
}
);
layerId = "49A649E9-A574-4B20-B218-33A3EC71A7EA";
paths = (
{
closed = 1;
nodes = (
"309 697 OFFCURVE",
"345 735 OFFCURVE",
"345 784 CURVE SMOOTH",
"345 833 OFFCURVE",
"309 871 OFFCURVE",
"255 871 CURVE SMOOTH",
"201 871 OFFCURVE",
"165 833 OFFCURVE",
"165 784 CURVE SMOOTH",
"165 735 OFFCURVE",
"201 697 OFFCURVE",
"255 697 CURVE SMOOTH"
);
},
{
closed = 1;
nodes = (
"530 697 OFFCURVE",
"566 735 OFFCURVE",
"566 784 CURVE SMOOTH",
"566 833 OFFCURVE",
"530 871 OFFCURVE",
"476 871 CURVE SMOOTH",
"422 871 OFFCURVE",
"386 833 OFFCURVE",
"386 784 CURVE SMOOTH",
"386 735 OFFCURVE",
"422 697 OFFCURVE",
"476 697 CURVE SMOOTH"
);
},
{
closed = 1;
nodes = (
"40 117 OFFCURVE",
"163 -4 OFFCURVE",
"363 -4 CURVE SMOOTH",
"563 -4 OFFCURVE",
"678 117 OFFCURVE",
"678 317 CURVE SMOOTH",
"678 517 OFFCURVE",
"563 640 OFFCURVE",
"363 640 CURVE SMOOTH",
"163 640 OFFCURVE",
"40 517 OFFCURVE",
"40 317 CURVE SMOOTH"
);
},
{
closed = 1;
nodes = (
"272 140 OFFCURVE",
"216 200 OFFCURVE",
"216 316 CURVE SMOOTH",
"216 432 OFFCURVE",
"272 496 OFFCURVE",
"363 496 CURVE SMOOTH",
"453 496 OFFCURVE",
"502 432 OFFCURVE",
"502 316 CURVE SMOOTH",
"502 200 OFFCURVE",
"453 140 OFFCURVE",
"363 140 CURVE SMOOTH"
);
}
);
width = 718;
}
);
leftKerningGroup = O_2nd;
rightKerningGroup = O1_1st;
unicode = 00D6;
},
{
glyphname = multiply;
layers = (
{
layerId = "49A649E9-A574-4B20-B218-33A3EC71A7EA";
paths = (
{
closed = 1;
nodes = (
"30 142 LINE",
"134 38 LINE",
"271 183 LINE",
"413 41 LINE",
"512 140 LINE",
"371 276 LINE",
"511 411 LINE",
"408 514 LINE",
"268 369 LINE",
"128 509 LINE",
"31 412 LINE",
"173 276 LINE"
);
}
);
width = 540;
}
);
unicode = 00D7;
},
{
glyphname = Oslash;
layers = (
{
hints = (
{
place = "{40, 176}";
type = Stem;
},
{
place = "{502, 176}";
type = Stem;
},
{
horizontal = 1;
place = "{-4, 144}";
type = Stem;
},
{
horizontal = 1;
place = "{496, 144}";
type = Stem;
}
);
layerId = "49A649E9-A574-4B20-B218-33A3EC71A7EA";
paths = (
{
closed = 1;
nodes = (
"141 -49 LINE",
"262 -98 LINE",
"301 0 LINE",
"321 -3 OFFCURVE",
"341 -4 OFFCURVE",
"360 -4 CURVE SMOOTH",
"563 -4 OFFCURVE",
"678 117 OFFCURVE",
"678 317 CURVE SMOOTH",
"678 448 OFFCURVE",
"628 546 OFFCURVE",
"538 598 CURVE",
"572 685 LINE",
"451 734 LINE",
"413 637 LINE",
"397 639 OFFCURVE",
"380 640 OFFCURVE",
"363 640 CURVE SMOOTH",
"163 640 OFFCURVE",
"40 517 OFFCURVE",
"40 317 CURVE SMOOTH",
"40 190 OFFCURVE",
"90 95 OFFCURVE",
"177 42 CURVE"
);
},
{
closed = 1;
nodes = (
"241 204 LINE",
"225 233 OFFCURVE",
"216 270 OFFCURVE",
"216 316 CURVE SMOOTH",
"216 429 OFFCURVE",
"269 493 OFFCURVE",
"357 496 CURVE"
);
},
{
closed = 1;
nodes = (
"474 438 LINE",
"493 408 OFFCURVE",
"502 367 OFFCURVE",
"502 316 CURVE SMOOTH",
"502 215 OFFCURVE",
"467 140 OFFCURVE",
"356 140 CURVE"
);
}
);
width = 718;
}
);
unicode = 00D8;
},
{
glyphname = Ugrave;
layers = (
{
hints = (
{
place = "{50, 170}";
type = Stem;
},
{
place = "{410, 170}";
type = Stem;
},
{
horizontal = 1;
place = "{-6, 141}";
type = Stem;
},
{
horizontal = 1;
place = "{636, -20}";
target = down;
type = TopGhost;
}
);
layerId = "49A649E9-A574-4B20-B218-33A3EC71A7EA";
paths = (
{
closed = 1;
nodes = (
"70 797 LINE",
"321 670 LINE",
"381 770 LINE",
"141 920 LINE"
);
},
{
closed = 1;
nodes = (
"50 234 LINE SMOOTH",
"50 79 OFFCURVE",
"137 -6 OFFCURVE",
"315 -6 CURVE SMOOTH",
"493 -6 OFFCURVE",
"580 79 OFFCURVE",
"580 234 CURVE SMOOTH",
"580 636 LINE",
"410 636 LINE",
"410 237 LINE SMOOTH",
"410 169 OFFCURVE",
"379 135 OFFCURVE",
"317 135 CURVE SMOOTH",
"256 135 OFFCURVE",
"220 169 OFFCURVE",
"220 237 CURVE SMOOTH",
"220 636 LINE",
"50 636 LINE"
);
}
);
width = 630;
}
);
leftKerningGroup = U_2nd;
rightKerningGroup = U1_1st;
unicode = 00D9;
},
{
glyphname = Uacute;
layers = (
{
hints = (
{
place = "{50, 170}";
type = Stem;
},
{
place = "{410, 170}";
type = Stem;
},
{
horizontal = 1;
place = "{-6, 141}";
type = Stem;
},
{
horizontal = 1;
place = "{636, -20}";
target = down;
type = TopGhost;
}
);
layerId = "49A649E9-A574-4B20-B218-33A3EC71A7EA";
paths = (
{
closed = 1;
nodes = (
"572 797 LINE",
"501 920 LINE",
"261 770 LINE",
"321 670 LINE"
);
},
{
closed = 1;
nodes = (
"50 234 LINE SMOOTH",
"50 79 OFFCURVE",
"137 -6 OFFCURVE",
"315 -6 CURVE SMOOTH",
"493 -6 OFFCURVE",
"580 79 OFFCURVE",
"580 234 CURVE SMOOTH",
"580 636 LINE",
"410 636 LINE",
"410 237 LINE SMOOTH",
"410 169 OFFCURVE",
"379 135 OFFCURVE",
"317 135 CURVE SMOOTH",
"256 135 OFFCURVE",
"220 169 OFFCURVE",
"220 237 CURVE SMOOTH",
"220 636 LINE",
"50 636 LINE"
);
}
);
width = 630;
}
);
leftKerningGroup = U_2nd;
rightKerningGroup = U1_1st;
unicode = 00DA;
},
{
glyphname = Ucircumflex;
layers = (
{
hints = (
{
place = "{50, 170}";
type = Stem;
},
{
place = "{410, 170}";
type = Stem;
},
{
horizontal = 1;
place = "{-6, 141}";
type = Stem;
},
{
horizontal = 1;
place = "{636, -20}";
target = down;
type = TopGhost;
},
{
horizontal = 1;
place = "{891, -20}";
target = down;
type = TopGhost;
}
);
layerId = "49A649E9-A574-4B20-B218-33A3EC71A7EA";
paths = (
{
closed = 1;
nodes = (
"187 668 LINE",
"318 786 LINE",
"448 669 LINE",
"543 765 LINE",
"382 891 LINE",
"252 891 LINE",
"91 765 LINE"
);
},
{
closed = 1;
nodes = (
"50 234 LINE SMOOTH",
"50 79 OFFCURVE",
"137 -6 OFFCURVE",
"315 -6 CURVE SMOOTH",
"493 -6 OFFCURVE",
"580 79 OFFCURVE",
"580 234 CURVE SMOOTH",
"580 636 LINE",
"410 636 LINE",
"410 237 LINE SMOOTH",
"410 169 OFFCURVE",
"379 135 OFFCURVE",
"317 135 CURVE SMOOTH",
"256 135 OFFCURVE",
"220 169 OFFCURVE",
"220 237 CURVE SMOOTH",
"220 636 LINE",
"50 636 LINE"
);
}
);
width = 630;
}
);
leftKerningGroup = U_2nd;
rightKerningGroup = U1_1st;
unicode = 00DB;
},
{
glyphname = Udieresis;
layers = (
{
hints = (
{
place = "{50, 170}";
type = Stem;
},
{
place = "{128, 180}";
type = Stem;
},
{
place = "{349, 180}";
type = Stem;
},
{
place = "{410, 170}";
type = Stem;
},
{
horizontal = 1;
place = "{-6, 141}";
type = Stem;
},
{
horizontal = 1;
place = "{697, 174}";
type = Stem;
},
{
horizontal = 1;
place = "{636, -20}";
target = down;
type = TopGhost;
}
);
layerId = "49A649E9-A574-4B20-B218-33A3EC71A7EA";
paths = (
{
closed = 1;
nodes = (
"272 697 OFFCURVE",
"308 735 OFFCURVE",
"308 784 CURVE SMOOTH",
"308 833 OFFCURVE",
"272 871 OFFCURVE",
"218 871 CURVE SMOOTH",
"164 871 OFFCURVE",
"128 833 OFFCURVE",
"128 784 CURVE SMOOTH",
"128 735 OFFCURVE",
"164 697 OFFCURVE",
"218 697 CURVE SMOOTH"
);
},
{
closed = 1;
nodes = (
"493 697 OFFCURVE",
"529 735 OFFCURVE",
"529 784 CURVE SMOOTH",
"529 833 OFFCURVE",
"493 871 OFFCURVE",
"439 871 CURVE SMOOTH",
"385 871 OFFCURVE",
"349 833 OFFCURVE",
"349 784 CURVE SMOOTH",
"349 735 OFFCURVE",
"385 697 OFFCURVE",
"439 697 CURVE SMOOTH"
);
},
{
closed = 1;
nodes = (
"50 234 LINE SMOOTH",
"50 79 OFFCURVE",
"137 -6 OFFCURVE",
"315 -6 CURVE SMOOTH",
"493 -6 OFFCURVE",
"580 79 OFFCURVE",
"580 234 CURVE SMOOTH",
"580 636 LINE",
"410 636 LINE",
"410 237 LINE SMOOTH",
"410 169 OFFCURVE",
"379 135 OFFCURVE",
"317 135 CURVE SMOOTH",
"256 135 OFFCURVE",
"220 169 OFFCURVE",
"220 237 CURVE SMOOTH",
"220 636 LINE",
"50 636 LINE"
);
}
);
width = 630;
}
);
leftKerningGroup = U_2nd;
rightKerningGroup = U1_1st;
unicode = 00DC;
},
{
glyphname = Yacute;
layers = (
{
hints = (
{
place = "{279, 191}";
type = Stem;
},
{
horizontal = 1;
place = "{636, -20}";
target = down;
type = TopGhost;
},
{
horizontal = 1;
place = "{0, 21}";
target = up;
type = BottomGhost;
}
);
layerId = "49A649E9-A574-4B20-B218-33A3EC71A7EA";
paths = (
{
closed = 1;
nodes = (
"616 797 LINE",
"545 920 LINE",
"305 770 LINE",
"365 670 LINE"
);
},
{
closed = 1;
nodes = (
"279 0 LINE",
"470 0 LINE",
"470 245 LINE",
"691 636 LINE",
"494 636 LINE",
"369 400 LINE",
"363 400 LINE",
"229 636 LINE",
"30 636 LINE",
"279 239 LINE"
);
}
);
width = 721;
}
);
leftKerningGroup = Y_2nd;
rightKerningGroup = Y1_1st;
unicode = 00DD;
},
{
glyphname = Thorn;
layers = (
{
hints = (
{
place = "{50, 169}";
type = Stem;
},
{
place = "{407, 170}";
type = Stem;
},
{
horizontal = 1;
place = "{82, 133}";
type = Stem;
},
{
horizontal = 1;
place = "{422, 132}";
type = Stem;
},
{
horizontal = 1;
place = "{636, -20}";
target = down;
type = TopGhost;
},
{
horizontal = 1;
place = "{0, 21}";
target = up;
type = BottomGhost;
}
);
layerId = "49A649E9-A574-4B20-B218-33A3EC71A7EA";
paths = (
{
closed = 1;
nodes = (
"50 0 LINE",
"219 0 LINE",
"219 97 LINE",
"254 88 OFFCURVE",
"291 82 OFFCURVE",
"330 82 CURVE SMOOTH",
"474 82 OFFCURVE",
"577 165 OFFCURVE",
"577 318 CURVE SMOOTH",
"577 471 OFFCURVE",
"474 554 OFFCURVE",
"330 554 CURVE SMOOTH",
"291 554 OFFCURVE",
"254 548 OFFCURVE",
"219 539 CURVE",
"219 636 LINE",
"50 636 LINE"
);
},
{
closed = 1;
nodes = (
"219 404 LINE",
"241 416 OFFCURVE",
"269 422 OFFCURVE",
"299 422 CURVE SMOOTH",
"374 422 OFFCURVE",
"407 384 OFFCURVE",
"407 319 CURVE SMOOTH",
"407 254 OFFCURVE",
"374 215 OFFCURVE",
"299 215 CURVE SMOOTH",
"269 215 OFFCURVE",
"241 221 OFFCURVE",
"219 233 CURVE"
);
}
);
width = 617;
}
);
leftKerningGroup = B_2nd;
unicode = 00DE;
},
{
glyphname = germandbls;
layers = (
{
hints = (
{
place = "{50, 160}";
type = Stem;
},
{
place = "{278, 167}";
type = Stem;
},
{
place = "{426, 168}";
type = Stem;
},
{
horizontal = 1;
place = "{-21, 123}";
type = Stem;
},
{
horizontal = 1;
place = "{531, 132}";
type = Stem;
},
{
horizontal = 1;
place = "{0, 21}";
target = up;
type = BottomGhost;
}
);
layerId = "49A649E9-A574-4B20-B218-33A3EC71A7EA";
paths = (
{
closed = 1;
nodes = (
"50 0 LINE",
"210 0 LINE",
"210 415 LINE SMOOTH",
"210 496 OFFCURVE",
"246 531 OFFCURVE",
"308 531 CURVE SMOOTH",
"370 531 OFFCURVE",
"400 497 OFFCURVE",
"408 465 CURVE",
"352 434 LINE SMOOTH",
"303 407 OFFCURVE",
"278 368 OFFCURVE",
"278 320 CURVE SMOOTH",
"278 258 OFFCURVE",
"321 221 OFFCURVE",
"374 186 CURVE SMOOTH",
"386 178 LINE SMOOTH",
"403 167 OFFCURVE",
"426 152 OFFCURVE",
"426 131 CURVE SMOOTH",
"426 113 OFFCURVE",
"412 102 OFFCURVE",
"376 102 CURVE SMOOTH",
"346 102 OFFCURVE",
"322 110 OFFCURVE",
"302 124 CURVE",
"263 17 LINE",
"293 -4 OFFCURVE",
"354 -21 OFFCURVE",
"410 -21 CURVE SMOOTH",
"500 -21 OFFCURVE",
"594 22 OFFCURVE",
"594 125 CURVE SMOOTH",
"594 188 OFFCURVE",
"558 229 OFFCURVE",
"496 273 CURVE SMOOTH",
"468 293 LINE SMOOTH",
"457 301 OFFCURVE",
"445 310 OFFCURVE",
"445 324 CURVE SMOOTH",
"445 338 OFFCURVE",
"457 347 OFFCURVE",
"473 355 CURVE SMOOTH",
"569 404 LINE",
"571 417 OFFCURVE",
"572 430 OFFCURVE",
"572 442 CURVE SMOOTH",
"572 563 OFFCURVE",
"478 663 OFFCURVE",
"304 663 CURVE SMOOTH",
"154 663 OFFCURVE",
"50 588 OFFCURVE",
"50 430 CURVE SMOOTH"
);
}
);
width = 634;
}
);
unicode = 00DF;
},
{
glyphname = agrave;
layers = (
{
hints = (
{
place = "{40, 160}";
type = Stem;
},
{
place = "{335, 159}";
type = Stem;
},
{
horizontal = 1;
place = "{-5, 124}";
type = Stem;
},
{
horizontal = 1;
place = "{221, 101}";
type = Stem;
},
{
horizontal = 1;
place = "{396, 122}";
type = Stem;
}
);
layerId = "49A649E9-A574-4B20-B218-33A3EC71A7EA";
paths = (
{
closed = 1;
nodes = (
"130 673 LINE",
"381 546 LINE",
"441 646 LINE",
"201 796 LINE"
);
},
{
closed = 1;
nodes = (
"417 -52 LINE",
"541 51 LINE",
"494 108 LINE",
"494 336 LINE SMOOTH",
"494 447 OFFCURVE",
"401 518 OFFCURVE",
"246 518 CURVE SMOOTH",
"183 518 OFFCURVE",
"118 506 OFFCURVE",
"67 478 CURVE",
"106 362 LINE",
"144 384 OFFCURVE",
"186 396 OFFCURVE",
"235 396 CURVE SMOOTH",
"299 396 OFFCURVE",
"335 376 OFFCURVE",
"335 338 CURVE SMOOTH",
"335 322 LINE",
"212 322 LINE SMOOTH",
"100 322 OFFCURVE",
"40 267 OFFCURVE",
"40 171 CURVE SMOOTH",
"40 66 OFFCURVE",
"113 -5 OFFCURVE",
"237 -5 CURVE SMOOTH",
"284 -5 OFFCURVE",
"323 5 OFFCURVE",
"354 24 CURVE"
);
},
{
closed = 1;
nodes = (
"336 193 LINE SMOOTH",
"336 159 OFFCURVE",
"312 119 OFFCURVE",
"262 119 CURVE SMOOTH",
"226 119 OFFCURVE",
"200 139 OFFCURVE",
"200 172 CURVE SMOOTH",
"200 202 OFFCURVE",
"221 221 OFFCURVE",
"262 221 CURVE SMOOTH",
"336 221 LINE"
);
}
);
width = 561;
}
);
leftKerningGroup = a_2nd;
rightKerningGroup = aring_1st;
unicode = 00E0;
},
{
glyphname = aacute;
layers = (
{
hints = (
{
place = "{40, 160}";
type = Stem;
},
{
place = "{335, 159}";
type = Stem;
},
{
horizontal = 1;
place = "{-5, 124}";
type = Stem;
},
{
horizontal = 1;
place = "{221, 101}";
type = Stem;
},
{
horizontal = 1;
place = "{396, 122}";
type = Stem;
}
);
layerId = "49A649E9-A574-4B20-B218-33A3EC71A7EA";
paths = (
{
closed = 1;
nodes = (
"430 673 LINE",
"359 796 LINE",
"119 646 LINE",
"179 546 LINE"
);
},
{
closed = 1;
nodes = (
"417 -52 LINE",
"541 51 LINE",
"494 108 LINE",
"494 336 LINE SMOOTH",
"494 447 OFFCURVE",
"401 518 OFFCURVE",
"246 518 CURVE SMOOTH",
"183 518 OFFCURVE",
"118 506 OFFCURVE",
"67 478 CURVE",
"106 362 LINE",
"144 384 OFFCURVE",
"186 396 OFFCURVE",
"235 396 CURVE SMOOTH",
"299 396 OFFCURVE",
"335 376 OFFCURVE",
"335 338 CURVE SMOOTH",
"335 322 LINE",
"212 322 LINE SMOOTH",
"100 322 OFFCURVE",
"40 267 OFFCURVE",
"40 171 CURVE SMOOTH",
"40 66 OFFCURVE",
"113 -5 OFFCURVE",
"237 -5 CURVE SMOOTH",
"284 -5 OFFCURVE",
"323 5 OFFCURVE",
"354 24 CURVE"
);
},
{
closed = 1;
nodes = (
"336 193 LINE SMOOTH",
"336 159 OFFCURVE",
"312 119 OFFCURVE",
"262 119 CURVE SMOOTH",
"226 119 OFFCURVE",
"200 139 OFFCURVE",
"200 172 CURVE SMOOTH",
"200 202 OFFCURVE",
"221 221 OFFCURVE",
"262 221 CURVE SMOOTH",
"336 221 LINE"
);
}
);
width = 561;
}
);
leftKerningGroup = a_2nd;
rightKerningGroup = aring_1st;
unicode = 00E1;
},
{
glyphname = acircumflex;
layers = (
{
hints = (
{
place = "{40, 160}";
type = Stem;
},
{
place = "{335, 159}";
type = Stem;
},
{
horizontal = 1;
place = "{-5, 124}";
type = Stem;
},
{
horizontal = 1;
place = "{221, 101}";
type = Stem;
},
{
horizontal = 1;
place = "{396, 122}";
type = Stem;
},
{
horizontal = 1;
place = "{767, -20}";
target = down;
type = TopGhost;
}
);
layerId = "49A649E9-A574-4B20-B218-33A3EC71A7EA";
paths = (
{
closed = 1;
nodes = (
"143 544 LINE",
"274 662 LINE",
"404 545 LINE",
"499 641 LINE",
"338 767 LINE",
"208 767 LINE",
"47 641 LINE"
);
},
{
closed = 1;
nodes = (
"417 -52 LINE",
"541 51 LINE",
"494 108 LINE",
"494 336 LINE SMOOTH",
"494 447 OFFCURVE",
"401 518 OFFCURVE",
"246 518 CURVE SMOOTH",
"183 518 OFFCURVE",
"118 506 OFFCURVE",
"67 478 CURVE",
"106 362 LINE",
"144 384 OFFCURVE",
"186 396 OFFCURVE",
"235 396 CURVE SMOOTH",
"299 396 OFFCURVE",
"335 376 OFFCURVE",
"335 338 CURVE SMOOTH",
"335 322 LINE",
"212 322 LINE SMOOTH",
"100 322 OFFCURVE",
"40 267 OFFCURVE",
"40 171 CURVE SMOOTH",
"40 66 OFFCURVE",
"113 -5 OFFCURVE",
"237 -5 CURVE SMOOTH",
"284 -5 OFFCURVE",
"323 5 OFFCURVE",
"354 24 CURVE"
);
},
{
closed = 1;
nodes = (
"336 193 LINE SMOOTH",
"336 159 OFFCURVE",
"312 119 OFFCURVE",
"262 119 CURVE SMOOTH",
"226 119 OFFCURVE",
"200 139 OFFCURVE",
"200 172 CURVE SMOOTH",
"200 202 OFFCURVE",
"221 221 OFFCURVE",
"262 221 CURVE SMOOTH",
"336 221 LINE"
);
}
);
width = 561;
}
);
leftKerningGroup = a_2nd;
rightKerningGroup = aring_1st;
unicode = 00E2;
},
{
glyphname = atilde;
layers = (
{
hints = (
{
place = "{40, 160}";
type = Stem;
},
{
place = "{335, 159}";
type = Stem;
},
{
horizontal = 1;
place = "{-5, 124}";
type = Stem;
},
{
horizontal = 1;
place = "{221, 101}";
type = Stem;
},
{
horizontal = 1;
place = "{396, 122}";
type = Stem;
},
{
horizontal = 1;
place = "{572, 117}";
type = Stem;
},
{
horizontal = 1;
place = "{601, 117}";
type = Stem;
}
);
layerId = "49A649E9-A574-4B20-B218-33A3EC71A7EA";
paths = (
{
closed = 1;
nodes = (
"428 733 LINE",
"413 708 OFFCURVE",
"382 689 OFFCURVE",
"343 689 CURVE SMOOTH",
"319 689 OFFCURVE",
"290 696 OFFCURVE",
"266 702 CURVE SMOOTH",
"237 710 OFFCURVE",
"206 718 OFFCURVE",
"176 718 CURVE SMOOTH",
"104 718 OFFCURVE",
"52 672 OFFCURVE",
"34 613 CURVE",
"117 557 LINE",
"132 582 OFFCURVE",
"163 601 OFFCURVE",
"203 601 CURVE SMOOTH",
"222 601 OFFCURVE",
"244 597 OFFCURVE",
"291 585 CURVE SMOOTH",
"312 579 OFFCURVE",
"340 572 OFFCURVE",
"368 572 CURVE SMOOTH",
"440 572 OFFCURVE",
"493 618 OFFCURVE",
"511 677 CURVE"
);
},
{
closed = 1;
nodes = (
"417 -52 LINE",
"541 51 LINE",
"494 108 LINE",
"494 336 LINE SMOOTH",
"494 447 OFFCURVE",
"401 518 OFFCURVE",
"246 518 CURVE SMOOTH",
"183 518 OFFCURVE",
"118 506 OFFCURVE",
"67 478 CURVE",
"106 362 LINE",
"144 384 OFFCURVE",
"186 396 OFFCURVE",
"235 396 CURVE SMOOTH",
"299 396 OFFCURVE",
"335 376 OFFCURVE",
"335 338 CURVE SMOOTH",
"335 322 LINE",
"212 322 LINE SMOOTH",
"100 322 OFFCURVE",
"40 267 OFFCURVE",
"40 171 CURVE SMOOTH",
"40 66 OFFCURVE",
"113 -5 OFFCURVE",
"237 -5 CURVE SMOOTH",
"284 -5 OFFCURVE",
"323 5 OFFCURVE",
"354 24 CURVE"
);
},
{
closed = 1;
nodes = (
"336 193 LINE SMOOTH",
"336 159 OFFCURVE",
"312 119 OFFCURVE",
"262 119 CURVE SMOOTH",
"226 119 OFFCURVE",
"200 139 OFFCURVE",
"200 172 CURVE SMOOTH",
"200 202 OFFCURVE",
"221 221 OFFCURVE",
"262 221 CURVE SMOOTH",
"336 221 LINE"
);
}
);
width = 561;
}
);
leftKerningGroup = a_2nd;
rightKerningGroup = aring_1st;
unicode = 00E3;
},
{
glyphname = adieresis;
layers = (
{
hints = (
{
place = "{40, 160}";
type = Stem;
},
{
place = "{91, 180}";
type = Stem;
},
{
place = "{312, 180}";
type = Stem;
},
{
place = "{335, 159}";
type = Stem;
},
{
horizontal = 1;
place = "{-5, 124}";
type = Stem;
},
{
horizontal = 1;
place = "{221, 101}";
type = Stem;
},
{
horizontal = 1;
place = "{396, 122}";
type = Stem;
},
{
horizontal = 1;
place = "{572, 174}";
type = Stem;
}
);
layerId = "49A649E9-A574-4B20-B218-33A3EC71A7EA";
paths = (
{
closed = 1;
nodes = (
"235 572 OFFCURVE",
"271 610 OFFCURVE",
"271 659 CURVE SMOOTH",
"271 708 OFFCURVE",
"235 746 OFFCURVE",
"181 746 CURVE SMOOTH",
"127 746 OFFCURVE",
"91 708 OFFCURVE",
"91 659 CURVE SMOOTH",
"91 610 OFFCURVE",
"127 572 OFFCURVE",
"181 572 CURVE SMOOTH"
);
},
{
closed = 1;
nodes = (
"456 572 OFFCURVE",
"492 610 OFFCURVE",
"492 659 CURVE SMOOTH",
"492 708 OFFCURVE",
"456 746 OFFCURVE",
"402 746 CURVE SMOOTH",
"348 746 OFFCURVE",
"312 708 OFFCURVE",
"312 659 CURVE SMOOTH",
"312 610 OFFCURVE",
"348 572 OFFCURVE",
"402 572 CURVE SMOOTH"
);
},
{
closed = 1;
nodes = (
"417 -52 LINE",
"541 51 LINE",
"494 108 LINE",
"494 336 LINE SMOOTH",
"494 447 OFFCURVE",
"401 518 OFFCURVE",
"246 518 CURVE SMOOTH",
"183 518 OFFCURVE",
"118 506 OFFCURVE",
"67 478 CURVE",
"106 362 LINE",
"144 384 OFFCURVE",
"186 396 OFFCURVE",
"235 396 CURVE SMOOTH",
"299 396 OFFCURVE",
"335 376 OFFCURVE",
"335 338 CURVE SMOOTH",
"335 322 LINE",
"212 322 LINE SMOOTH",
"100 322 OFFCURVE",
"40 267 OFFCURVE",
"40 171 CURVE SMOOTH",
"40 66 OFFCURVE",
"113 -5 OFFCURVE",
"237 -5 CURVE SMOOTH",
"284 -5 OFFCURVE",
"323 5 OFFCURVE",
"354 24 CURVE"
);
},
{
closed = 1;
nodes = (
"336 193 LINE SMOOTH",
"336 159 OFFCURVE",
"312 119 OFFCURVE",
"262 119 CURVE SMOOTH",
"226 119 OFFCURVE",
"200 139 OFFCURVE",
"200 172 CURVE SMOOTH",
"200 202 OFFCURVE",
"221 221 OFFCURVE",
"262 221 CURVE SMOOTH",
"336 221 LINE"
);
}
);
width = 561;
}
);
leftKerningGroup = a_2nd;
rightKerningGroup = aring_1st;
unicode = 00E4;
},
{
glyphname = aring;
layers = (
{
hints = (
{
place = "{30, 160}";
type = Stem;
},
{
place = "{146, 93}";
type = Stem;
},
{
place = "{325, 93}";
type = Stem;
},
{
place = "{325, 159}";
type = Stem;
},
{
horizontal = 1;
place = "{-5, 124}";
type = Stem;
},
{
horizontal = 1;
place = "{221, 101}";
type = Stem;
},
{
horizontal = 1;
place = "{396, 122}";
type = Stem;
},
{
horizontal = 1;
place = "{546, 76}";
type = Stem;
},
{
horizontal = 1;
place = "{708, 77}";
type = Stem;
}
);
layerId = "49A649E9-A574-4B20-B218-33A3EC71A7EA";
paths = (
{
closed = 1;
nodes = (
"156 582 OFFCURVE",
"219 546 OFFCURVE",
"295 546 CURVE SMOOTH",
"371 546 OFFCURVE",
"428 582 OFFCURVE",
"428 664 CURVE SMOOTH",
"428 746 OFFCURVE",
"370 785 OFFCURVE",
"292 785 CURVE SMOOTH",
"215 785 OFFCURVE",
"156 745 OFFCURVE",
"156 665 CURVE SMOOTH"
);
},
{
closed = 1;
nodes = (
"270 622 OFFCURVE",
"249 637 OFFCURVE",
"249 666 CURVE SMOOTH",
"249 693 OFFCURVE",
"267 708 OFFCURVE",
"292 708 CURVE SMOOTH",
"316 708 OFFCURVE",
"335 695 OFFCURVE",
"335 665 CURVE SMOOTH",
"335 636 OFFCURVE",
"317 622 OFFCURVE",
"294 622 CURVE SMOOTH"
);
},
{
closed = 1;
nodes = (
"417 -52 LINE",
"541 51 LINE",
"494 108 LINE",
"494 336 LINE SMOOTH",
"494 447 OFFCURVE",
"401 518 OFFCURVE",
"246 518 CURVE SMOOTH",
"183 518 OFFCURVE",
"118 506 OFFCURVE",
"67 478 CURVE",
"106 362 LINE",
"144 384 OFFCURVE",
"186 396 OFFCURVE",
"235 396 CURVE SMOOTH",
"299 396 OFFCURVE",
"335 376 OFFCURVE",
"335 338 CURVE SMOOTH",
"335 322 LINE",
"212 322 LINE SMOOTH",
"100 322 OFFCURVE",
"40 267 OFFCURVE",
"40 171 CURVE SMOOTH",
"40 66 OFFCURVE",
"113 -5 OFFCURVE",
"237 -5 CURVE SMOOTH",
"284 -5 OFFCURVE",
"323 5 OFFCURVE",
"354 24 CURVE"
);
},
{
closed = 1;
nodes = (
"336 193 LINE SMOOTH",
"336 159 OFFCURVE",
"312 119 OFFCURVE",
"262 119 CURVE SMOOTH",
"226 119 OFFCURVE",
"200 139 OFFCURVE",
"200 172 CURVE SMOOTH",
"200 202 OFFCURVE",
"221 221 OFFCURVE",
"262 221 CURVE SMOOTH",
"336 221 LINE"
);
}
);
width = 561;
}
);
leftKerningGroup = a_2nd;
rightKerningGroup = aring_1st;
unicode = 00E5;
},
{
glyphname = ae;
layers = (
{
hints = (
{
place = "{40, 160}";
type = Stem;
},
{
place = "{335, 162}";
type = Stem;
},
{
place = "{678, 140}";
type = Stem;
},
{
horizontal = 1;
place = "{-5, 119}";
type = Stem;
},
{
horizontal = 1;
place = "{213, 101}";
type = Stem;
},
{
horizontal = 1;
place = "{221, 102}";
type = Stem;
},
{
horizontal = 1;
place = "{396, 122}";
type = Stem;
},
{
horizontal = 1;
place = "{-5, 124}";
type = Stem;
}
);
layerId = "49A649E9-A574-4B20-B218-33A3EC71A7EA";
paths = (
{
closed = 1;
nodes = (
"40 66 OFFCURVE",
"128 -5 OFFCURVE",
"251 -5 CURVE SMOOTH",
"329 -5 OFFCURVE",
"389 24 OFFCURVE",
"419 61 CURVE",
"421 61 LINE",
"469 17 OFFCURVE",
"536 -6 OFFCURVE",
"613 -6 CURVE SMOOTH",
"696 -6 OFFCURVE",
"765 21 OFFCURVE",
"799 49 CURVE",
"756 149 LINE",
"728 127 OFFCURVE",
"680 114 OFFCURVE",
"632 114 CURVE SMOOTH",
"557 114 OFFCURVE",
"504 145 OFFCURVE",
"497 213 CURVE",
"808 213 LINE",
"814 243 OFFCURVE",
"818 272 OFFCURVE",
"818 301 CURVE SMOOTH",
"818 423 OFFCURVE",
"746 518 OFFCURVE",
"590 518 CURVE SMOOTH",
"524 518 OFFCURVE",
"469 501 OFFCURVE",
"427 469 CURVE",
"384 500 OFFCURVE",
"323 518 OFFCURVE",
"246 518 CURVE SMOOTH",
"182 518 OFFCURVE",
"118 506 OFFCURVE",
"67 478 CURVE",
"106 362 LINE",
"144 384 OFFCURVE",
"186 396 OFFCURVE",
"235 396 CURVE SMOOTH",
"299 396 OFFCURVE",
"335 376 OFFCURVE",
"335 338 CURVE SMOOTH",
"335 323 LINE",
"212 323 LINE SMOOTH",
"100 323 OFFCURVE",
"40 267 OFFCURVE",
"40 176 CURVE SMOOTH"
);
},
{
closed = 1;
nodes = (
"646 397 OFFCURVE",
"678 364 OFFCURVE",
"678 314 CURVE",
"497 314 LINE",
"497 368 OFFCURVE",
"534 397 OFFCURVE",
"588 397 CURVE SMOOTH"
);
},
{
closed = 1;
nodes = (
"336 221 LINE",
"336 193 LINE SMOOTH",
"336 159 OFFCURVE",
"312 119 OFFCURVE",
"262 119 CURVE SMOOTH",
"226 119 OFFCURVE",
"200 139 OFFCURVE",
"200 172 CURVE SMOOTH",
"200 202 OFFCURVE",
"221 221 OFFCURVE",
"262 221 CURVE SMOOTH"
);
}
);
width = 858;
}
);
unicode = 00E6;
},
{
glyphname = ccedilla;
layers = (
{
guideLines = (
{
position = "{0, 103}";
}
);
hints = (
{
place = "{40, 166}";
type = Stem;
},
{
place = "{265, 130}";
type = Stem;
},
{
horizontal = 1;
place = "{-192, 102}";
type = Stem;
},
{
horizontal = 1;
place = "{393, 132}";
type = Stem;
}
);
layerId = "49A649E9-A574-4B20-B218-33A3EC71A7EA";
paths = (
{
closed = 1;
nodes = (
"454 159 LINE",
"427 139 OFFCURVE",
"387 128 OFFCURVE",
"348 128 CURVE SMOOTH",
"263 128 OFFCURVE",
"206 179 OFFCURVE",
"206 269 CURVE SMOOTH",
"206 349 OFFCURVE",
"251 393 OFFCURVE",
"337 393 CURVE SMOOTH",
"374 393 OFFCURVE",
"406 385 OFFCURVE",
"433 369 CURVE",
"472 482 LINE",
"422 511 OFFCURVE",
"360 525 OFFCURVE",
"297 525 CURVE SMOOTH",
"130 525 OFFCURVE",
"40 426 OFFCURVE",
"40 269 CURVE SMOOTH",
"40 115 OFFCURVE",
"127 20 OFFCURVE",
"257 0 CURVE",
"262 -11 OFFCURVE",
"265 -24 OFFCURVE",
"265 -36 CURVE SMOOTH",
"265 -67 OFFCURVE",
"246 -90 OFFCURVE",
"210 -90 CURVE SMOOTH",
"200 -90 OFFCURVE",
"187 -88 OFFCURVE",
"175 -83 CURVE",
"152 -169 LINE",
"180 -186 OFFCURVE",
"211 -192 OFFCURVE",
"242 -192 CURVE SMOOTH",
"340 -192 OFFCURVE",
"395 -132 OFFCURVE",
"395 -56 CURVE SMOOTH",
"395 -34 OFFCURVE",
"391 -14 OFFCURVE",
"383 4 CURVE",
"434 15 OFFCURVE",
"470 37 OFFCURVE",
"498 60 CURVE"
);
}
);
width = 538;
}
);
leftKerningGroup = c_2nd;
rightKerningGroup = c1_1st;
unicode = 00E7;
},
{
glyphname = egrave;
layers = (
{
hints = (
{
place = "{40, 157}";
type = Stem;
},
{
place = "{378, 140}";
type = Stem;
},
{
horizontal = 1;
place = "{-6, 120}";
type = Stem;
},
{
horizontal = 1;
place = "{201, 101}";
type = Stem;
},
{
horizontal = 1;
place = "{397, 121}";
type = Stem;
}
);
layerId = "49A649E9-A574-4B20-B218-33A3EC71A7EA";
paths = (
{
closed = 1;
nodes = (
"82 673 LINE",
"333 546 LINE",
"393 646 LINE",
"153 796 LINE"
);
},
{
closed = 1;
nodes = (
"456 149 LINE",
"428 127 OFFCURVE",
"380 114 OFFCURVE",
"326 114 CURVE SMOOTH",
"261 114 OFFCURVE",
"204 133 OFFCURVE",
"197 201 CURVE",
"508 201 LINE",
"514 231 OFFCURVE",
"518 263 OFFCURVE",
"518 293 CURVE SMOOTH",
"518 417 OFFCURVE",
"449 518 OFFCURVE",
"289 518 CURVE SMOOTH",
"137 518 OFFCURVE",
"40 427 OFFCURVE",
"40 266 CURVE SMOOTH",
"40 93 OFFCURVE",
"153 -6 OFFCURVE",
"313 -6 CURVE SMOOTH",
"396 -6 OFFCURVE",
"465 21 OFFCURVE",
"499 49 CURVE"
);
},
{
closed = 1;
nodes = (
"197 302 LINE",
"197 359 OFFCURVE",
"231 397 OFFCURVE",
"288 397 CURVE SMOOTH",
"348 397 OFFCURVE",
"378 355 OFFCURVE",
"378 302 CURVE"
);
}
);
width = 558;
}
);
leftKerningGroup = e_2nd;
rightKerningGroup = e1_1st;
unicode = 00E8;
},
{
glyphname = eacute;
layers = (
{
hints = (
{
place = "{40, 157}";
type = Stem;
},
{
place = "{378, 140}";
type = Stem;
},
{
horizontal = 1;
place = "{-6, 120}";
type = Stem;
},
{
horizontal = 1;
place = "{201, 101}";
type = Stem;
},
{
horizontal = 1;
place = "{397, 121}";
type = Stem;
}
);
layerId = "49A649E9-A574-4B20-B218-33A3EC71A7EA";
paths = (
{
closed = 1;
nodes = (
"492 673 LINE",
"421 796 LINE",
"181 646 LINE",
"241 546 LINE"
);
},
{
closed = 1;
nodes = (
"456 149 LINE",
"428 127 OFFCURVE",
"380 114 OFFCURVE",
"326 114 CURVE SMOOTH",
"261 114 OFFCURVE",
"204 133 OFFCURVE",
"197 201 CURVE",
"508 201 LINE",
"514 231 OFFCURVE",
"518 263 OFFCURVE",
"518 293 CURVE SMOOTH",
"518 417 OFFCURVE",
"449 518 OFFCURVE",
"289 518 CURVE SMOOTH",
"137 518 OFFCURVE",
"40 427 OFFCURVE",
"40 266 CURVE SMOOTH",
"40 93 OFFCURVE",
"153 -6 OFFCURVE",
"313 -6 CURVE SMOOTH",
"396 -6 OFFCURVE",
"465 21 OFFCURVE",
"499 49 CURVE"
);
},
{
closed = 1;
nodes = (
"197 302 LINE",
"197 359 OFFCURVE",
"231 397 OFFCURVE",
"288 397 CURVE SMOOTH",
"348 397 OFFCURVE",
"378 355 OFFCURVE",
"378 302 CURVE"
);
}
);
width = 558;
}
);
leftKerningGroup = e_2nd;
rightKerningGroup = e1_1st;
unicode = 00E9;
},
{
glyphname = ecircumflex;
layers = (
{
hints = (
{
place = "{40, 157}";
type = Stem;
},
{
place = "{378, 140}";
type = Stem;
},
{
horizontal = 1;
place = "{-6, 120}";
type = Stem;
},
{
horizontal = 1;
place = "{201, 101}";
type = Stem;
},
{
horizontal = 1;
place = "{397, 121}";
type = Stem;
},
{
horizontal = 1;
place = "{767, -20}";
target = down;
type = TopGhost;
}
);
layerId = "49A649E9-A574-4B20-B218-33A3EC71A7EA";
paths = (
{
closed = 1;
nodes = (
"158 544 LINE",
"289 662 LINE",
"419 545 LINE",
"514 641 LINE",
"353 767 LINE",
"223 767 LINE",
"62 641 LINE"
);
},
{
closed = 1;
nodes = (
"456 149 LINE",
"428 127 OFFCURVE",
"380 114 OFFCURVE",
"326 114 CURVE SMOOTH",
"261 114 OFFCURVE",
"204 133 OFFCURVE",
"197 201 CURVE",
"508 201 LINE",
"514 231 OFFCURVE",
"518 263 OFFCURVE",
"518 293 CURVE SMOOTH",
"518 417 OFFCURVE",
"449 518 OFFCURVE",
"289 518 CURVE SMOOTH",
"137 518 OFFCURVE",
"40 427 OFFCURVE",
"40 266 CURVE SMOOTH",
"40 93 OFFCURVE",
"153 -6 OFFCURVE",
"313 -6 CURVE SMOOTH",
"396 -6 OFFCURVE",
"465 21 OFFCURVE",
"499 49 CURVE"
);
},
{
closed = 1;
nodes = (
"197 302 LINE",
"197 359 OFFCURVE",
"231 397 OFFCURVE",
"288 397 CURVE SMOOTH",
"348 397 OFFCURVE",
"378 355 OFFCURVE",
"378 302 CURVE"
);
}
);
width = 558;
}
);
leftKerningGroup = e_2nd;
rightKerningGroup = e1_1st;
unicode = 00EA;
},
{
glyphname = edieresis;
layers = (
{
hints = (
{
place = "{40, 157}";
type = Stem;
},
{
place = "{99, 180}";
type = Stem;
},
{
place = "{320, 180}";
type = Stem;
},
{
place = "{378, 140}";
type = Stem;
},
{
horizontal = 1;
place = "{-6, 120}";
type = Stem;
},
{
horizontal = 1;
place = "{201, 101}";
type = Stem;
},
{
horizontal = 1;
place = "{397, 121}";
type = Stem;
},
{
horizontal = 1;
place = "{572, 174}";
type = Stem;
}
);
layerId = "49A649E9-A574-4B20-B218-33A3EC71A7EA";
paths = (
{
closed = 1;
nodes = (
"243 572 OFFCURVE",
"279 610 OFFCURVE",
"279 659 CURVE SMOOTH",
"279 708 OFFCURVE",
"243 746 OFFCURVE",
"189 746 CURVE SMOOTH",
"135 746 OFFCURVE",
"99 708 OFFCURVE",
"99 659 CURVE SMOOTH",
"99 610 OFFCURVE",
"135 572 OFFCURVE",
"189 572 CURVE SMOOTH"
);
},
{
closed = 1;
nodes = (
"464 572 OFFCURVE",
"500 610 OFFCURVE",
"500 659 CURVE SMOOTH",
"500 708 OFFCURVE",
"464 746 OFFCURVE",
"410 746 CURVE SMOOTH",
"356 746 OFFCURVE",
"320 708 OFFCURVE",
"320 659 CURVE SMOOTH",
"320 610 OFFCURVE",
"356 572 OFFCURVE",
"410 572 CURVE SMOOTH"
);
},
{
closed = 1;
nodes = (
"456 149 LINE",
"428 127 OFFCURVE",
"380 114 OFFCURVE",
"326 114 CURVE SMOOTH",
"261 114 OFFCURVE",
"204 133 OFFCURVE",
"197 201 CURVE",
"508 201 LINE",
"514 231 OFFCURVE",
"518 263 OFFCURVE",
"518 293 CURVE SMOOTH",
"518 417 OFFCURVE",
"449 518 OFFCURVE",
"289 518 CURVE SMOOTH",
"137 518 OFFCURVE",
"40 427 OFFCURVE",
"40 266 CURVE SMOOTH",
"40 93 OFFCURVE",
"153 -6 OFFCURVE",
"313 -6 CURVE SMOOTH",
"396 -6 OFFCURVE",
"465 21 OFFCURVE",
"499 49 CURVE"
);
},
{
closed = 1;
nodes = (
"197 302 LINE",
"197 359 OFFCURVE",
"231 397 OFFCURVE",
"288 397 CURVE SMOOTH",
"348 397 OFFCURVE",
"378 355 OFFCURVE",
"378 302 CURVE"
);
}
);
width = 558;
}
);
leftKerningGroup = e_2nd;
rightKerningGroup = e1_1st;
unicode = 00EB;
},
{
glyphname = igrave;
layers = (
{
hints = (
{
place = "{50, 160}";
type = Stem;
},
{
horizontal = 1;
place = "{0, 21}";
target = up;
type = BottomGhost;
}
);
layerId = "49A649E9-A574-4B20-B218-33A3EC71A7EA";
paths = (
{
closed = 1;
nodes = (
"-101 652 LINE",
"150 525 LINE",
"210 625 LINE",
"-30 775 LINE"
);
},
{
closed = 1;
nodes = (
"50 0 LINE",
"210 0 LINE",
"210 482 LINE",
"50 482 LINE"
);
}
);
width = 260;
}
);
leftKerningGroup = iacute_2nd;
rightKerningGroup = iacute1_1st;
unicode = 00EC;
},
{
glyphname = iacute;
layers = (
{
hints = (
{
place = "{50, 160}";
type = Stem;
},
{
horizontal = 1;
place = "{0, 21}";
target = up;
type = BottomGhost;
}
);
layerId = "49A649E9-A574-4B20-B218-33A3EC71A7EA";
paths = (
{
closed = 1;
nodes = (
"361 652 LINE",
"290 775 LINE",
"50 625 LINE",
"110 525 LINE"
);
},
{
closed = 1;
nodes = (
"50 0 LINE",
"210 0 LINE",
"210 482 LINE",
"50 482 LINE"
);
}
);
width = 260;
}
);
leftKerningGroup = iacute_2nd;
rightKerningGroup = iacute1_1st;
unicode = 00ED;
},
{
glyphname = icircumflex;
layers = (
{
hints = (
{
place = "{50, 160}";
type = Stem;
},
{
horizontal = 1;
place = "{0, 21}";
target = up;
type = BottomGhost;
},
{
horizontal = 1;
place = "{747, -20}";
target = down;
type = TopGhost;
}
);
layerId = "49A649E9-A574-4B20-B218-33A3EC71A7EA";
paths = (
{
closed = 1;
nodes = (
"4 524 LINE",
"135 642 LINE",
"265 525 LINE",
"360 621 LINE",
"199 747 LINE",
"69 747 LINE",
"-92 621 LINE"
);
},
{
closed = 1;
nodes = (
"50 0 LINE",
"210 0 LINE",
"210 482 LINE",
"50 482 LINE"
);
}
);
width = 260;
}
);
leftKerningGroup = iacute_2nd;
rightKerningGroup = iacute1_1st;
unicode = 00EE;
},
{
glyphname = idieresis;
layers = (
{
hints = (
{
place = "{-59, 180}";
type = Stem;
},
{
place = "{50, 160}";
type = Stem;
},
{
place = "{162, 180}";
type = Stem;
},
{
horizontal = 1;
place = "{552, 174}";
type = Stem;
},
{
horizontal = 1;
place = "{0, 21}";
target = up;
type = BottomGhost;
}
);
layerId = "49A649E9-A574-4B20-B218-33A3EC71A7EA";
paths = (
{
closed = 1;
nodes = (
"85 552 OFFCURVE",
"121 590 OFFCURVE",
"121 639 CURVE SMOOTH",
"121 688 OFFCURVE",
"85 726 OFFCURVE",
"31 726 CURVE SMOOTH",
"-23 726 OFFCURVE",
"-59 688 OFFCURVE",
"-59 639 CURVE SMOOTH",
"-59 590 OFFCURVE",
"-23 552 OFFCURVE",
"31 552 CURVE SMOOTH"
);
},
{
closed = 1;
nodes = (
"306 552 OFFCURVE",
"342 590 OFFCURVE",
"342 639 CURVE SMOOTH",
"342 688 OFFCURVE",
"306 726 OFFCURVE",
"252 726 CURVE SMOOTH",
"198 726 OFFCURVE",
"162 688 OFFCURVE",
"162 639 CURVE SMOOTH",
"162 590 OFFCURVE",
"198 552 OFFCURVE",
"252 552 CURVE SMOOTH"
);
},
{
closed = 1;
nodes = (
"50 0 LINE",
"210 0 LINE",
"210 482 LINE",
"50 482 LINE"
);
}
);
width = 260;
}
);
leftKerningGroup = iacute_2nd;
rightKerningGroup = iacute1_1st;
unicode = 00EF;
},
{
glyphname = eth;
layers = (
{
hints = (
{
place = "{40, 170}";
type = Stem;
},
{
place = "{398, 158}";
type = Stem;
},
{
horizontal = 1;
place = "{-15, 137}";
type = Stem;
},
{
horizontal = 1;
place = "{305, 130}";
type = Stem;
}
);
layerId = "49A649E9-A574-4B20-B218-33A3EC71A7EA";
paths = (
{
closed = 1;
nodes = (
"463 -15 OFFCURVE",
"556 115 OFFCURVE",
"556 287 CURVE SMOOTH",
"556 389 OFFCURVE",
"524 475 OFFCURVE",
"473 546 CURVE",
"569 575 LINE",
"536 671 LINE",
"398 629 LINE",
"346 676 OFFCURVE",
"286 711 OFFCURVE",
"226 734 CURVE",
"158 616 LINE",
"183 606 OFFCURVE",
"208 594 OFFCURVE",
"232 579 CURVE",
"113 543 LINE",
"146 447 LINE",
"325 501 LINE",
"351 472 OFFCURVE",
"371 440 OFFCURVE",
"381 408 CURVE",
"351 422 OFFCURVE",
"299 435 OFFCURVE",
"248 435 CURVE SMOOTH",
"116 435 OFFCURVE",
"40 346 OFFCURVE",
"40 224 CURVE SMOOTH",
"40 87 OFFCURVE",
"137 -15 OFFCURVE",
"290 -15 CURVE SMOOTH"
);
},
{
closed = 1;
nodes = (
"210 274 OFFCURVE",
"244 305 OFFCURVE",
"304 305 CURVE SMOOTH",
"345 305 OFFCURVE",
"380 291 OFFCURVE",
"395 281 CURVE",
"397 269 OFFCURVE",
"398 257 OFFCURVE",
"398 244 CURVE SMOOTH",
"398 164 OFFCURVE",
"363 122 OFFCURVE",
"300 122 CURVE SMOOTH",
"244 122 OFFCURVE",
"210 156 OFFCURVE",
"210 215 CURVE SMOOTH"
);
}
);
width = 599;
}
);
unicode = 00F0;
},
{
glyphname = ntilde;
layers = (
{
hints = (
{
place = "{50, 160}";
type = Stem;
},
{
place = "{358, 160}";
type = Stem;
},
{
horizontal = 1;
place = "{369, 147}";
type = Stem;
},
{
horizontal = 1;
place = "{572, 117}";
type = Stem;
},
{
horizontal = 1;
place = "{601, 117}";
type = Stem;
},
{
horizontal = 1;
place = "{0, 21}";
target = up;
type = BottomGhost;
}
);
layerId = "49A649E9-A574-4B20-B218-33A3EC71A7EA";
paths = (
{
closed = 1;
nodes = (
"519 677 LINE",
"501 618 OFFCURVE",
"448 572 OFFCURVE",
"376 572 CURVE SMOOTH",
"348 572 OFFCURVE",
"320 579 OFFCURVE",
"299 585 CURVE SMOOTH",
"252 597 OFFCURVE",
"230 601 OFFCURVE",
"211 601 CURVE SMOOTH",
"171 601 OFFCURVE",
"140 582 OFFCURVE",
"125 557 CURVE",
"42 613 LINE",
"60 672 OFFCURVE",
"112 718 OFFCURVE",
"184 718 CURVE SMOOTH",
"214 718 OFFCURVE",
"245 710 OFFCURVE",
"274 702 CURVE SMOOTH",
"298 696 OFFCURVE",
"327 689 OFFCURVE",
"351 689 CURVE SMOOTH",
"390 689 OFFCURVE",
"421 708 OFFCURVE",
"436 733 CURVE"
);
},
{
closed = 1;
nodes = (
"210 0 LINE",
"50 0 LINE",
"50 431 LINE",
"101 481 OFFCURVE",
"193 516 OFFCURVE",
"296 516 CURVE SMOOTH",
"444 516 OFFCURVE",
"518 443 OFFCURVE",
"518 329 CURVE SMOOTH",
"518 87 LINE",
"563 36 LINE",
"439 -69 LINE",
"358 12 LINE",
"358 284 LINE SMOOTH",
"358 338 OFFCURVE",
"328 369 OFFCURVE",
"272 369 CURVE SMOOTH",
"248 369 OFFCURVE",
"226 363 OFFCURVE",
"210 354 CURVE"
);
}
);
width = 583;
}
);
leftKerningGroup = n_2nd;
rightKerningGroup = n1_1st;
unicode = 00F1;
},
{
glyphname = ograve;
layers = (
{
guideLines = (
{
angle = 90;
position = "{308, 0}";
},
{
position = "{0, 256}";
}
);
hints = (
{
place = "{40, 163}";
type = Stem;
},
{
place = "{413, 164}";
type = Stem;
},
{
horizontal = 1;
place = "{-9, 134}";
type = Stem;
},
{
horizontal = 1;
place = "{390, 132}";
type = Stem;
}
);
layerId = "49A649E9-A574-4B20-B218-33A3EC71A7EA";
paths = (
{
closed = 1;
nodes = (
"80 673 LINE",
"331 546 LINE",
"391 646 LINE",
"151 796 LINE"
);
},
{
closed = 1;
nodes = (
"476 -9 OFFCURVE",
"577 96 OFFCURVE",
"577 260 CURVE SMOOTH",
"577 428 OFFCURVE",
"472 522 OFFCURVE",
"308 522 CURVE SMOOTH",
"144 522 OFFCURVE",
"40 428 OFFCURVE",
"40 262 CURVE SMOOTH",
"40 96 OFFCURVE",
"144 -9 OFFCURVE",
"310 -9 CURVE SMOOTH"
);
},
{
closed = 1;
nodes = (
"244 125 OFFCURVE",
"203 178 OFFCURVE",
"203 261 CURVE SMOOTH",
"203 346 OFFCURVE",
"244 390 OFFCURVE",
"308 390 CURVE SMOOTH",
"372 390 OFFCURVE",
"413 346 OFFCURVE",
"413 260 CURVE SMOOTH",
"413 178 OFFCURVE",
"376 125 OFFCURVE",
"310 125 CURVE SMOOTH"
);
}
);
width = 617;
}
);
leftKerningGroup = o_2nd;
rightKerningGroup = o1_1st;
unicode = 00F2;
},
{
glyphname = oacute;
layers = (
{
guideLines = (
{
angle = 90;
position = "{308, 0}";
},
{
position = "{0, 256}";
}
);
hints = (
{
place = "{40, 163}";
type = Stem;
},
{
place = "{413, 164}";
type = Stem;
},
{
horizontal = 1;
place = "{-9, 134}";
type = Stem;
},
{
horizontal = 1;
place = "{390, 132}";
type = Stem;
}
);
layerId = "49A649E9-A574-4B20-B218-33A3EC71A7EA";
paths = (
{
closed = 1;
nodes = (
"542 673 LINE",
"471 796 LINE",
"231 646 LINE",
"291 546 LINE"
);
},
{
closed = 1;
nodes = (
"476 -9 OFFCURVE",
"577 96 OFFCURVE",
"577 260 CURVE SMOOTH",
"577 428 OFFCURVE",
"472 522 OFFCURVE",
"308 522 CURVE SMOOTH",
"144 522 OFFCURVE",
"40 428 OFFCURVE",
"40 262 CURVE SMOOTH",
"40 96 OFFCURVE",
"144 -9 OFFCURVE",
"310 -9 CURVE SMOOTH"
);
},
{
closed = 1;
nodes = (
"244 125 OFFCURVE",
"203 178 OFFCURVE",
"203 261 CURVE SMOOTH",
"203 346 OFFCURVE",
"244 390 OFFCURVE",
"308 390 CURVE SMOOTH",
"372 390 OFFCURVE",
"413 346 OFFCURVE",
"413 260 CURVE SMOOTH",
"413 178 OFFCURVE",
"376 125 OFFCURVE",
"310 125 CURVE SMOOTH"
);
}
);
width = 617;
}
);
leftKerningGroup = o_2nd;
rightKerningGroup = o1_1st;
unicode = 00F3;
},
{
glyphname = ocircumflex;
layers = (
{
guideLines = (
{
angle = 90;
position = "{308, 0}";
},
{
position = "{0, 256}";
}
);
hints = (
{
place = "{40, 163}";
type = Stem;
},
{
place = "{413, 164}";
type = Stem;
},
{
horizontal = 1;
place = "{-9, 134}";
type = Stem;
},
{
horizontal = 1;
place = "{390, 132}";
type = Stem;
},
{
horizontal = 1;
place = "{767, -20}";
target = down;
type = TopGhost;
}
);
layerId = "49A649E9-A574-4B20-B218-33A3EC71A7EA";
paths = (
{
closed = 1;
nodes = (
"179 544 LINE",
"310 662 LINE",
"440 545 LINE",
"535 641 LINE",
"374 767 LINE",
"244 767 LINE",
"83 641 LINE"
);
},
{
closed = 1;
nodes = (
"476 -9 OFFCURVE",
"577 96 OFFCURVE",
"577 260 CURVE SMOOTH",
"577 428 OFFCURVE",
"472 522 OFFCURVE",
"308 522 CURVE SMOOTH",
"144 522 OFFCURVE",
"40 428 OFFCURVE",
"40 262 CURVE SMOOTH",
"40 96 OFFCURVE",
"144 -9 OFFCURVE",
"310 -9 CURVE SMOOTH"
);
},
{
closed = 1;
nodes = (
"244 125 OFFCURVE",
"203 178 OFFCURVE",
"203 261 CURVE SMOOTH",
"203 346 OFFCURVE",
"244 390 OFFCURVE",
"308 390 CURVE SMOOTH",
"372 390 OFFCURVE",
"413 346 OFFCURVE",
"413 260 CURVE SMOOTH",
"413 178 OFFCURVE",
"376 125 OFFCURVE",
"310 125 CURVE SMOOTH"
);
}
);
width = 617;
}
);
leftKerningGroup = o_2nd;
rightKerningGroup = o1_1st;
unicode = 00F4;
},
{
glyphname = otilde;
layers = (
{
guideLines = (
{
angle = 90;
position = "{308, 0}";
},
{
position = "{0, 256}";
}
);
hints = (
{
place = "{40, 163}";
type = Stem;
},
{
place = "{413, 164}";
type = Stem;
},
{
horizontal = 1;
place = "{-9, 134}";
type = Stem;
},
{
horizontal = 1;
place = "{390, 132}";
type = Stem;
},
{
horizontal = 1;
place = "{572, 117}";
type = Stem;
},
{
horizontal = 1;
place = "{601, 117}";
type = Stem;
}
);
layerId = "49A649E9-A574-4B20-B218-33A3EC71A7EA";
paths = (
{
closed = 1;
nodes = (
"455 733 LINE",
"440 708 OFFCURVE",
"409 689 OFFCURVE",
"370 689 CURVE SMOOTH",
"346 689 OFFCURVE",
"317 696 OFFCURVE",
"293 702 CURVE SMOOTH",
"264 710 OFFCURVE",
"233 718 OFFCURVE",
"203 718 CURVE SMOOTH",
"131 718 OFFCURVE",
"79 672 OFFCURVE",
"61 613 CURVE",
"144 557 LINE",
"159 582 OFFCURVE",
"190 601 OFFCURVE",
"230 601 CURVE SMOOTH",
"249 601 OFFCURVE",
"271 597 OFFCURVE",
"318 585 CURVE SMOOTH",
"339 579 OFFCURVE",
"367 572 OFFCURVE",
"395 572 CURVE SMOOTH",
"467 572 OFFCURVE",
"520 618 OFFCURVE",
"538 677 CURVE"
);
},
{
closed = 1;
nodes = (
"476 -9 OFFCURVE",
"577 96 OFFCURVE",
"577 260 CURVE SMOOTH",
"577 428 OFFCURVE",
"472 522 OFFCURVE",
"308 522 CURVE SMOOTH",
"144 522 OFFCURVE",
"40 428 OFFCURVE",
"40 262 CURVE SMOOTH",
"40 96 OFFCURVE",
"144 -9 OFFCURVE",
"310 -9 CURVE SMOOTH"
);
},
{
closed = 1;
nodes = (
"244 125 OFFCURVE",
"203 178 OFFCURVE",
"203 261 CURVE SMOOTH",
"203 346 OFFCURVE",
"244 390 OFFCURVE",
"308 390 CURVE SMOOTH",
"372 390 OFFCURVE",
"413 346 OFFCURVE",
"413 260 CURVE SMOOTH",
"413 178 OFFCURVE",
"376 125 OFFCURVE",
"310 125 CURVE SMOOTH"
);
}
);
width = 617;
}
);
leftKerningGroup = o_2nd;
rightKerningGroup = o1_1st;
unicode = 00F5;
},
{
glyphname = odieresis;
layers = (
{
guideLines = (
{
angle = 90;
position = "{308, 0}";
},
{
position = "{0, 256}";
}
);
hints = (
{
place = "{40, 163}";
type = Stem;
},
{
place = "{118, 180}";
type = Stem;
},
{
place = "{339, 180}";
type = Stem;
},
{
place = "{413, 164}";
type = Stem;
},
{
horizontal = 1;
place = "{-9, 134}";
type = Stem;
},
{
horizontal = 1;
place = "{390, 132}";
type = Stem;
},
{
horizontal = 1;
place = "{572, 174}";
type = Stem;
}
);
layerId = "49A649E9-A574-4B20-B218-33A3EC71A7EA";
paths = (
{
closed = 1;
nodes = (
"262 572 OFFCURVE",
"298 610 OFFCURVE",
"298 659 CURVE SMOOTH",
"298 708 OFFCURVE",
"262 746 OFFCURVE",
"208 746 CURVE SMOOTH",
"154 746 OFFCURVE",
"118 708 OFFCURVE",
"118 659 CURVE SMOOTH",
"118 610 OFFCURVE",
"154 572 OFFCURVE",
"208 572 CURVE SMOOTH"
);
},
{
closed = 1;
nodes = (
"483 572 OFFCURVE",
"519 610 OFFCURVE",
"519 659 CURVE SMOOTH",
"519 708 OFFCURVE",
"483 746 OFFCURVE",
"429 746 CURVE SMOOTH",
"375 746 OFFCURVE",
"339 708 OFFCURVE",
"339 659 CURVE SMOOTH",
"339 610 OFFCURVE",
"375 572 OFFCURVE",
"429 572 CURVE SMOOTH"
);
},
{
closed = 1;
nodes = (
"476 -9 OFFCURVE",
"577 96 OFFCURVE",
"577 260 CURVE SMOOTH",
"577 428 OFFCURVE",
"472 522 OFFCURVE",
"308 522 CURVE SMOOTH",
"144 522 OFFCURVE",
"40 428 OFFCURVE",
"40 262 CURVE SMOOTH",
"40 96 OFFCURVE",
"144 -9 OFFCURVE",
"310 -9 CURVE SMOOTH"
);
},
{
closed = 1;
nodes = (
"244 125 OFFCURVE",
"203 178 OFFCURVE",
"203 261 CURVE SMOOTH",
"203 346 OFFCURVE",
"244 390 OFFCURVE",
"308 390 CURVE SMOOTH",
"372 390 OFFCURVE",
"413 346 OFFCURVE",
"413 260 CURVE SMOOTH",
"413 178 OFFCURVE",
"376 125 OFFCURVE",
"310 125 CURVE SMOOTH"
);
}
);
width = 617;
}
);
leftKerningGroup = o_2nd;
rightKerningGroup = o1_1st;
unicode = 00F6;
},
{
glyphname = divide;
layers = (
{
hints = (
{
place = "{184, 171}";
type = Stem;
},
{
horizontal = 1;
place = "{8, 167}";
type = Stem;
},
{
horizontal = 1;
place = "{218, 140}";
type = Stem;
},
{
horizontal = 1;
place = "{399, 167}";
type = Stem;
}
);
layerId = "49A649E9-A574-4B20-B218-33A3EC71A7EA";
paths = (
{
closed = 1;
nodes = (
"320 399 OFFCURVE",
"355 435 OFFCURVE",
"355 482 CURVE SMOOTH",
"355 529 OFFCURVE",
"320 566 OFFCURVE",
"269 566 CURVE SMOOTH",
"218 566 OFFCURVE",
"184 529 OFFCURVE",
"184 482 CURVE SMOOTH",
"184 435 OFFCURVE",
"218 399 OFFCURVE",
"269 399 CURVE SMOOTH"
);
},
{
closed = 1;
nodes = (
"29 218 LINE",
"508 218 LINE",
"508 358 LINE",
"29 358 LINE"
);
},
{
closed = 1;
nodes = (
"320 8 OFFCURVE",
"355 44 OFFCURVE",
"355 91 CURVE SMOOTH",
"355 138 OFFCURVE",
"320 175 OFFCURVE",
"269 175 CURVE SMOOTH",
"218 175 OFFCURVE",
"184 138 OFFCURVE",
"184 91 CURVE SMOOTH",
"184 44 OFFCURVE",
"218 8 OFFCURVE",
"269 8 CURVE SMOOTH"
);
}
);
width = 540;
}
);
unicode = 00F7;
},
{
glyphname = oslash;
layers = (
{
guideLines = (
{
angle = 90;
position = "{308, 0}";
},
{
position = "{0, 256}";
}
);
hints = (
{
place = "{40, 163}";
type = Stem;
},
{
place = "{413, 164}";
type = Stem;
},
{
horizontal = 1;
place = "{-9, 134}";
type = Stem;
},
{
horizontal = 1;
place = "{390, 132}";
type = Stem;
}
);
layerId = "49A649E9-A574-4B20-B218-33A3EC71A7EA";
paths = (
{
closed = 1;
nodes = (
"54 -7 LINE",
"151 -75 LINE",
"208 6 LINE",
"238 -4 OFFCURVE",
"273 -9 OFFCURVE",
"310 -9 CURVE SMOOTH",
"476 -9 OFFCURVE",
"577 96 OFFCURVE",
"577 260 CURVE SMOOTH",
"577 338 OFFCURVE",
"554 400 OFFCURVE",
"514 444 CURVE",
"567 520 LINE",
"470 588 LINE",
"413 507 LINE",
"382 517 OFFCURVE",
"347 522 OFFCURVE",
"308 522 CURVE SMOOTH",
"144 522 OFFCURVE",
"40 428 OFFCURVE",
"40 262 CURVE SMOOTH",
"40 182 OFFCURVE",
"64 116 OFFCURVE",
"108 70 CURVE"
);
},
{
closed = 1;
nodes = (
"208 213 LINE",
"205 228 OFFCURVE",
"203 244 OFFCURVE",
"203 262 CURVE SMOOTH",
"203 346 OFFCURVE",
"244 390 OFFCURVE",
"307 390 CURVE SMOOTH",
"316 390 OFFCURVE",
"323 389 OFFCURVE",
"330 388 CURVE"
);
},
{
closed = 1;
nodes = (
"410 296 LINE",
"412 285 OFFCURVE",
"413 273 OFFCURVE",
"413 260 CURVE SMOOTH",
"413 178 OFFCURVE",
"376 125 OFFCURVE",
"310 125 CURVE SMOOTH",
"304 125 OFFCURVE",
"298 125 OFFCURVE",
"292 126 CURVE"
);
}
);
width = 617;
}
);
unicode = 00F8;
},
{
glyphname = ugrave;
layers = (
{
hints = (
{
place = "{50, 160}";
type = Stem;
},
{
place = "{385, 160}";
type = Stem;
},
{
horizontal = 1;
place = "{0, 133}";
type = Stem;
},
{
horizontal = 1;
place = "{512, -20}";
target = down;
type = TopGhost;
}
);
layerId = "49A649E9-A574-4B20-B218-33A3EC71A7EA";
paths = (
{
closed = 1;
nodes = (
"58 673 LINE",
"309 546 LINE",
"369 646 LINE",
"129 796 LINE"
);
},
{
closed = 1;
nodes = (
"50 216 LINE SMOOTH",
"50 76 OFFCURVE",
"124 0 OFFCURVE",
"274 0 CURVE SMOOTH",
"333 0 OFFCURVE",
"372 12 OFFCURVE",
"403 32 CURVE",
"465 -46 LINE",
"600 61 LINE",
"545 125 LINE",
"545 512 LINE",
"385 512 LINE",
"385 225 LINE SMOOTH",
"385 165 OFFCURVE",
"352 133 OFFCURVE",
"298 133 CURVE SMOOTH",
"244 133 OFFCURVE",
"210 165 OFFCURVE",
"210 225 CURVE SMOOTH",
"210 512 LINE",
"50 512 LINE"
);
}
);
width = 620;
}
);
leftKerningGroup = u_2nd;
rightKerningGroup = u1_1st;
unicode = 00F9;
},
{
glyphname = uacute;
layers = (
{
hints = (
{
place = "{50, 160}";
type = Stem;
},
{
place = "{385, 160}";
type = Stem;
},
{
horizontal = 1;
place = "{0, 133}";
type = Stem;
},
{
horizontal = 1;
place = "{512, -20}";
target = down;
type = TopGhost;
}
);
layerId = "49A649E9-A574-4B20-B218-33A3EC71A7EA";
paths = (
{
closed = 1;
nodes = (
"560 673 LINE",
"489 796 LINE",
"249 646 LINE",
"309 546 LINE"
);
},
{
closed = 1;
nodes = (
"50 216 LINE SMOOTH",
"50 76 OFFCURVE",
"124 0 OFFCURVE",
"274 0 CURVE SMOOTH",
"333 0 OFFCURVE",
"372 12 OFFCURVE",
"403 32 CURVE",
"465 -46 LINE",
"600 61 LINE",
"545 125 LINE",
"545 512 LINE",
"385 512 LINE",
"385 225 LINE SMOOTH",
"385 165 OFFCURVE",
"352 133 OFFCURVE",
"298 133 CURVE SMOOTH",
"244 133 OFFCURVE",
"210 165 OFFCURVE",
"210 225 CURVE SMOOTH",
"210 512 LINE",
"50 512 LINE"
);
}
);
width = 620;
}
);
leftKerningGroup = u_2nd;
rightKerningGroup = u1_1st;
unicode = 00FA;
},
{
glyphname = ucircumflex;
layers = (
{
hints = (
{
place = "{50, 160}";
type = Stem;
},
{
place = "{385, 160}";
type = Stem;
},
{
horizontal = 1;
place = "{0, 133}";
type = Stem;
},
{
horizontal = 1;
place = "{512, -20}";
target = down;
type = TopGhost;
},
{
horizontal = 1;
place = "{767, -20}";
target = down;
type = TopGhost;
}
);
layerId = "49A649E9-A574-4B20-B218-33A3EC71A7EA";
paths = (
{
closed = 1;
nodes = (
"171 544 LINE",
"302 662 LINE",
"432 545 LINE",
"527 641 LINE",
"366 767 LINE",
"236 767 LINE",
"75 641 LINE"
);
},
{
closed = 1;
nodes = (
"50 216 LINE SMOOTH",
"50 76 OFFCURVE",
"124 0 OFFCURVE",
"274 0 CURVE SMOOTH",
"333 0 OFFCURVE",
"372 12 OFFCURVE",
"403 32 CURVE",
"465 -46 LINE",
"600 61 LINE",
"545 125 LINE",
"545 512 LINE",
"385 512 LINE",
"385 225 LINE SMOOTH",
"385 165 OFFCURVE",
"352 133 OFFCURVE",
"298 133 CURVE SMOOTH",
"244 133 OFFCURVE",
"210 165 OFFCURVE",
"210 225 CURVE SMOOTH",
"210 512 LINE",
"50 512 LINE"
);
}
);
width = 620;
}
);
leftKerningGroup = u_2nd;
rightKerningGroup = u1_1st;
unicode = 00FB;
},
{
glyphname = udieresis;
layers = (
{
hints = (
{
place = "{50, 160}";
type = Stem;
},
{
place = "{111, 180}";
type = Stem;
},
{
place = "{332, 180}";
type = Stem;
},
{
place = "{385, 160}";
type = Stem;
},
{
horizontal = 1;
place = "{0, 133}";
type = Stem;
},
{
horizontal = 1;
place = "{572, 174}";
type = Stem;
},
{
horizontal = 1;
place = "{512, -20}";
target = down;
type = TopGhost;
}
);
layerId = "49A649E9-A574-4B20-B218-33A3EC71A7EA";
paths = (
{
closed = 1;
nodes = (
"255 572 OFFCURVE",
"291 610 OFFCURVE",
"291 659 CURVE SMOOTH",
"291 708 OFFCURVE",
"255 746 OFFCURVE",
"201 746 CURVE SMOOTH",
"147 746 OFFCURVE",
"111 708 OFFCURVE",
"111 659 CURVE SMOOTH",
"111 610 OFFCURVE",
"147 572 OFFCURVE",
"201 572 CURVE SMOOTH"
);
},
{
closed = 1;
nodes = (
"476 572 OFFCURVE",
"512 610 OFFCURVE",
"512 659 CURVE SMOOTH",
"512 708 OFFCURVE",
"476 746 OFFCURVE",
"422 746 CURVE SMOOTH",
"368 746 OFFCURVE",
"332 708 OFFCURVE",
"332 659 CURVE SMOOTH",
"332 610 OFFCURVE",
"368 572 OFFCURVE",
"422 572 CURVE SMOOTH"
);
},
{
closed = 1;
nodes = (
"50 216 LINE SMOOTH",
"50 76 OFFCURVE",
"124 0 OFFCURVE",
"274 0 CURVE SMOOTH",
"333 0 OFFCURVE",
"372 12 OFFCURVE",
"403 32 CURVE",
"465 -46 LINE",
"600 61 LINE",
"545 125 LINE",
"545 512 LINE",
"385 512 LINE",
"385 225 LINE SMOOTH",
"385 165 OFFCURVE",
"352 133 OFFCURVE",
"298 133 CURVE SMOOTH",
"244 133 OFFCURVE",
"210 165 OFFCURVE",
"210 225 CURVE SMOOTH",
"210 512 LINE",
"50 512 LINE"
);
}
);
width = 620;
}
);
leftKerningGroup = u_2nd;
rightKerningGroup = u1_1st;
unicode = 00FC;
},
{
glyphname = yacute;
layers = (
{
hints = (
{
horizontal = 1;
place = "{512, -20}";
target = down;
type = TopGhost;
},
{
horizontal = 1;
place = "{-178, 21}";
target = up;
type = BottomGhost;
}
);
layerId = "49A649E9-A574-4B20-B218-33A3EC71A7EA";
paths = (
{
closed = 1;
nodes = (
"584 674 LINE",
"333 547 LINE",
"273 647 LINE",
"513 797 LINE"
);
},
{
closed = 1;
nodes = (
"173 -178 LINE",
"271 72 LINE",
"240 98 OFFCURVE",
"198 147 OFFCURVE",
"166 213 CURVE SMOOTH",
"20 512 LINE",
"190 512 LINE",
"328 216 LINE",
"444 512 LINE",
"614 512 LINE",
"338 -178 LINE"
);
}
);
width = 634;
}
);
leftKerningGroup = y_2nd;
rightKerningGroup = y1_1st;
unicode = 00FD;
},
{
glyphname = thorn;
layers = (
{
hints = (
{
place = "{50, 169}";
type = Stem;
},
{
place = "{407, 170}";
type = Stem;
},
{
horizontal = 1;
place = "{-8, 133}";
type = Stem;
},
{
horizontal = 1;
place = "{372, 133}";
type = Stem;
},
{
horizontal = 1;
place = "{-179, 21}";
target = up;
type = BottomGhost;
},
{
horizontal = 1;
place = "{656, -20}";
target = down;
type = TopGhost;
}
);
layerId = "49A649E9-A574-4B20-B218-33A3EC71A7EA";
paths = (
{
closed = 1;
nodes = (
"50 656 LINE",
"50 -179 LINE",
"219 -179 LINE",
"219 7 LINE",
"253 -2 OFFCURVE",
"290 -8 OFFCURVE",
"328 -8 CURVE SMOOTH",
"474 -8 OFFCURVE",
"577 86 OFFCURVE",
"577 249 CURVE SMOOTH",
"577 412 OFFCURVE",
"474 505 OFFCURVE",
"327 505 CURVE SMOOTH",
"290 505 OFFCURVE",
"253 499 OFFCURVE",
"219 490 CURVE",
"219 656 LINE"
);
},
{
closed = 1;
nodes = (
"219 354 LINE",
"241 366 OFFCURVE",
"269 372 OFFCURVE",
"296 372 CURVE SMOOTH",
"374 372 OFFCURVE",
"407 324 OFFCURVE",
"407 249 CURVE SMOOTH",
"407 174 OFFCURVE",
"374 125 OFFCURVE",
"296 125 CURVE SMOOTH",
"269 125 OFFCURVE",
"241 131 OFFCURVE",
"219 143 CURVE"
);
}
);
width = 607;
}
);
unicode = 00FE;
},
{
glyphname = ydieresis;
layers = (
{
hints = (
{
place = "{130, 180}";
type = Stem;
},
{
place = "{351, 180}";
type = Stem;
},
{
horizontal = 1;
place = "{572, 174}";
type = Stem;
},
{
horizontal = 1;
place = "{512, -20}";
target = down;
type = TopGhost;
},
{
horizontal = 1;
place = "{-178, 21}";
target = up;
type = BottomGhost;
}
);
layerId = "49A649E9-A574-4B20-B218-33A3EC71A7EA";
paths = (
{
closed = 1;
nodes = (
"166 572 OFFCURVE",
"130 610 OFFCURVE",
"130 659 CURVE SMOOTH",
"130 708 OFFCURVE",
"166 746 OFFCURVE",
"220 746 CURVE SMOOTH",
"274 746 OFFCURVE",
"310 708 OFFCURVE",
"310 659 CURVE SMOOTH",
"310 610 OFFCURVE",
"274 572 OFFCURVE",
"220 572 CURVE SMOOTH"
);
},
{
closed = 1;
nodes = (
"387 572 OFFCURVE",
"351 610 OFFCURVE",
"351 659 CURVE SMOOTH",
"351 708 OFFCURVE",
"387 746 OFFCURVE",
"441 746 CURVE SMOOTH",
"495 746 OFFCURVE",
"531 708 OFFCURVE",
"531 659 CURVE SMOOTH",
"531 610 OFFCURVE",
"495 572 OFFCURVE",
"441 572 CURVE SMOOTH"
);
},
{
closed = 1;
nodes = (
"173 -178 LINE",
"271 72 LINE",
"240 98 OFFCURVE",
"198 147 OFFCURVE",
"166 213 CURVE SMOOTH",
"20 512 LINE",
"190 512 LINE",
"328 216 LINE",
"444 512 LINE",
"614 512 LINE",
"338 -178 LINE"
);
}
);
width = 634;
}
);
leftKerningGroup = y_2nd;
rightKerningGroup = y1_1st;
unicode = 00FF;
},
{
glyphname = Dcroat;
layers = (
{
hints = (
{
place = "{120, 172}";
type = Stem;
},
{
place = "{544, 182}";
type = Stem;
},
{
horizontal = 1;
place = "{0, 130}";
type = Stem;
},
{
horizontal = 1;
place = "{243, 140}";
type = Stem;
},
{
horizontal = 1;
place = "{502, 138}";
type = Stem;
}
);
layerId = "49A649E9-A574-4B20-B218-33A3EC71A7EA";
paths = (
{
closed = 1;
nodes = (
"30 383 LINE",
"30 243 LINE",
"120 243 LINE",
"120 0 LINE",
"360 0 LINE SMOOTH",
"588 0 OFFCURVE",
"726 101 OFFCURVE",
"726 313 CURVE SMOOTH",
"726 535 OFFCURVE",
"575 640 OFFCURVE",
"356 640 CURVE SMOOTH",
"270 640 OFFCURVE",
"183 624 OFFCURVE",
"120 601 CURVE",
"120 383 LINE"
);
},
{
closed = 1;
nodes = (
"292 383 LINE",
"292 495 LINE",
"310 500 OFFCURVE",
"331 502 OFFCURVE",
"352 502 CURVE SMOOTH",
"471 502 OFFCURVE",
"544 435 OFFCURVE",
"544 308 CURVE SMOOTH",
"544 182 OFFCURVE",
"472 130 OFFCURVE",
"361 130 CURVE SMOOTH",
"292 130 LINE",
"292 243 LINE",
"422 243 LINE",
"422 383 LINE"
);
}
);
width = 756;
}
);
leftKerningGroup = Eth_2nd;
rightKerningGroup = Eth1_1st;
unicode = 0110;
},
{
glyphname = dcroat;
layers = (
{
hints = (
{
place = "{40, 164}";
type = Stem;
},
{
place = "{383, 160}";
type = Stem;
},
{
horizontal = 1;
place = "{-5, 134}";
type = Stem;
},
{
horizontal = 1;
place = "{362, 132}";
type = Stem;
},
{
horizontal = 1;
place = "{720, -20}";
target = down;
type = TopGhost;
}
);
layerId = "49A649E9-A574-4B20-B218-33A3EC71A7EA";
paths = (
{
closed = 1;
nodes = (
"328 -5 OFFCURVE",
"368 6 OFFCURVE",
"401 27 CURVE",
"463 -51 LINE",
"594 44 LINE",
"543 120 LINE",
"543 556 LINE",
"648 548 LINE",
"648 669 LINE",
"543 659 LINE",
"543 720 LINE",
"384 720 LINE",
"384 658 LINE",
"256 671 LINE",
"256 546 LINE",
"384 556 LINE",
"384 476 LINE",
"361 485 OFFCURVE",
"306 494 OFFCURVE",
"277 494 CURVE SMOOTH",
"124 494 OFFCURVE",
"40 394 OFFCURVE",
"40 250 CURVE SMOOTH",
"40 97 OFFCURVE",
"134 -5 OFFCURVE",
"280 -5 CURVE SMOOTH"
);
},
{
closed = 1;
nodes = (
"330 362 OFFCURVE",
"361 356 OFFCURVE",
"383 346 CURVE",
"383 218 LINE SMOOTH",
"383 154 OFFCURVE",
"336 129 OFFCURVE",
"292 129 CURVE SMOOTH",
"242 129 OFFCURVE",
"204 164 OFFCURVE",
"204 241 CURVE SMOOTH",
"204 323 OFFCURVE",
"246 362 OFFCURVE",
"306 362 CURVE SMOOTH"
);
}
);
width = 618;
}
);
unicode = 0111;
},
{
glyphname = uni0251;
layers = (
{
hints = (
{
place = "{30, 162}";
type = Stem;
},
{
place = "{390, 164}";
type = Stem;
},
{
horizontal = 1;
place = "{-3, 137}";
type = Stem;
},
{
horizontal = 1;
place = "{389, 132}";
type = Stem;
}
);
layerId = "49A649E9-A574-4B20-B218-33A3EC71A7EA";
paths = (
{
closed = 1;
nodes = (
"402 29 LINE",
"376 11 OFFCURVE",
"328 -3 OFFCURVE",
"278 -3 CURVE SMOOTH",
"143 -3 OFFCURVE",
"30 101 OFFCURVE",
"30 268 CURVE SMOOTH",
"30 425 OFFCURVE",
"130 521 OFFCURVE",
"299 521 CURVE SMOOTH",
"406 521 OFFCURVE",
"508 482 OFFCURVE",
"554 436 CURVE",
"554 109 LINE",
"595 53 LINE",
"444 -42 LINE"
);
},
{
closed = 1;
nodes = (
"390 369 LINE",
"368 380 OFFCURVE",
"337 389 OFFCURVE",
"306 389 CURVE SMOOTH",
"243 389 OFFCURVE",
"192 353 OFFCURVE",
"192 264 CURVE SMOOTH",
"192 174 OFFCURVE",
"245 134 OFFCURVE",
"299 134 CURVE SMOOTH",
"350 134 OFFCURVE",
"390 170 OFFCURVE",
"390 236 CURVE SMOOTH"
);
}
);
width = 615;
}
);
unicode = 0251;
},
{
glyphname = uni0259;
layers = (
{
hints = (
{
place = "{40, 140}";
type = Stem;
},
{
place = "{361, 157}";
type = Stem;
},
{
horizontal = 1;
place = "{-7, 121}";
type = Stem;
},
{
horizontal = 1;
place = "{209, 101}";
type = Stem;
},
{
horizontal = 1;
place = "{397, 120}";
type = Stem;
}
);
layerId = "49A649E9-A574-4B20-B218-33A3EC71A7EA";
paths = (
{
closed = 1;
nodes = (
"50 310 LINE",
"44 280 OFFCURVE",
"40 248 OFFCURVE",
"40 218 CURVE SMOOTH",
"40 94 OFFCURVE",
"109 -7 OFFCURVE",
"269 -7 CURVE SMOOTH",
"421 -7 OFFCURVE",
"518 84 OFFCURVE",
"518 245 CURVE SMOOTH",
"518 418 OFFCURVE",
"405 517 OFFCURVE",
"245 517 CURVE SMOOTH",
"162 517 OFFCURVE",
"93 490 OFFCURVE",
"59 462 CURVE",
"102 362 LINE",
"130 384 OFFCURVE",
"178 397 OFFCURVE",
"232 397 CURVE SMOOTH",
"297 397 OFFCURVE",
"354 378 OFFCURVE",
"361 310 CURVE"
);
},
{
closed = 1;
nodes = (
"361 209 LINE",
"361 152 OFFCURVE",
"327 114 OFFCURVE",
"270 114 CURVE SMOOTH",
"210 114 OFFCURVE",
"180 156 OFFCURVE",
"180 209 CURVE"
);
}
);
width = 558;
}
);
unicode = 0259;
},
{
glyphname = uni02BB;
layers = (
{
hints = (
{
horizontal = 1;
place = "{404, 21}";
target = up;
type = BottomGhost;
},
{
horizontal = 1;
place = "{660, -20}";
target = down;
type = TopGhost;
}
);
layerId = "49A649E9-A574-4B20-B218-33A3EC71A7EA";
paths = (
{
closed = 1;
nodes = (
"189 404 LINE",
"189 660 LINE",
"72 660 LINE",
"30 404 LINE"
);
}
);
width = 239;
}
);
leftKerningGroup = uni02BB_2nd;
rightKerningGroup = uni02BB1_1st;
unicode = 02BB;
},
{
glyphname = uni02BC;
layers = (
{
hints = (
{
horizontal = 1;
place = "{660, -20}";
target = down;
type = TopGhost;
},
{
horizontal = 1;
place = "{404, 21}";
target = up;
type = BottomGhost;
}
);
layerId = "49A649E9-A574-4B20-B218-33A3EC71A7EA";
paths = (
{
closed = 1;
nodes = (
"50 404 LINE",
"167 404 LINE",
"209 660 LINE",
"50 660 LINE"
);
}
);
width = 239;
}
);
leftKerningGroup = uni02BC_2nd;
rightKerningGroup = uni02BC1_1st;
unicode = 02BC;
},
{
glyphname = uni02BE;
layers = (
{
hints = (
{
place = "{102, 131}";
type = Stem;
}
);
layerId = "49A649E9-A574-4B20-B218-33A3EC71A7EA";
paths = (
{
closed = 1;
nodes = (
"30 403 LINE",
"72 420 OFFCURVE",
"102 459 OFFCURVE",
"102 509 CURVE SMOOTH",
"102 559 OFFCURVE",
"73 598 OFFCURVE",
"31 615 CURVE",
"100 710 LINE",
"180 684 OFFCURVE",
"233 611 OFFCURVE",
"233 511 CURVE SMOOTH",
"233 407 OFFCURVE",
"176 333 OFFCURVE",
"99 308 CURVE"
);
}
);
width = 263;
}
);
unicode = 02BE;
},
{
glyphname = uni02BF;
layers = (
{
hints = (
{
place = "{30, 131}";
type = Stem;
}
);
layerId = "49A649E9-A574-4B20-B218-33A3EC71A7EA";
paths = (
{
closed = 1;
nodes = (
"164 308 LINE",
"87 333 OFFCURVE",
"30 407 OFFCURVE",
"30 511 CURVE SMOOTH",
"30 611 OFFCURVE",
"83 684 OFFCURVE",
"163 710 CURVE",
"232 615 LINE",
"190 598 OFFCURVE",
"161 559 OFFCURVE",
"161 509 CURVE SMOOTH",
"161 459 OFFCURVE",
"190 420 OFFCURVE",
"232 403 CURVE"
);
}
);
width = 262;
}
);
unicode = 02BF;
},
{
glyphname = circumflex;
layers = (
{
hints = (
{
horizontal = 1;
place = "{732, -20}";
target = down;
type = TopGhost;
}
);
layerId = "49A649E9-A574-4B20-B218-33A3EC71A7EA";
paths = (
{
closed = 1;
nodes = (
"106 509 LINE",
"10 606 LINE",
"171 732 LINE",
"301 732 LINE",
"462 606 LINE",
"367 510 LINE",
"237 627 LINE"
);
}
);
width = 472;
}
);
unicode = 02C6;
},
{
glyphname = caron;
layers = (
{
hints = (
{
horizontal = 1;
place = "{539, 21}";
target = up;
type = BottomGhost;
}
);
layerId = "49A649E9-A574-4B20-B218-33A3EC71A7EA";
paths = (
{
closed = 1;
nodes = (
"10 665 LINE",
"106 762 LINE",
"237 644 LINE",
"367 761 LINE",
"462 665 LINE",
"301 539 LINE",
"171 539 LINE"
);
}
);
width = 472;
}
);
unicode = 02C7;
},
{
glyphname = uni02C8;
layers = (
{
hints = (
{
place = "{100, 140}";
type = Stem;
},
{
horizontal = 1;
place = "{572, 21}";
target = up;
type = BottomGhost;
},
{
horizontal = 1;
place = "{892, -20}";
target = down;
type = TopGhost;
}
);
layerId = "49A649E9-A574-4B20-B218-33A3EC71A7EA";
paths = (
{
closed = 1;
nodes = (
"100 572 LINE",
"240 572 LINE",
"240 892 LINE",
"100 892 LINE"
);
}
);
width = 340;
}
);
unicode = 02C8;
},
{
glyphname = uni02C9;
layers = (
{
hints = (
{
horizontal = 1;
place = "{568, 130}";
type = Stem;
}
);
layerId = "49A649E9-A574-4B20-B218-33A3EC71A7EA";
paths = (
{
closed = 1;
nodes = (
"30 568 LINE",
"380 568 LINE",
"380 698 LINE",
"30 698 LINE"
);
}
);
width = 410;
}
);
unicode = 02C9;
},
{
glyphname = uni02CA;
layers = (
{
layerId = "49A649E9-A574-4B20-B218-33A3EC71A7EA";
paths = (
{
closed = 1;
nodes = (
"321 663 LINE",
"250 786 LINE",
"10 636 LINE",
"70 536 LINE"
);
}
);
width = 331;
}
);
unicode = 02CA;
},
{
glyphname = uni02CB;
layers = (
{
layerId = "49A649E9-A574-4B20-B218-33A3EC71A7EA";
paths = (
{
closed = 1;
nodes = (
"15 663 LINE",
"266 536 LINE",
"326 636 LINE",
"86 786 LINE"
);
}
);
width = 331;
}
);
leftKerningGroup = grave_2nd;
rightKerningGroup = grave1_1st;
unicode = 02CB;
},
{
glyphname = uni02CC;
layers = (
{
hints = (
{
place = "{100, 140}";
type = Stem;
},
{
horizontal = 1;
place = "{-400, 21}";
target = up;
type = BottomGhost;
},
{
horizontal = 1;
place = "{-80, -20}";
target = down;
type = TopGhost;
}
);
layerId = "49A649E9-A574-4B20-B218-33A3EC71A7EA";
paths = (
{
closed = 1;
nodes = (
"100 -400 LINE",
"240 -400 LINE",
"240 -80 LINE",
"100 -80 LINE"
);
}
);
width = 340;
}
);
unicode = 02CC;
},
{
glyphname = breve;
layers = (
{
hints = (
{
horizontal = 1;
place = "{650, 115}";
type = Stem;
}
);
layerId = "49A649E9-A574-4B20-B218-33A3EC71A7EA";
paths = (
{
closed = 1;
nodes = (
"91 826 LINE",
"111 786 OFFCURVE",
"150 765 OFFCURVE",
"197 765 CURVE SMOOTH",
"244 765 OFFCURVE",
"283 786 OFFCURVE",
"303 826 CURVE",
"384 758 LINE",
"352 691 OFFCURVE",
"280 650 OFFCURVE",
"193 650 CURVE SMOOTH",
"106 650 OFFCURVE",
"36 691 OFFCURVE",
"10 758 CURVE"
);
}
);
width = 394;
}
);
unicode = 02D8;
},
{
glyphname = dotaccent;
layers = (
{
hints = (
{
place = "{10, 180}";
type = Stem;
},
{
horizontal = 1;
place = "{539, 174}";
type = Stem;
}
);
layerId = "49A649E9-A574-4B20-B218-33A3EC71A7EA";
paths = (
{
closed = 1;
nodes = (
"154 539 OFFCURVE",
"190 577 OFFCURVE",
"190 626 CURVE SMOOTH",
"190 675 OFFCURVE",
"154 713 OFFCURVE",
"100 713 CURVE SMOOTH",
"46 713 OFFCURVE",
"10 675 OFFCURVE",
"10 626 CURVE SMOOTH",
"10 577 OFFCURVE",
"46 539 OFFCURVE",
"100 539 CURVE SMOOTH"
);
}
);
width = 200;
}
);
unicode = 02D9;
},
{
glyphname = ring;
layers = (
{
hints = (
{
place = "{10, 94}";
type = Stem;
},
{
place = "{190, 92}";
type = Stem;
},
{
horizontal = 1;
place = "{522, 76}";
type = Stem;
},
{
horizontal = 1;
place = "{684, 77}";
type = Stem;
}
);
layerId = "49A649E9-A574-4B20-B218-33A3EC71A7EA";
paths = (
{
closed = 1;
nodes = (
"10 558 OFFCURVE",
"73 522 OFFCURVE",
"149 522 CURVE SMOOTH",
"225 522 OFFCURVE",
"282 558 OFFCURVE",
"282 640 CURVE SMOOTH",
"282 722 OFFCURVE",
"224 761 OFFCURVE",
"146 761 CURVE SMOOTH",
"69 761 OFFCURVE",
"10 721 OFFCURVE",
"10 641 CURVE SMOOTH"
);
},
{
closed = 1;
nodes = (
"125 598 OFFCURVE",
"104 613 OFFCURVE",
"104 642 CURVE SMOOTH",
"104 669 OFFCURVE",
"122 684 OFFCURVE",
"147 684 CURVE SMOOTH",
"171 684 OFFCURVE",
"190 671 OFFCURVE",
"190 641 CURVE SMOOTH",
"190 612 OFFCURVE",
"172 598 OFFCURVE",
"149 598 CURVE SMOOTH"
);
}
);
width = 292;
}
);
unicode = 02DA;
},
{
glyphname = ogonek;
layers = (
{
hints = (
{
place = "{20, 130}";
type = Stem;
},
{
horizontal = 1;
place = "{-205, 102}";
type = Stem;
}
);
layerId = "49A649E9-A574-4B20-B218-33A3EC71A7EA";
paths = (
{
closed = 1;
nodes = (
"240 -96 LINE",
"228 -101 OFFCURVE",
"217 -103 OFFCURVE",
"206 -103 CURVE SMOOTH",
"171 -103 OFFCURVE",
"150 -80 OFFCURVE",
"150 -49 CURVE SMOOTH",
"150 -29 OFFCURVE",
"158 -7 OFFCURVE",
"171 5 CURVE",
"83 48 LINE",
"45 24 OFFCURVE",
"20 -17 OFFCURVE",
"20 -69 CURVE SMOOTH",
"20 -145 OFFCURVE",
"75 -205 OFFCURVE",
"173 -205 CURVE SMOOTH",
"204 -205 OFFCURVE",
"235 -199 OFFCURVE",
"263 -182 CURVE"
);
}
);
width = 283;
}
);
unicode = 02DB;
},
{
glyphname = tilde;
layers = (
{
anchors = (
{
name = _top;
position = "{262, 461}";
}
);
hints = (
{
horizontal = 1;
place = "{577, 117}";
type = Stem;
},
{
horizontal = 1;
place = "{606, 117}";
type = Stem;
}
);
layerId = "49A649E9-A574-4B20-B218-33A3EC71A7EA";
paths = (
{
closed = 1;
nodes = (
"414 738 LINE",
"399 713 OFFCURVE",
"368 694 OFFCURVE",
"329 694 CURVE SMOOTH",
"305 694 OFFCURVE",
"276 701 OFFCURVE",
"252 707 CURVE SMOOTH",
"223 715 OFFCURVE",
"192 723 OFFCURVE",
"162 723 CURVE SMOOTH",
"90 723 OFFCURVE",
"38 677 OFFCURVE",
"20 618 CURVE",
"103 562 LINE",
"118 587 OFFCURVE",
"149 606 OFFCURVE",
"190 606 CURVE SMOOTH",
"222 606 OFFCURVE",
"255 595 OFFCURVE",
"285 587 CURVE SMOOTH",
"310 581 OFFCURVE",
"332 577 OFFCURVE",
"354 577 CURVE SMOOTH",
"426 577 OFFCURVE",
"479 623 OFFCURVE",
"497 682 CURVE"
);
}
);
width = 517;
}
);
unicode = 02DC;
},
{
glyphname = hungarumlaut;
layers = (
{
layerId = "49A649E9-A574-4B20-B218-33A3EC71A7EA";
paths = (
{
closed = 1;
nodes = (
"10 594 LINE",
"99 522 LINE",
"286 714 LINE",
"162 811 LINE"
);
},
{
closed = 1;
nodes = (
"260 594 LINE",
"349 522 LINE",
"536 714 LINE",
"412 811 LINE"
);
}
);
width = 546;
}
);
unicode = 02DD;
},
{
glyphname = gravecomb;
layers = (
{
anchors = (
{
name = _top;
position = "{172, 461}";
}
);
layerId = "49A649E9-A574-4B20-B218-33A3EC71A7EA";
paths = (
{
closed = 1;
nodes = (
"10 664 LINE",
"273 536 LINE",
"333 636 LINE",
"91 799 LINE"
);
}
);
width = 343;
}
);
unicode = 0300;
},
{
glyphname = acutecomb;
layers = (
{
anchors = (
{
name = _top;
position = "{172, 461}";
}
);
layerId = "49A649E9-A574-4B20-B218-33A3EC71A7EA";
paths = (
{
closed = 1;
nodes = (
"326 663 LINE",
"255 786 LINE",
"15 636 LINE",
"75 536 LINE"
);
}
);
width = 343;
}
);
unicode = 0301;
},
{
glyphname = uni0302;
layers = (
{
hints = (
{
horizontal = 1;
place = "{732, -20}";
target = down;
type = TopGhost;
}
);
layerId = "49A649E9-A574-4B20-B218-33A3EC71A7EA";
paths = (
{
closed = 1;
nodes = (
"116 509 LINE",
"20 606 LINE",
"181 732 LINE",
"311 732 LINE",
"472 606 LINE",
"377 510 LINE",
"247 627 LINE"
);
}
);
width = 492;
}
);
unicode = 0302;
},
{
glyphname = tildecomb;
layers = (
{
hints = (
{
horizontal = 1;
place = "{559, 117}";
type = Stem;
},
{
horizontal = 1;
place = "{588, 117}";
type = Stem;
}
);
layerId = "49A649E9-A574-4B20-B218-33A3EC71A7EA";
paths = (
{
closed = 1;
nodes = (
"-83 720 LINE",
"-98 695 OFFCURVE",
"-129 676 OFFCURVE",
"-168 676 CURVE SMOOTH",
"-192 676 OFFCURVE",
"-221 683 OFFCURVE",
"-245 689 CURVE SMOOTH",
"-274 697 OFFCURVE",
"-305 705 OFFCURVE",
"-335 705 CURVE SMOOTH",
"-407 705 OFFCURVE",
"-459 659 OFFCURVE",
"-477 600 CURVE",
"-394 544 LINE",
"-379 569 OFFCURVE",
"-348 588 OFFCURVE",
"-308 588 CURVE SMOOTH",
"-284 588 OFFCURVE",
"-257 582 OFFCURVE",
"-221 572 CURVE SMOOTH",
"-200 567 OFFCURVE",
"-171 559 OFFCURVE",
"-142 559 CURVE SMOOTH",
"-71 559 OFFCURVE",
"-18 605 OFFCURVE",
"0 664 CURVE"
);
}
);
width = 0;
}
);
unicode = 0303;
},
{
glyphname = uni0304;
layers = (
{
hints = (
{
horizontal = 1;
place = "{558, 140}";
type = Stem;
}
);
layerId = "49A649E9-A574-4B20-B218-33A3EC71A7EA";
paths = (
{
closed = 1;
nodes = (
"20 558 LINE",
"370 558 LINE",
"370 698 LINE",
"20 698 LINE"
);
}
);
width = 390;
}
);
unicode = 0304;
},
{
glyphname = uni0306;
layers = (
{
anchors = (
{
name = top;
position = "{211, 787}";
}
);
hints = (
{
horizontal = 1;
place = "{650, 120}";
type = Stem;
}
);
layerId = "49A649E9-A574-4B20-B218-33A3EC71A7EA";
paths = (
{
closed = 1;
nodes = (
"105 831 LINE",
"122 791 OFFCURVE",
"164 770 OFFCURVE",
"211 770 CURVE SMOOTH",
"258 770 OFFCURVE",
"300 791 OFFCURVE",
"317 831 CURVE",
"412 774 LINE",
"384 697 OFFCURVE",
"309 650 OFFCURVE",
"211 650 CURVE SMOOTH",
"113 650 OFFCURVE",
"38 697 OFFCURVE",
"10 774 CURVE"
);
}
);
width = 422;
}
);
unicode = 0306;
},
{
glyphname = uni0307;
layers = (
{
hints = (
{
place = "{20, 180}";
type = Stem;
},
{
horizontal = 1;
place = "{539, 174}";
type = Stem;
}
);
layerId = "49A649E9-A574-4B20-B218-33A3EC71A7EA";
paths = (
{
closed = 1;
nodes = (
"164 539 OFFCURVE",
"200 577 OFFCURVE",
"200 626 CURVE SMOOTH",
"200 675 OFFCURVE",
"164 713 OFFCURVE",
"110 713 CURVE SMOOTH",
"56 713 OFFCURVE",
"20 675 OFFCURVE",
"20 626 CURVE SMOOTH",
"20 577 OFFCURVE",
"56 539 OFFCURVE",
"110 539 CURVE SMOOTH"
);
}
);
width = 220;
}
);
leftKerningGroup = uni0307_2nd;
rightKerningGroup = uni03071_1st;
unicode = 0307;
},
{
glyphname = uni0308;
layers = (
{
hints = (
{
place = "{20, 180}";
type = Stem;
},
{
place = "{241, 180}";
type = Stem;
},
{
horizontal = 1;
place = "{540, 174}";
type = Stem;
}
);
layerId = "49A649E9-A574-4B20-B218-33A3EC71A7EA";
paths = (
{
closed = 1;
nodes = (
"164 540 OFFCURVE",
"200 578 OFFCURVE",
"200 627 CURVE SMOOTH",
"200 676 OFFCURVE",
"164 714 OFFCURVE",
"110 714 CURVE SMOOTH",
"56 714 OFFCURVE",
"20 676 OFFCURVE",
"20 627 CURVE SMOOTH",
"20 578 OFFCURVE",
"56 540 OFFCURVE",
"110 540 CURVE SMOOTH"
);
},
{
closed = 1;
nodes = (
"385 540 OFFCURVE",
"421 578 OFFCURVE",
"421 627 CURVE SMOOTH",
"421 676 OFFCURVE",
"385 714 OFFCURVE",
"331 714 CURVE SMOOTH",
"277 714 OFFCURVE",
"241 676 OFFCURVE",
"241 627 CURVE SMOOTH",
"241 578 OFFCURVE",
"277 540 OFFCURVE",
"331 540 CURVE SMOOTH"
);
}
);
width = 441;
}
);
leftKerningGroup = uni0307_2nd;
rightKerningGroup = uni03071_1st;
unicode = 0308;
},
{
glyphname = hookabovecomb;
layers = (
{
anchors = (
{
name = _top;
position = "{105, 461}";
}
);
hints = (
{
horizontal = 1;
place = "{523, 231}";
type = Stem;
},
{
horizontal = 1;
place = "{675, 79}";
type = Stem;
}
);
layerId = "49A649E9-A574-4B20-B218-33A3EC71A7EA";
paths = (
{
closed = 1;
nodes = (
"62 523 LINE",
"146 523 LINE",
"146 538 LINE SMOOTH",
"146 551 OFFCURVE",
"155 562 OFFCURVE",
"173 576 CURVE SMOOTH",
"196 594 LINE SMOOTH",
"222 614 OFFCURVE",
"245 636 OFFCURVE",
"245 669 CURVE SMOOTH",
"245 716 OFFCURVE",
"199 754 OFFCURVE",
"131 754 CURVE SMOOTH",
"83 754 OFFCURVE",
"43 735 OFFCURVE",
"20 715 CURVE",
"50 653 LINE",
"70 667 OFFCURVE",
"91 675 OFFCURVE",
"114 675 CURVE SMOOTH",
"137 675 OFFCURVE",
"146 667 OFFCURVE",
"146 657 CURVE SMOOTH",
"146 649 OFFCURVE",
"141 642 OFFCURVE",
"128 632 CURVE SMOOTH",
"105 614 LINE SMOOTH",
"73 589 OFFCURVE",
"62 571 OFFCURVE",
"62 541 CURVE SMOOTH"
);
}
);
width = 265;
}
);
unicode = 0309;
},
{
glyphname = uni030A;
layers = (
{
hints = (
{
place = "{20, 101}";
type = Stem;
},
{
place = "{187, 102}";
type = Stem;
},
{
horizontal = 1;
place = "{530, 77}";
type = Stem;
},
{
horizontal = 1;
place = "{675, 78}";
type = Stem;
}
);
layerId = "49A649E9-A574-4B20-B218-33A3EC71A7EA";
paths = (
{
closed = 1;
nodes = (
"223 530 OFFCURVE",
"289 566 OFFCURVE",
"289 641 CURVE SMOOTH",
"289 716 OFFCURVE",
"223 753 OFFCURVE",
"155 753 CURVE SMOOTH",
"88 753 OFFCURVE",
"20 715 OFFCURVE",
"20 641 CURVE SMOOTH",
"20 566 OFFCURVE",
"88 530 OFFCURVE",
"155 530 CURVE SMOOTH"
);
},
{
closed = 1;
nodes = (
"136 607 OFFCURVE",
"121 622 OFFCURVE",
"121 641 CURVE SMOOTH",
"121 660 OFFCURVE",
"136 675 OFFCURVE",
"155 675 CURVE SMOOTH",
"175 675 OFFCURVE",
"187 660 OFFCURVE",
"187 641 CURVE SMOOTH",
"187 622 OFFCURVE",
"175 607 OFFCURVE",
"155 607 CURVE SMOOTH"
);
}
);
width = 309;
}
);
unicode = 030A;
},
{
glyphname = uni030B;
layers = (
{
layerId = "49A649E9-A574-4B20-B218-33A3EC71A7EA";
paths = (
{
closed = 1;
nodes = (
"10 594 LINE",
"99 522 LINE",
"286 714 LINE",
"162 811 LINE"
);
},
{
closed = 1;
nodes = (
"260 594 LINE",
"349 522 LINE",
"536 714 LINE",
"412 811 LINE"
);
}
);
width = 546;
}
);
unicode = 030B;
},
{
glyphname = uni030C;
layers = (
{
anchors = (
{
name = _030C;
position = "{236, 464}";
}
);
hints = (
{
horizontal = 1;
place = "{539, 21}";
target = up;
type = BottomGhost;
}
);
layerId = "49A649E9-A574-4B20-B218-33A3EC71A7EA";
paths = (
{
closed = 1;
nodes = (
"106 762 LINE",
"10 665 LINE",
"171 539 LINE",
"301 539 LINE",
"462 665 LINE",
"367 761 LINE",
"237 644 LINE"
);
}
);
width = 472;
}
);
unicode = 030C;
},
{
glyphname = uni031B;
layers = (
{
hints = (
{
place = "{-10, 207}";
type = Stem;
},
{
horizontal = 1;
place = "{201, -20}";
target = down;
type = TopGhost;
}
);
layerId = "49A649E9-A574-4B20-B218-33A3EC71A7EA";
paths = (
{
closed = 1;
nodes = (
"91 249 LINE",
"187 306 OFFCURVE",
"227 402 OFFCURVE",
"227 487 CURVE SMOOTH",
"227 560 OFFCURVE",
"197 610 OFFCURVE",
"122 610 CURVE SMOOTH",
"61 610 OFFCURVE",
"20 577 OFFCURVE",
"20 513 CURVE SMOOTH",
"20 461 OFFCURVE",
"47 432 OFFCURVE",
"84 420 CURVE",
"70 384 OFFCURVE",
"41 359 OFFCURVE",
"16 338 CURVE SMOOTH",
"10 333 LINE"
);
}
);
width = 257;
}
);
unicode = 031B;
},
{
glyphname = dotbelowcomb;
layers = (
{
hints = (
{
place = "{20, 178}";
type = Stem;
},
{
horizontal = 1;
place = "{542, 172}";
type = Stem;
}
);
layerId = "49A649E9-A574-4B20-B218-33A3EC71A7EA";
paths = (
{
closed = 1;
nodes = (
"161 542 OFFCURVE",
"198 581 OFFCURVE",
"198 628 CURVE SMOOTH",
"198 675 OFFCURVE",
"161 714 OFFCURVE",
"109 714 CURVE SMOOTH",
"57 714 OFFCURVE",
"20 675 OFFCURVE",
"20 628 CURVE SMOOTH",
"20 581 OFFCURVE",
"57 542 OFFCURVE",
"109 542 CURVE SMOOTH"
);
}
);
width = 218;
}
);
leftKerningGroup = uni0307_2nd;
rightKerningGroup = uni03071_1st;
unicode = 0323;
},
{
glyphname = uni0324;
layers = (
{
hints = (
{
place = "{20, 173}";
type = Stem;
},
{
place = "{237, 173}";
type = Stem;
},
{
horizontal = 1;
place = "{-244, 167}";
type = Stem;
}
);
layerId = "49A649E9-A574-4B20-B218-33A3EC71A7EA";
paths = (
{
closed = 1;
nodes = (
"158 -244 OFFCURVE",
"193 -208 OFFCURVE",
"193 -161 CURVE SMOOTH",
"193 -114 OFFCURVE",
"158 -77 OFFCURVE",
"106 -77 CURVE SMOOTH",
"54 -77 OFFCURVE",
"20 -114 OFFCURVE",
"20 -161 CURVE SMOOTH",
"20 -208 OFFCURVE",
"54 -244 OFFCURVE",
"106 -244 CURVE SMOOTH"
);
},
{
closed = 1;
nodes = (
"375 -244 OFFCURVE",
"410 -208 OFFCURVE",
"410 -161 CURVE SMOOTH",
"410 -114 OFFCURVE",
"375 -77 OFFCURVE",
"323 -77 CURVE SMOOTH",
"271 -77 OFFCURVE",
"237 -114 OFFCURVE",
"237 -161 CURVE SMOOTH",
"237 -208 OFFCURVE",
"271 -244 OFFCURVE",
"323 -244 CURVE SMOOTH"
);
}
);
width = 430;
}
);
unicode = 0324;
},
